NotoSansArmenian.glyphspackage
{
glyphname = hyphen;
kernLeft = hyphen.right;
kernRight = hyphen.left;
layers = (
{
layerId = m001;
shapes = (
{
closed = 1;
nodes = (
(282,259,l),
(282,284,l),
(40,284,l),
(40,259,l)
);
}
);
userData = {
com.schriftgestaltung.Glyphs.subCategory = Dash;
};
width = 322;
},
{
layerId = m002;
shapes = (
{
closed = 1;
nodes = (
(282,229,l),
(282,307,l),
(40,307,l),
(40,229,l)
);
}
);
userData = {
com.schriftgestaltung.Glyphs.subCategory = Dash;
};
width = 322;
},
{
layerId = m004;
shapes = (
{
closed = 1;
nodes = (
(297,192,l),
(297,344,l),
(21,344,l),
(21,192,l)
);
}
);
userData = {
com.schriftgestaltung.Glyphs.subCategory = Dash;
};
width = 318;
},
{
layerId = m005;
shapes = (
{
closed = 1;
nodes = (
(237,259,l),
(237,286,l),
(26,286,l),
(26,259,l)
);
}
);
userData = {
com.schriftgestaltung.Glyphs.subCategory = Dash;
};
width = 263;
},
{
layerId = m006;
shapes = (
{
closed = 1;
nodes = (
(247,229,l),
(247,310,l),
(27,310,l),
(27,229,l)
);
}
);
userData = {
com.schriftgestaltung.Glyphs.subCategory = Dash;
};
width = 274;
},
{
layerId = m008;
shapes = (
{
closed = 1;
nodes = (
(296,192,l),
(296,344,l),
(29,344,l),
(29,192,l)
);
}
);
userData = {
com.schriftgestaltung.Glyphs.subCategory = Dash;
};
width = 325;
}
);
unicode = 45;
}
{
category = Mark;
glyphname = gravecomb;
layers = (
{
anchors = (
{
name = _top;
pos = (-390,553);
},
{
name = top;
pos = (-390,765);
}
);
layerId = m004;
shapes = (
{
closed = 1;
nodes = (
(-559,766,l),
(-559,756,l),
(-511,718,o),
(-402,640,o),
(-348,606,c),
(-221,606,l),
(-221,620,l),
(-254,657,o),
(-315,721,o),
(-349,766,c)
);
}
);
width = 0;
},
{
anchors = (
{
name = _top;
pos = (-262,553);
},
{
name = top;
pos = (-262,765);
}
);
layerId = m008;
shapes = (
{
closed = 1;
nodes = (
(-412,766,l),
(-412,756,l),
(-386,724,o),
(-303,636,o),
(-271,606,c),
(-152,606,l),
(-152,620,l),
(-170,648,o),
(-213,727,o),
(-230,766,c)
);
}
);
width = 0;
},
{
anchors = (
{
name = _top;
pos = (-363,536);
},
{
name = top;
pos = (-363,765);
}
);
layerId = m002;
shapes = (
{
closed = 1;
nodes = (
(-493,766,l),
(-493,756,l),
(-470,719,o),
(-397,642,o),
(-351,606,c),
(-292,606,l),
(-292,618,l),
(-323,655,o),
(-366,721,o),
(-388,766,c)
);
}
);
width = 0;
},
{
anchors = (
{
name = _top;
pos = (-278,537);
},
{
name = top;
pos = (-278,765);
}
);
layerId = m006;
shapes = (
{
closed = 1;
nodes = (
(-391,766,l),
(-391,757,l),
(-365,714,o),
(-297,640,o),
(-257,606,c),
(-205,606,l),
(-205,617,l),
(-233,654,o),
(-273,720,o),
(-294,766,c)
);
}
);
width = 0;
},
{
anchors = (
{
name = _top;
pos = (-362,528);
},
{
name = top;
pos = (-362,766);
}
);
layerId = m001;
shapes = (
{
closed = 1;
nodes = (
(-446,766,l),
(-446,759,l),
(-411,714,o),
(-351,650,o),
(-298,606,c),
(-277,606,l),
(-277,612,l),
(-322,652,o),
(-387,723,o),
(-416,766,c)
);
}
);
width = 0;
},
{
anchors = (
{
name = _top;
pos = (-329,527);
},
{
name = top;
pos = (-329,763);
}
);
layerId = m005;
shapes = (
{
closed = 1;
nodes = (
(-401,763,l),
(-401,756,l),
(-368,705,o),
(-310,644,o),
(-272,606,c),
(-256,606,l),
(-256,617,l),
(-295,663,o),
(-335,708,o),
(-370,763,c)
);
}
);
width = 0;
}
);
script = "";
subCategory = Nonspacing;
unicode = 768;
}
{
category = Mark;
glyphname = acutecomb;
layers = (
{
anchors = (
{
name = _top;
pos = (-290,553);
},
{
name = top;
pos = (-290,765);
}
);
layerId = m004;
shapes = (
{
closed = 1;
nodes = (
(-51,766,l),
(-260,766,l),
(-293,721,o),
(-355,657,o),
(-389,620,c),
(-389,606,l),
(-262,606,l),
(-208,640,o),
(-98,718,o),
(-51,756,c)
);
}
);
width = 0;
},
{
anchors = (
{
name = _top;
pos = (-262,553);
},
{
name = top;
pos = (-262,765);
}
);
layerId = m008;
shapes = (
{
closed = 1;
nodes = (
(-102,766,l),
(-284,766,l),
(-305,722,o),
(-330,673,o),
(-362,620,c),
(-362,606,l),
(-243,606,l),
(-193,653,o),
(-130,722,o),
(-102,756,c)
);
}
);
width = 0;
},
{
anchors = (
{
name = _top;
pos = (-272,536);
},
{
name = top;
pos = (-272,765);
}
);
layerId = m002;
shapes = (
{
closed = 1;
nodes = (
(-124,766,l),
(-230,766,l),
(-253,721,o),
(-296,655,o),
(-325,618,c),
(-325,606,l),
(-267,606,l),
(-220,642,o),
(-149,719,o),
(-124,756,c)
);
}
);
width = 0;
},
{
anchors = (
{
name = _top;
pos = (-235,537);
},
{
name = top;
pos = (-235,765);
}
);
layerId = m006;
shapes = (
{
closed = 1;
nodes = (
(-105,766,l),
(-202,766,l),
(-223,721,o),
(-253,671,o),
(-291,617,c),
(-291,606,l),
(-239,606,l),
(-198,642,o),
(-130,715,o),
(-105,757,c)
);
}
);
width = 0;
},
{
anchors = (
{
name = _top;
pos = (-166,528);
},
{
name = top;
pos = (-166,766);
}
);
layerId = m001;
shapes = (
{
closed = 1;
nodes = (
(-41,766,l),
(-71,766,l),
(-100,723,o),
(-165,652,o),
(-210,612,c),
(-210,606,l),
(-189,606,l),
(-136,650,o),
(-76,714,o),
(-41,759,c)
);
}
);
width = 0;
},
{
anchors = (
{
name = _top;
pos = (-195,527);
},
{
name = top;
pos = (-195,763);
}
);
layerId = m005;
shapes = (
{
closed = 1;
nodes = (
(-94,763,l),
(-124,763,l),
(-158,711,o),
(-190,671,o),
(-235,618,c),
(-235,606,l),
(-221,606,l),
(-182,643,o),
(-127,707,o),
(-94,756,c)
);
}
);
width = 0;
}
);
script = "";
subCategory = Nonspacing;
unicode = 769;
}
{
category = Mark;
glyphname = circumflexcomb;
layers = (
{
anchors = (
{
name = _top;
pos = (-6,553);
},
{
name = top;
pos = (-6,765);
}
);
layerId = m004;
shapes = (
{
closed = 1;
nodes = (
(-101,766,l),
(-131,720,o),
(-189,656,o),
(-227,620,c),
(-227,606,l),
(-101,606,l),
(-66,628,o),
(-41,649,o),
(-6,679,c),
(29,649,o),
(57,626,o),
(92,606,c),
(216,606,l),
(216,620,l),
(182,654,o),
(122,720,o),
(91,766,c)
);
}
);
width = 0;
},
{
anchors = (
{
name = _top;
pos = (0,553);
},
{
name = top;
pos = (0,765);
}
);
layerId = m008;
shapes = (
{
closed = 1;
nodes = (
(-73,766,l),
(-90,731,o),
(-142,654,o),
(-169,620,c),
(-169,606,l),
(-68,606,l),
(-51,620,o),
(-28,645,o),
(0,679,c),
(27,646,o),
(50,622,o),
(70,606,c),
(169,606,l),
(169,620,l),
(129,673,o),
(97,722,o),
(74,766,c)
);
}
);
width = 0;
},
{
anchors = (
{
name = _top;
pos = (2,536);
},
{
name = top;
pos = (2,765);
}
);
layerId = m002;
shapes = (
{
closed = 1;
nodes = (
(-44,766,l),
(-70,721,o),
(-130,656,o),
(-167,617,c),
(-167,606,l),
(-107,606,l),
(-72,628,o),
(-36,660,o),
(0,696,c),
(36,660,o),
(74,627,o),
(109,606,c),
(171,606,l),
(171,617,l),
(133,655,o),
(70,721,o),
(46,766,c)
);
}
);
width = 0;
},
{
anchors = (
{
name = _top;
pos = (0,537);
},
{
name = top;
pos = (0,765);
}
);
layerId = m006;
shapes = (
{
closed = 1;
nodes = (
(-39,766,l),
(-58,723,o),
(-95,665,o),
(-131,616,c),
(-131,606,l),
(-86,606,l),
(-62,629,o),
(-31,665,o),
(0,700,c),
(30,665,o),
(58,632,o),
(86,606,c),
(131,606,l),
(131,616,l),
(98,660,o),
(59,721,o),
(38,766,c)
);
}
);
width = 0;
},
{
anchors = (
{
name = _top;
pos = (-14,528);
},
{
name = top;
pos = (-14,763);
}
);
layerId = m001;
shapes = (
{
closed = 1;
nodes = (
(-24,763,l),
(-48,722,o),
(-103,653,o),
(-140,612,c),
(-140,606,l),
(-119,606,l),
(-82,643,o),
(-41,693,o),
(-13,731,c),
(15,693,o),
(54,643,o),
(91,606,c),
(112,606,l),
(112,612,l),
(75,653,o),
(22,722,o),
(-2,763,c)
);
}
);
width = 0;
},
{
anchors = (
{
name = _top;
pos = (0,527);
},
{
name = top;
pos = (0,763);
}
);
layerId = m005;
shapes = (
{
closed = 1;
nodes = (
(-15,763,l),
(-39,719,o),
(-83,644,o),
(-104,613,c),
(-104,606,l),
(-88,606,l),
(-61,639,o),
(-25,696,o),
(0,733,c),
(27,693,o),
(61,640,o),
(89,606,c),
(104,606,l),
(104,613,l),
(92,632,o),
(41,716,o),
(15,763,c)
);
}
);
width = 0;
}
);
script = "";
subCategory = Nonspacing;
unicode = 770;
}
{
category = Mark;
glyphname = macroncomb;
layers = (
{
anchors = (
{
name = _top;
pos = (-1,553);
},
{
name = top;
pos = (-1,724);
}
);
layerId = m004;
shapes = (
{
closed = 1;
nodes = (
(-178,721,l),
(-178,606,l),
(177,606,l),
(177,721,l)
);
}
);
width = 0;
},
{
anchors = (
{
name = _top;
pos = (-1,553);
},
{
name = top;
pos = (-1,739);
}
);
layerId = m008;
shapes = (
{
closed = 1;
nodes = (
(-149,736,l),
(-149,621,l),
(148,621,l),
(148,736,l)
);
}
);
width = 0;
},
{
anchors = (
{
name = _top;
pos = (1,536);
},
{
name = top;
pos = (1,679);
}
);
layerId = m002;
shapes = (
{
closed = 1;
nodes = (
(-148,677,l),
(-148,606,l),
(149,606,l),
(149,677,l)
);
}
);
width = 0;
},
{
anchors = (
{
name = _top;
pos = (1,537);
},
{
name = top;
pos = (1,679);
}
);
layerId = m006;
shapes = (
{
closed = 1;
nodes = (
(-121,676,l),
(-121,614,l),
(122,614,l),
(122,676,l)
);
}
);
width = 0;
},
{
anchors = (
{
name = _top;
pos = (-2,528);
},
{
name = top;
pos = (-2,638);
}
);
layerId = m001;
shapes = (
{
closed = 1;
nodes = (
(-129,638,l),
(-129,614,l),
(126,614,l),
(126,638,l)
);
}
);
width = 0;
},
{
anchors = (
{
name = _top;
pos = (-10,527);
},
{
name = top;
pos = (-10,641);
}
);
layerId = m005;
shapes = (
{
closed = 1;
nodes = (
(-111,641,l),
(-111,617,l),
(91,617,l),
(91,641,l)
);
}
);
width = 0;
}
);
script = "";
subCategory = Nonspacing;
unicode = 772;
}
{
color = 10;
glyphname = dieresiscomb;
layers = (
{
anchors = (
{
name = _top;
pos = (-1,528);
}
);
layerId = m001;
shapes = (
{
closed = 1;
nodes = (
(-117,661,o),
(-112,647,o),
(-94,647,cs),
(-72,647,o),
(-69,661,o),
(-69,678,cs),
(-69,694,o),
(-72,709,o),
(-94,709,cs),
(-112,709,o),
(-117,694,o),
(-117,678,cs)
);
},
{
closed = 1;
nodes = (
(68,661,o),
(73,647,o),
(91,647,cs),
(113,647,o),
(116,661,o),
(116,678,cs),
(116,694,o),
(113,709,o),
(91,709,cs),
(73,709,o),
(68,694,o),
(68,678,cs)
);
}
);
userData = {
com.schriftgestaltung.Glyphs.category = Mark;
com.schriftgestaltung.Glyphs.subCategory = Nonspacing;
};
width = 0;
},
{
anchors = (
{
name = _top;
pos = (-1,536);
}
);
layerId = m002;
shapes = (
{
closed = 1;
nodes = (
(-141,647,o),
(-120,631,o),
(-94,631,cs),
(-69,631,o),
(-47,647,o),
(-47,681,cs),
(-47,716,o),
(-69,730,o),
(-94,730,cs),
(-120,730,o),
(-141,716,o),
(-141,681,cs)
);
},
{
closed = 1;
nodes = (
(47,647,o),
(68,631,o),
(93,631,cs),
(118,631,o),
(140,647,o),
(140,681,cs),
(140,716,o),
(118,730,o),
(93,730,cs),
(68,730,o),
(47,716,o),
(47,681,cs)
);
}
);
userData = {
com.schriftgestaltung.Glyphs.category = Mark;
com.schriftgestaltung.Glyphs.subCategory = Nonspacing;
};
width = 0;
},
{
anchors = (
{
name = _top;
pos = (1,546);
}
);
associatedMasterId = m002;
attr = {
coordinates = (
144,
100
);
};
background = {
shapes = (
{
closed = 1;
nodes = (
(-178.21,641.51,o),
(-148.06,620.63,o),
(-109.25,620.63,cs),
(-72.05,620.63,o),
(-39.68,641.51,o),
(-39.68,686.49,cs),
(-39.68,732.47,o),
(-72.05,752.57,o),
(-109.25,752.57,cs),
(-148.06,752.57,o),
(-178.21,732.47,o),
(-178.21,686.49,cs)
);
},
{
closed = 1;
nodes = (
(37.85,641.51,o),
(68,620.63,o),
(107.03,620.63,cs),
(144.23,620.63,o),
(176.6,641.51,o),
(176.6,686.49,cs),
(176.6,732.47,o),
(144.23,752.57,o),
(107.03,752.57,cs),
(68,752.57,o),
(37.85,732.47,o),
(37.85,686.49,cs)
);
}
);
};
layerId = "52c8d60a-9c90-4db2-b46b-ad4aadee7f1f";
name = "SemiBold (intermediate)";
shapes = (
{
closed = 1;
nodes = (
(-167,642,o),
(-137,621,o),
(-99,621,cs),
(-62,621,o),
(-30,642,o),
(-30,686,cs),
(-30,732,o),
(-62,752,o),
(-99,752,cs),
(-137,752,o),
(-167,732,o),
(-167,686,cs)
);
},
{
closed = 1;
nodes = (
(30,642,o),
(60,621,o),
(99,621,cs),
(136,621,o),
(168,642,o),
(168,686,cs),
(168,732,o),
(136,752,o),
(99,752,cs),
(60,752,o),
(30,732,o),
(30,686,cs)
);
}
);
userData = {
com.schriftgestaltung.Glyphs.category = Mark;
com.schriftgestaltung.Glyphs.subCategory = Nonspacing;
};
width = 0;
},
{
anchors = (
{
name = _top;
pos = (-1,553);
}
);
layerId = m004;
shapes = (
{
closed = 1;
nodes = (
(-202,638,o),
(-166,614,o),
(-119,614,cs),
(-74,614,o),
(-35,638,o),
(-35,690,cs),
(-35,743,o),
(-74,767,o),
(-119,767,cs),
(-166,767,o),
(-202,743,o),
(-202,690,cs)
);
},
{
closed = 1;
nodes = (
(32,638,o),
(68,614,o),
(116,614,cs),
(161,614,o),
(200,638,o),
(200,690,cs),
(200,743,o),
(161,767,o),
(116,767,cs),
(68,767,o),
(32,743,o),
(32,690,cs)
);
}
);
userData = {
com.schriftgestaltung.Glyphs.category = Mark;
com.schriftgestaltung.Glyphs.subCategory = Nonspacing;
};
width = 0;
},
{
anchors = (
{
name = _top;
pos = (-1,527);
}
);
layerId = m005;
shapes = (
{
closed = 1;
nodes = (
(-96,646,o),
(-87,631,o),
(-71,631,cs),
(-57,631,o),
(-47,644,o),
(-47,663,cs),
(-47,682,o),
(-57,696,o),
(-71,696,cs),
(-87,696,o),
(-96,680,o),
(-96,663,cs)
);
},
{
closed = 1;
nodes = (
(45,646,o),
(55,631,o),
(70,631,cs),
(85,631,o),
(95,645,o),
(95,664,cs),
(95,683,o),
(84,696,o),
(70,696,cs),
(55,696,o),
(45,681,o),
(45,664,cs)
);
}
);
userData = {
com.schriftgestaltung.Glyphs.category = Mark;
com.schriftgestaltung.Glyphs.subCategory = Nonspacing;
};
width = 0;
},
{
anchors = (
{
name = _top;
pos = (1,537);
}
);
layerId = m006;
shapes = (
{
closed = 1;
nodes = (
(-124,633,o),
(-105,616,o),
(-81,616,cs),
(-57,616,o),
(-39,633,o),
(-39,668,cs),
(-39,701,o),
(-57,718,o),
(-81,718,cs),
(-105,718,o),
(-124,702,o),
(-124,668,cs)
);
},
{
closed = 1;
nodes = (
(39,633,o),
(57,616,o),
(82,616,cs),
(106,616,o),
(125,633,o),
(125,668,cs),
(125,701,o),
(106,718,o),
(82,718,cs),
(58,718,o),
(39,702,o),
(39,668,cs)
);
}
);
userData = {
com.schriftgestaltung.Glyphs.category = Mark;
com.schriftgestaltung.Glyphs.subCategory = Nonspacing;
};
width = 0;
},
{
anchors = (
{
name = _top;
pos = (0,553);
}
);
layerId = m008;
shapes = (
{
closed = 1;
nodes = (
(-169,642,o),
(-141,614,o),
(-98,614,cs),
(-53,614,o),
(-25,644,o),
(-25,690,cs),
(-25,737,o),
(-53,767,o),
(-98,767,cs),
(-141,767,o),
(-169,739,o),
(-169,690,cs)
);
},
{
closed = 1;
nodes = (
(24,643,o),
(51,614,o),
(96,614,cs),
(142,614,o),
(169,644,o),
(169,690,cs),
(169,737,o),
(142,767,o),
(96,767,cs),
(52,767,o),
(24,739,o),
(24,690,cs)
);
}
);
userData = {
com.schriftgestaltung.Glyphs.category = Mark;
com.schriftgestaltung.Glyphs.subCategory = Nonspacing;
};
width = 0;
}
);
unicode = 776;
}
{
category = Mark;
glyphname = ringcomb;
layers = (
{
anchors = (
{
name = _top;
pos = (-14,553);
},
{
name = top;
pos = (-12,851);
}
);
layerId = m004;
shapes = (
{
closed = 1;
nodes = (
(58,604,o),
(117,651,o),
(117,728,cs),
(117,804,o),
(57,851,o),
(-16,851,cs),
(-93,851,o),
(-145,804,o),
(-145,727,cs),
(-145,651,o),
(-93,604,o),
(-16,604,cs)
);
},
{
closed = 1;
nodes = (
(-43,686,o),
(-57,703,o),
(-57,727,cs),
(-57,752,o),
(-39,768,o),
(-16,768,cs),
(7,768,o),
(25,752,o),
(25,727,cs),
(25,703,o),
(7,686,o),
(-16,686,cs)
);
}
);
width = 0;
},
{
anchors = (
{
name = _top;
pos = (0,553);
},
{
name = top;
pos = (2,851);
}
);
layerId = m008;
shapes = (
{
closed = 1;
nodes = (
(74,604,o),
(124,659,o),
(124,728,cs),
(124,797,o),
(73,851,o),
(0,851,cs),
(-75,851,o),
(-124,799,o),
(-124,727,cs),
(-124,656,o),
(-75,604,o),
(0,604,cs)
);
},
{
closed = 1;
nodes = (
(-27,687,o),
(-41,704,o),
(-41,728,cs),
(-41,752,o),
(-23,769,o),
(0,769,cs),
(23,769,o),
(41,752,o),
(41,728,cs),
(41,704,o),
(23,687,o),
(0,687,cs)
);
}
);
width = 0;
},
{
anchors = (
{
name = _top;
pos = (2,536);
},
{
name = top;
pos = (4,817);
}
);
layerId = m002;
shapes = (
{
closed = 1;
nodes = (
(65,606,o),
(112,645,o),
(112,713,cs),
(112,778,o),
(64,817,o),
(1,817,cs),
(-64,817,o),
(-108,778,o),
(-108,712,cs),
(-108,645,o),
(-64,606,o),
(1,606,cs)
);
},
{
closed = 1;
nodes = (
(-35,656,o),
(-55,677,o),
(-55,712,cs),
(-55,747,o),
(-31,768,o),
(1,768,cs),
(33,768,o),
(57,747,o),
(57,712,cs),
(57,677,o),
(34,656,o),
(1,656,cs)
);
}
);
width = 0;
},
{
anchors = (
{
name = _top;
pos = (0,537);
},
{
name = top;
pos = (2,810);
}
);
layerId = m006;
shapes = (
{
closed = 1;
nodes = (
(64,609,o),
(105,650,o),
(105,711,cs),
(105,771,o),
(61,810,o),
(0,810,cs),
(-65,810,o),
(-105,770,o),
(-105,709,cs),
(-105,649,o),
(-65,609,o),
(0,609,cs)
);
},
{
closed = 1;
nodes = (
(-35,658,o),
(-53,678,o),
(-53,709,cs),
(-53,740,o),
(-31,762,o),
(1,762,cs),
(35,762,o),
(54,740,o),
(54,709,cs),
(54,678,o),
(32,658,o),
(1,658,cs)
);
}
);
width = 0;
},
{
anchors = (
{
name = _top;
pos = (3,528);
},
{
name = top;
pos = (3,811);
}
);
layerId = m001;
shapes = (
{
closed = 1;
nodes = (
(58,611,o),
(103,652,o),
(103,711,cs),
(103,766,o),
(58,811,o),
(3,811,cs),
(-52,811,o),
(-98,768,o),
(-98,711,cs),
(-98,651,o),
(-51,611,o),
(3,611,cs)
);
},
{
closed = 1;
nodes = (
(-42,635,o),
(-74,669,o),
(-74,711,cs),
(-74,753,o),
(-41,787,o),
(3,787,cs),
(44,787,o),
(79,753,o),
(79,711,cs),
(79,669,o),
(48,635,o),
(3,635,cs)
);
}
);
width = 0;
},
{
anchors = (
{
name = _top;
pos = (0,527);
},
{
name = top;
pos = (0,789);
}
);
layerId = m005;
shapes = (
{
closed = 1;
nodes = (
(51,617,o),
(87,650,o),
(87,702,cs),
(87,755,o),
(49,789,o),
(-1,789,cs),
(-49,789,o),
(-87,757,o),
(-87,703,cs),
(-87,648,o),
(-47,617,o),
(1,617,cs)
);
},
{
closed = 1;
nodes = (
(-42,639,o),
(-64,668,o),
(-64,703,cs),
(-64,740,o),
(-42,767,o),
(-1,767,cs),
(39,767,o),
(64,741,o),
(64,702,cs),
(64,664,o),
(40,639,o),
(1,639,cs)
);
}
);
width = 0;
}
);
script = "";
subCategory = Nonspacing;
unicode = 778;
}
{
glyphname = uni0531;
kernLeft = uni0531;
layers = (
{
anchors = (
{
name = top;
pos = (352,714);
}
);
layerId = m001;
shapes = (
{
closed = 1;
nodes = (
(505,-10,o),
(613,74,o),
(613,252,cs),
(613,714,l),
(587,714,l),
(587,244,ls),
(587,92,o),
(493,15,o),
(351,15,cs),
(202,15,o),
(116,96,o),
(116,256,cs),
(116,714,l),
(90,714,l),
(90,254,ls),
(90,81,o),
(185,-10,o),
(350,-10,cs)
);
},
{
closed = 1;
nodes = (
(594,179,l),
(605,182,o),
(617,183,o),
(629,183,cs),
(701,183,o),
(744,142,o),
(744,35,cs),
(744,0,l),
(770,0,l),
(770,36,ls),
(770,157,o),
(719,208,o),
(631,208,cs),
(618,208,o),
(607,207,o),
(596,204,c)
);
}
);
width = 792;
},
{
anchors = (
{
name = top;
pos = (363,714);
}
);
layerId = m002;
shapes = (
{
closed = 1;
nodes = (
(534,-10,o),
(635,89,o),
(635,252,cs),
(635,714,l),
(545,714,l),
(545,261,ls),
(545,130,o),
(479,66,o),
(363,66,cs),
(245,66,o),
(180,128,o),
(180,267,cs),
(180,714,l),
(90,714,l),
(90,254,ls),
(90,88,o),
(187,-10,o),
(360,-10,cs)
);
},
{
closed = 1;
nodes = (
(608,149,l),
(617,151,o),
(630,152,o),
(643,152,cs),
(699,152,o),
(729,123,o),
(729,41,cs),
(729,0,l),
(809,0,l),
(809,46,ls),
(809,170,o),
(754,222,o),
(656,222,cs),
(645,222,o),
(633,221,o),
(622,218,c)
);
}
);
width = 831;
},
{
anchors = (
{
name = top;
pos = (363,714);
}
);
layerId = m004;
shapes = (
{
closed = 1;
nodes = (
(563,-10,o),
(653,114,o),
(653,252,cs),
(653,714,l),
(462,714,l),
(462,287,ls),
(462,189,o),
(440,148,o),
(364,148,cs),
(296,148,o),
(264,177,o),
(264,282,cs),
(264,714,l),
(73,714,l),
(73,254,ls),
(73,99,o),
(172,-10,o),
(359,-10,cs)
);
},
{
closed = 1;
nodes = (
(606,99,l),
(615,102,o),
(634,104,o),
(647,104,cs),
(677,104,o),
(688,93,o),
(688,51,cs),
(688,0,l),
(851,0,l),
(851,62,ls),
(851,191,o),
(791,244,o),
(678,244,cs),
(669,244,o),
(657,243,o),
(646,241,c)
);
}
);
width = 861;
},
{
anchors = (
{
name = top;
pos = (243,714);
}
);
layerId = m005;
shapes = (
{
closed = 1;
nodes = (
(338,-10,o),
(414,42,o),
(414,217,cs),
(414,714,l),
(388,714,l),
(388,221,ls),
(388,63,o),
(328,15,o),
(243,15,cs),
(152,15,o),
(98,71,o),
(98,221,cs),
(98,714,l),
(72,714,l),
(72,217,ls),
(72,59,o),
(133,-10,o),
(243,-10,cs)
);
},
{
closed = 1;
nodes = (
(405,181,l),
(410,183,o),
(417,184,o),
(426,184,cs),
(471,184,o),
(491,152,o),
(491,87,cs),
(491,-3,l),
(517,-3,l),
(517,88,ls),
(517,169,o),
(485,209,o),
(429,209,cs),
(421,209,o),
(411,208,o),
(405,206,c)
);
}
);
width = 529;
},
{
anchors = (
{
name = top;
pos = (264,714);
}
);
layerId = m006;
shapes = (
{
closed = 1;
nodes = (
(382,-10,o),
(462,56,o),
(462,227,cs),
(462,714,l),
(378,714,l),
(378,231,ls),
(378,104,o),
(334,64,o),
(264,64,cs),
(191,64,o),
(149,110,o),
(149,231,cs),
(149,714,l),
(66,714,l),
(66,225,ls),
(66,64,o),
(136,-10,o),
(263,-10,cs)
);
},
{
closed = 1;
nodes = (
(439,148,l),
(446,151,o),
(456,152,o),
(467,152,cs),
(503,152,o),
(519,127,o),
(519,73,cs),
(519,-2,l),
(593,-2,l),
(593,78,ls),
(593,176,o),
(555,223,o),
(481,223,cs),
(472,223,o),
(461,222,o),
(454,220,c)
);
}
);
width = 604;
},
{
anchors = (
{
name = top;
pos = (295,714);
}
);
layerId = m008;
shapes = (
{
closed = 1;
nodes = (
(448,-10,o),
(533,77,o),
(533,242,cs),
(533,714,l),
(363,714,l),
(363,247,ls),
(363,163,o),
(342,135,o),
(294,135,cs),
(249,135,o),
(226,164,o),
(226,246,cs),
(226,714,l),
(56,714,l),
(56,238,ls),
(56,72,o),
(140,-10,o),
(292,-10,cs)
);
},
{
closed = 1;
nodes = (
(490,98,l),
(500,102,o),
(515,104,o),
(529,104,cs),
(551,104,o),
(562,90,o),
(562,51,cs),
(562,0,l),
(708,0,l),
(708,62,ls),
(708,187,o),
(660,244,o),
(559,244,cs),
(548,244,o),
(535,242,o),
(527,240,c)
);
}
);
width = 716;
}
);
note = uni0531;
unicode = 1329;
}
{
glyphname = uni0532;
kernLeft = uni0538;
kernRight = uni0532;
layers = (
{
layerId = m001;
shapes = (
{
closed = 1;
nodes = (
(116,0,l),
(116,470,ls),
(116,622,o),
(200,699,o),
(342,699,cs),
(491,699,o),
(567,620,o),
(567,460,c),
(593,460,l),
(593,633,o),
(508,724,o),
(343,724,cs),
(188,724,o),
(90,640,o),
(90,462,cs),
(90,0,l)
);
},
{
closed = 1;
nodes = (
(109,304,l),
(595,304,l),
(595,329,l),
(109,329,l)
);
}
);
width = 663;
},
{
layerId = m002;
shapes = (
{
closed = 1;
nodes = (
(180,0,l),
(180,453,ls),
(180,584,o),
(241,648,o),
(357,648,cs),
(479,648,o),
(535,584,o),
(535,445,c),
(625,445,l),
(625,627,o),
(538,724,o),
(360,724,cs),
(186,724,o),
(90,625,o),
(90,462,cs),
(90,0,l)
);
},
{
closed = 1;
nodes = (
(169,265,l),
(628,265,l),
(628,341,l),
(169,341,l)
);
}
);
width = 696;
},
{
layerId = m004;
shapes = (
{
closed = 1;
nodes = (
(264,0,l),
(264,425,ls),
(264,525,o),
(289,566,o),
(365,566,cs),
(442,566,o),
(468,528,o),
(468,420,c),
(659,420,l),
(659,618,o),
(569,724,o),
(370,724,cs),
(166,724,o),
(73,600,o),
(73,462,cs),
(73,0,l)
);
},
{
closed = 1;
nodes = (
(248,202,l),
(665,202,l),
(665,360,l),
(248,360,l)
);
}
);
width = 721;
},
{
layerId = m005;
shapes = (
{
closed = 1;
nodes = (
(98,0,l),
(98,493,ls),
(98,651,o),
(158,699,o),
(243,699,cs),
(334,699,o),
(388,643,o),
(388,493,c),
(414,493,l),
(414,655,o),
(353,724,o),
(243,724,cs),
(148,724,o),
(72,672,o),
(72,497,cs),
(72,0,l)
);
},
{
closed = 1;
nodes = (
(91,303,l),
(414,303,l),
(414,328,l),
(91,328,l)
);
}
);
width = 472;
},
{
layerId = m006;
shapes = (
{
closed = 1;
nodes = (
(149,0,l),
(149,483,ls),
(149,610,o),
(194,650,o),
(264,650,cs),
(341,650,o),
(378,602,o),
(378,468,c),
(462,468,l),
(462,651,o),
(400,724,o),
(265,724,cs),
(146,724,o),
(66,658,o),
(66,487,cs),
(66,0,l)
);
},
{
closed = 1;
nodes = (
(138,267,l),
(461,267,l),
(461,341,l),
(138,341,l)
);
}
);
width = 515;
},
{
layerId = m008;
shapes = (
{
closed = 1;
nodes = (
(226,0,l),
(226,467,ls),
(226,551,o),
(247,579,o),
(295,579,cs),
(351,579,o),
(363,543,o),
(363,430,c),
(533,430,l),
(533,645,o),
(471,724,o),
(297,724,cs),
(141,724,o),
(56,637,o),
(56,472,cs),
(56,0,l)
);
},
{
closed = 1;
nodes = (
(210,216,l),
(533,216,l),
(533,361,l),
(210,361,l)
);
}
);
width = 581;
}
);
note = uni0532;
unicode = 1330;
}
{
glyphname = uni0533;
kernLeft = uni0533;
kernRight = uni0533;
layers = (
{
layerId = m001;
shapes = (
{
closed = 1;
nodes = (
(535,452,ls),
(535,640,o),
(448,724,o),
(299,724,cs),
(144,724,o),
(65,642,o),
(65,514,cs),
(65,376,o),
(150,304,o),
(315,304,cs),
(713,304,l),
(713,329,l),
(316,329,ls),
(167,329,o),
(91,390,o),
(91,514,cs),
(91,628,o),
(161,699,o),
(300,699,cs),
(431,699,o),
(509,622,o),
(509,460,cs),
(509,0,l),
(535,0,l)
);
}
);
width = 735;
},
{
layerId = m002;
shapes = (
{
closed = 1;
nodes = (
(579,438,ls),
(579,630,o),
(487,724,o),
(322,724,cs),
(158,724,o),
(65,640,o),
(65,495,cs),
(65,347,o),
(157,265,o),
(336,265,cs),
(736,265,l),
(736,341,l),
(346,341,ls),
(215,341,o),
(158,393,o),
(158,495,cs),
(158,596,o),
(214,648,o),
(322,648,cs),
(431,648,o),
(489,575,o),
(489,436,cs),
(489,0,l),
(579,0,l)
);
}
);
width = 758;
},
{
layerId = m004;
shapes = (
{
closed = 1;
nodes = (
(630,416,ls),
(630,630,o),
(538,724,o),
(340,724,cs),
(164,724,o),
(48,620,o),
(48,465,cs),
(48,297,o),
(146,204,o),
(319,204,cs),
(755,204,l),
(755,362,l),
(344,362,ls),
(269,362,o),
(246,393,o),
(246,465,cs),
(246,532,o),
(280,566,o),
(338,566,cs),
(414,566,o),
(439,519,o),
(439,398,cs),
(439,0,l),
(630,0,l)
);
}
);
width = 779;
},
{
layerId = m005;
shapes = (
{
closed = 1;
nodes = (
(390,497,ls),
(390,672,o),
(314,724,o),
(219,724,cs),
(109,724,o),
(48,655,o),
(48,503,cs),
(48,380,o),
(106,302,o),
(222,302,cs),
(492,302,l),
(492,327,l),
(224,327,ls),
(123,327,o),
(74,392,o),
(74,503,cs),
(74,643,o),
(128,699,o),
(219,699,cs),
(304,699,o),
(364,651,o),
(364,493,cs),
(364,0,l),
(390,0,l)
);
}
);
width = 504;
},
{
layerId = m006;
shapes = (
{
closed = 1;
nodes = (
(439,487,ls),
(439,658,o),
(360,724,o),
(241,724,cs),
(118,724,o),
(44,648,o),
(44,488,cs),
(44,351,o),
(113,269,o),
(241,269,cs),
(550,269,l),
(550,343,l),
(250,343,ls),
(168,343,o),
(127,396,o),
(127,488,cs),
(127,602,o),
(167,650,o),
(241,650,cs),
(312,650,o),
(356,610,o),
(356,483,cs),
(356,0,l),
(439,0,l)
);
}
);
width = 563;
},
{
layerId = m008;
shapes = (
{
closed = 1;
nodes = (
(514,472,ls),
(514,637,o),
(429,724,o),
(273,724,cs),
(131,724,o),
(38,638,o),
(38,465,cs),
(38,307,o),
(119,219,o),
(269,219,cs),
(638,219,l),
(638,364,l),
(290,364,ls),
(225,364,o),
(208,401,o),
(208,465,cs),
(208,545,o),
(227,579,o),
(275,579,cs),
(323,579,o),
(344,551,o),
(344,467,cs),
(344,0,l),
(514,0,l)
);
}
);
width = 653;
}
);
note = uni0533;
unicode = 1331;
}
{
glyphname = uni0534;
kernLeft = uni0534;
kernRight = uni0533;
layers = (
{
layerId = m001;
shapes = (
{
closed = 1;
nodes = (
(542,462,ls),
(542,640,o),
(449,724,o),
(299,724,cs),
(139,724,o),
(59,633,o),
(59,460,c),
(85,460,l),
(85,620,o),
(156,699,o),
(300,699,cs),
(437,699,o),
(516,622,o),
(516,470,cs),
(516,0,l),
(542,0,l)
);
},
{
closed = 1;
nodes = (
(528,304,l),
(694,304,l),
(694,329,l),
(528,329,l)
);
}
);
width = 726;
},
{
layerId = m002;
shapes = (
{
closed = 1;
nodes = (
(584,461,ls),
(584,629,o),
(489,724,o),
(323,724,cs),
(146,724,o),
(59,621,o),
(59,445,c),
(149,445,l),
(149,583,o),
(204,648,o),
(321,648,cs),
(433,648,o),
(494,588,o),
(494,453,cs),
(494,0,l),
(584,0,l)
);
},
{
closed = 1;
nodes = (
(569,265,l),
(732,265,l),
(732,341,l),
(569,341,l)
);
}
);
width = 764;
},
{
layerId = m004;
shapes = (
{
closed = 1;
nodes = (
(630,459,ls),
(630,612,o),
(530,724,o),
(338,724,cs),
(135,724,o),
(37,601,o),
(37,422,c),
(228,422,l),
(228,526,o),
(257,566,o),
(332,566,cs),
(404,566,o),
(439,536,o),
(439,426,cs),
(439,0,l),
(630,0,l)
);
},
{
closed = 1;
nodes = (
(613,203,l),
(771,203,l),
(771,361,l),
(613,361,l)
);
}
);
width = 789;
},
{
layerId = m005;
shapes = (
{
closed = 1;
nodes = (
(384,497,ls),
(384,655,o),
(323,724,o),
(213,724,cs),
(118,724,o),
(42,668,o),
(42,493,c),
(68,493,l),
(68,651,o),
(128,699,o),
(213,699,cs),
(304,699,o),
(358,643,o),
(358,493,cs),
(358,0,l),
(384,0,l)
);
},
{
closed = 1;
nodes = (
(375,302,l),
(512,302,l),
(512,327,l),
(375,327,l)
);
}
);
width = 524;
},
{
layerId = m006;
shapes = (
{
closed = 1;
nodes = (
(437,489,ls),
(437,650,o),
(367,724,o),
(240,724,cs),
(121,724,o),
(41,654,o),
(41,467,c),
(124,467,l),
(124,610,o),
(169,650,o),
(239,650,cs),
(312,650,o),
(353,604,o),
(353,483,cs),
(353,0,l),
(437,0,l)
);
},
{
closed = 1;
nodes = (
(428,269,l),
(568,269,l),
(568,343,l),
(428,343,l)
);
}
);
width = 581;
},
{
layerId = m008;
shapes = (
{
closed = 1;
nodes = (
(517,476,ls),
(517,642,o),
(433,724,o),
(281,724,cs),
(125,724,o),
(40,632,o),
(40,427,c),
(210,427,l),
(210,551,o),
(231,579,o),
(279,579,cs),
(324,579,o),
(347,550,o),
(347,468,cs),
(347,0,l),
(517,0,l)
);
},
{
closed = 1;
nodes = (
(508,219,l),
(652,219,l),
(652,364,l),
(508,364,l)
);
}
);
width = 667;
}
);
note = uni0534;
unicode = 1332;
}
{
glyphname = uni0535;
kernLeft = uni0531;
kernRight = uni0535;
layers = (
{
layerId = m001;
shapes = (
{
closed = 1;
nodes = (
(90,252,ls),
(90,74,o),
(188,-10,o),
(343,-10,cs),
(508,-10,o),
(593,81,o),
(593,254,c),
(567,254,l),
(567,94,o),
(491,15,o),
(342,15,cs),
(200,15,o),
(116,92,o),
(116,244,cs),
(116,714,l),
(90,714,l)
);
},
{
closed = 1;
nodes = (
(595,609,l),
(595,634,l),
(109,634,l),
(109,609,l)
);
}
);
width = 663;
},
{
layerId = m002;
shapes = (
{
closed = 1;
nodes = (
(90,252,ls),
(90,89,o),
(186,-10,o),
(360,-10,cs),
(538,-10,o),
(625,87,o),
(625,269,c),
(535,269,l),
(535,130,o),
(479,66,o),
(357,66,cs),
(241,66,o),
(180,130,o),
(180,261,cs),
(180,714,l),
(90,714,l)
);
},
{
closed = 1;
nodes = (
(628,528,l),
(628,604,l),
(169,604,l),
(169,528,l)
);
}
);
width = 696;
},
{
layerId = m004;
shapes = (
{
closed = 1;
nodes = (
(73,252,ls),
(73,114,o),
(166,-10,o),
(370,-10,cs),
(569,-10,o),
(659,96,o),
(659,294,c),
(468,294,l),
(468,186,o),
(442,148,o),
(365,148,cs),
(289,148,o),
(264,189,o),
(264,289,cs),
(264,714,l),
(73,714,l)
);
},
{
closed = 1;
nodes = (
(665,398,l),
(665,556,l),
(248,556,l),
(248,398,l)
);
}
);
width = 721;
},
{
layerId = m005;
shapes = (
{
closed = 1;
nodes = (
(72,217,ls),
(72,42,o),
(148,-10,o),
(243,-10,cs),
(353,-10,o),
(414,59,o),
(414,221,c),
(388,221,l),
(388,71,o),
(334,15,o),
(243,15,cs),
(158,15,o),
(98,63,o),
(98,221,cs),
(98,714,l),
(72,714,l)
);
},
{
closed = 1;
nodes = (
(414,609,l),
(414,634,l),
(91,634,l),
(91,609,l)
);
}
);
width = 472;
},
{
layerId = m006;
shapes = (
{
closed = 1;
nodes = (
(66,227,ls),
(66,56,o),
(146,-10,o),
(265,-10,cs),
(400,-10,o),
(462,63,o),
(462,246,c),
(378,246,l),
(378,112,o),
(341,64,o),
(264,64,cs),
(194,64,o),
(149,104,o),
(149,231,cs),
(149,714,l),
(66,714,l)
);
},
{
closed = 1;
nodes = (
(461,529,l),
(461,603,l),
(138,603,l),
(138,529,l)
);
}
);
width = 515;
},
{
layerId = m008;
shapes = (
{
closed = 1;
nodes = (
(56,242,ls),
(56,77,o),
(141,-10,o),
(297,-10,cs),
(461,-10,o),
(533,69,o),
(533,284,c),
(363,284,l),
(363,171,o),
(351,135,o),
(295,135,cs),
(247,135,o),
(226,163,o),
(226,247,cs),
(226,714,l),
(56,714,l)
);
},
{
closed = 1;
nodes = (
(533,411,l),
(533,556,l),
(210,556,l),
(210,411,l)
);
}
);
width = 581;
}
);
note = uni0535;
unicode = 1333;
}
{
glyphname = uni0536;
kernLeft = uni0536;
kernRight = uni0536;
layers = (
{
layerId = m001;
shapes = (
{
closed = 1;
nodes = (
(467,285,o),
(542,382,o),
(542,507,cs),
(542,631,o),
(475,728,o),
(309,728,cs),
(156,728,o),
(66,642,o),
(66,507,cs),
(66,380,o),
(144,285,o),
(303,285,cs)
);
},
{
closed = 1;
nodes = (
(588,-1,l),
(588,49,ls),
(588,114,o),
(555,145,o),
(498,145,cs),
(102,145,l),
(102,204,l),
(76,204,l),
(76,0,l),
(102,0,l),
(102,120,l),
(498,120,ls),
(538,120,o),
(562,98,o),
(562,48,cs),
(562,-1,l)
);
},
{
closed = 1;
nodes = (
(301,126,o),
(542,224,o),
(542,507,c),
(520,507,l),
(520,248,o),
(294,145,o),
(105,145,c),
(105,126,l)
);
},
{
closed = 1;
nodes = (
(161,310,o),
(93,391,o),
(93,507,cs),
(93,630,o),
(171,703,o),
(309,703,cs),
(457,703,o),
(515,616,o),
(515,507,cs),
(515,392,o),
(450,310,o),
(303,310,cs)
);
}
);
width = 628;
},
{
layerId = m002;
shapes = (
{
closed = 1;
nodes = (
(469,287,o),
(572,395,o),
(572,498,cs),
(572,635,o),
(484,729,o),
(322,729,cs),
(165,729,o),
(66,640,o),
(66,508,cs),
(66,379,o),
(160,287,o),
(308,287,cs)
);
},
{
closed = 1;
nodes = (
(630,0,l),
(630,58,ls),
(630,139,o),
(590,170,o),
(518,170,cs),
(152,170,l),
(152,227,l),
(73,227,l),
(73,0,l),
(152,0,l),
(152,94,l),
(488,94,ls),
(532,94,o),
(551,80,o),
(551,36,cs),
(551,0,l)
);
},
{
closed = 1;
nodes = (
(358,110,o),
(570,244,o),
(571,498,c),
(489,498,l),
(489,286,o),
(323,170,o),
(157,170,c),
(157,110,l)
);
},
{
closed = 1;
nodes = (
(209,361,o),
(156,419,o),
(156,508,cs),
(156,602,o),
(214,655,o),
(321,655,cs),
(433,655,o),
(481,595,o),
(481,508,cs),
(481,420,o),
(430,361,o),
(318,361,cs)
);
}
);
width = 670;
},
{
layerId = m004;
shapes = (
{
closed = 1;
nodes = (
(458,290,o),
(606,377,o),
(606,485,cs),
(606,646,o),
(486,729,o),
(329,729,cs),
(167,729,o),
(53,638,o),
(53,510,cs),
(53,379,o),
(172,290,o),
(302,290,cs)
);
},
{
closed = 1;
nodes = (
(684,0,l),
(684,73,ls),
(684,177,o),
(635,208,o),
(538,208,cs),
(215,208,l),
(215,262,l),
(57,262,l),
(57,0,l),
(215,0,l),
(215,58,l),
(461,58,ls),
(511,58,o),
(522,47,o),
(522,18,cs),
(522,0,l)
);
},
{
closed = 1;
nodes = (
(436,75,o),
(603,277,o),
(606,485,c),
(428,485,l),
(428,346,o),
(357,208,o),
(227,208,c),
(227,75,l)
);
},
{
closed = 1;
nodes = (
(274,440,o),
(244,464,o),
(244,510,cs),
(244,552,o),
(269,579,o),
(328,579,cs),
(384,579,o),
(415,557,o),
(415,510,cs),
(415,463,o),
(387,440,o),
(331,440,cs)
);
}
);
width = 708;
},
{
layerId = m005;
shapes = (
{
closed = 1;
nodes = (
(280,282,o),
(331,381,o),
(331,508,cs),
(331,632,o),
(286,727,o),
(189,727,cs),
(100,727,o),
(42,645,o),
(42,507,cs),
(42,378,o),
(93,282,o),
(184,282,cs)
);
},
{
closed = 1;
nodes = (
(361,0,l),
(361,48,ls),
(361,112,o),
(335,145,o),
(274,145,cs),
(79,145,l),
(79,205,l),
(53,205,l),
(53,0,l),
(79,0,l),
(79,120,l),
(265,120,ls),
(318,120,o),
(336,96,o),
(336,49,cs),
(336,0,l)
);
},
{
closed = 1;
nodes = (
(200,127,o),
(331,219,o),
(331,508,c),
(309,508,l),
(309,247,o),
(193,145,o),
(83,145,c),
(83,127,l)
);
},
{
closed = 1;
nodes = (
(105,307,o),
(68,389,o),
(68,507,cs),
(68,632,o),
(111,702,o),
(189,702,cs),
(273,702,o),
(305,617,o),
(305,507,cs),
(305,390,o),
(270,307,o),
(186,307,cs)
);
}
);
width = 385;
},
{
layerId = m006;
shapes = (
{
closed = 1;
nodes = (
(329,285,o),
(408,401,o),
(408,499,cs),
(408,636,o),
(344,726,o),
(228,726,cs),
(120,726,o),
(46,642,o),
(46,508,cs),
(46,381,o),
(115,285,o),
(217,285,cs)
);
},
{
closed = 1;
nodes = (
(448,0,l),
(448,58,ls),
(448,136,o),
(414,170,o),
(341,170,cs),
(132,170,l),
(132,228,l),
(54,228,l),
(54,0,l),
(132,0,l),
(132,96,l),
(310,96,ls),
(358,96,o),
(371,75,o),
(371,35,cs),
(371,0,l)
);
},
{
closed = 1;
nodes = (
(275,111,o),
(408,236,o),
(408,499,c),
(331,499,l),
(331,279,o),
(240,170,o),
(134,170,c),
(134,111,l)
);
},
{
closed = 1;
nodes = (
(160,359,o),
(129,419,o),
(129,506,cs),
(129,598,o),
(163,652,o),
(228,652,cs),
(298,652,o),
(325,589,o),
(325,506,cs),
(325,419,o),
(296,359,o),
(227,359,cs)
);
}
);
width = 477;
},
{
layerId = m008;
shapes = (
{
closed = 1;
nodes = (
(402,290,o),
(525,396,o),
(525,485,cs),
(525,643,o),
(431,724,o),
(288,724,cs),
(150,724,o),
(52,637,o),
(52,510,cs),
(52,379,o),
(132,290,o),
(266,290,cs)
);
},
{
closed = 1;
nodes = (
(580,0,l),
(580,73,l),
(580,171,o),
(533,208,o),
(443,208,cs),
(212,208,l),
(212,262,l),
(56,262,l),
(56,0,l),
(212,0,l),
(212,63,l),
(379,63,ls),
(419,63,o),
(424,48,o),
(424,18,cs),
(424,0,l)
);
},
{
closed = 1;
nodes = (
(386,94,o),
(525,261,o),
(525,485,c),
(364,485,l),
(364,326,o),
(311,208,o),
(210,208,c),
(210,94,l)
);
},
{
closed = 1;
nodes = (
(244,439,o),
(222,465,o),
(222,505,cs),
(222,547,o),
(242,575,o),
(288,575,cs),
(336,575,o),
(355,548,o),
(355,505,cs),
(355,464,o),
(335,439,o),
(290,439,cs)
);
}
);
width = 616;
}
);
note = uni0536;
unicode = 1334;
}
{
glyphname = uni0537;
kernRight = uni0537;
layers = (
{
layerId = m001;
shapes = (
{
closed = 1;
nodes = (
(107,454,l),
(523,454,l),
(523,479,l),
(107,479,l)
);
},
{
closed = 1;
nodes = (
(505,0,o),
(529,-22,o),
(529,-72,cs),
(529,-140,l),
(555,-140,l),
(555,-71,ls),
(555,-6,o),
(522,25,o),
(465,25,cs),
(122,25,l),
(122,714,l),
(96,714,l),
(96,0,l),
(465,0,ls)
);
}
);
width = 619;
},
{
layerId = m002;
shapes = (
{
closed = 1;
nodes = (
(164,416,l),
(550,416,l),
(550,492,l),
(164,492,l)
);
},
{
closed = 1;
nodes = (
(453,0,o),
(475,-23,o),
(475,-72,cs),
(475,-143,l),
(565,-143,l),
(565,-64,ls),
(565,28,o),
(513,76,o),
(419,76,cs),
(186,76,l),
(186,714,l),
(96,714,l),
(96,0,l),
(409,0,ls)
);
}
);
width = 629;
},
{
layerId = m004;
shapes = (
{
closed = 1;
nodes = (
(234,355,l),
(572,355,l),
(572,513,l),
(234,513,l)
);
},
{
closed = 1;
nodes = (
(353,0,o),
(371,-23,o),
(371,-72,cs),
(371,-148,l),
(562,-148,l),
(562,-53,ls),
(562,81,o),
(479,158,o),
(327,158,cs),
(268,158,l),
(268,714,l),
(77,714,l),
(77,0,l),
(301,0,ls)
);
}
);
width = 626;
},
{
layerId = m005;
shapes = (
{
closed = 1;
nodes = (
(95,456,l),
(337,456,l),
(337,481,l),
(95,481,l)
);
},
{
closed = 1;
nodes = (
(307,0,o),
(327,-23,o),
(327,-69,cs),
(327,-143,l),
(353,-143,l),
(353,-69,ls),
(353,-8,o),
(323,25,o),
(263,25,cs),
(104,25,l),
(104,717,l),
(78,717,l),
(78,0,l),
(259,0,ls)
);
}
);
width = 407;
},
{
layerId = m006;
shapes = (
{
closed = 1;
nodes = (
(117,421,l),
(390,421,l),
(390,495,l),
(117,495,l)
);
},
{
closed = 1;
nodes = (
(301,0,o),
(316,-23,o),
(316,-69,cs),
(316,-145,l),
(399,-145,l),
(399,-54,ls),
(399,33,o),
(357,74,o),
(276,74,cs),
(152,74,l),
(152,716,l),
(69,716,l),
(69,0,l),
(247,0,ls)
);
}
);
width = 453;
},
{
layerId = m008;
shapes = (
{
closed = 1;
nodes = (
(152,371,l),
(472,371,l),
(472,516,l),
(152,516,l)
);
},
{
closed = 1;
nodes = (
(292,0,o),
(300,-23,o),
(300,-70,cs),
(300,-148,l),
(470,-148,l),
(470,-31,ls),
(470,96,o),
(410,145,o),
(295,145,cs),
(226,145,l),
(226,714,l),
(56,714,l),
(56,0,l),
(230,0,ls)
);
}
);
width = 520;
}
);
note = uni0537;
unicode = 1335;
}
{
color = 10;
glyphname = uni0539;
kernLeft = uni0538;
kernRight = uni0539;
layers = (
{
layerId = m001;
shapes = (
{
closed = 1;
nodes = (
(116,0,l),
(116,470,ls),
(116,622,o),
(200,699,o),
(342,699,cs),
(491,699,o),
(567,610,o),
(567,450,c),
(593,450,l),
(593,623,o),
(508,724,o),
(343,724,cs),
(188,724,o),
(90,640,o),
(90,462,cs),
(90,0,l)
);
},
{
closed = 1;
nodes = (
(484,468,ls),
(354,468,o),
(285,421,o),
(285,316,cs),
(285,222,o),
(344,175,o),
(429,175,cs),
(545,175,o),
(593,241,o),
(593,443,c),
(696,443,l),
(696,468,l)
);
},
{
closed = 1;
nodes = (
(567,257,o),
(525,200,o),
(432,200,cs),
(364,200,o),
(312,241,o),
(312,316,cs),
(312,407,o),
(371,443,o),
(484,443,cs),
(567,443,l)
);
}
);
width = 693;
},
{
layerId = m002;
shapes = (
{
closed = 1;
nodes = (
(180,0,l),
(180,437,ls),
(180,574,o),
(257,648,o),
(393,648,cs),
(540,648,o),
(607,580,o),
(607,440,c),
(697,440,l),
(697,622,o),
(599,724,o),
(396,724,cs),
(203,724,o),
(90,614,o),
(90,434,cs),
(90,0,l)
);
},
{
closed = 1;
nodes = (
(534,485,ls),
(394,485,o),
(320,428,o),
(320,317,cs),
(320,214,o),
(392,150,o),
(502,150,cs),
(626,150,o),
(697,229,o),
(697,409,c),
(814,409,l),
(814,485,l)
);
},
{
closed = 1;
nodes = (
(607,269,o),
(571,226,o),
(504,226,cs),
(445,226,o),
(413,261,o),
(413,318,cs),
(413,381,o),
(458,409,o),
(535,409,cs),
(607,409,l)
);
}
);
width = 811;
},
{
associatedMasterId = m002;
attr = {
coordinates = (
144,
100
);
};
background = {
shapes = (
{
closed = 1;
nodes = (
(231.24,0,l),
(231.24,405.89,ls),
(231.24,533.13,o),
(301.53,597.98,o),
(431.43,597.98,cs),
(577.21,597.98,o),
(635.06,554.99,o),
(635.06,430.24,c),
(786.67,430.24,l),
(786.67,617.12,o),
(671.59,724,o),
(432.6,724,cs),
(203.61,724,o),
(79.63,595.09,o),
(79.63,406.55,cs),
(79.63,0,l)
);
},
{
closed = 1;
nodes = (
(568.16,495.98,ls),
(412.3,495.98,o),
(330.98,426.17,o),
(330.98,301.75,cs),
(330.98,184.72,o),
(407.25,104.25,o),
(558.12,104.25,cs),
(692.49,104.25,o),
(786.67,198.5,o),
(786.67,369.96,c),
(917.09,369.96,l),
(917.09,495.98,l)
);
},
{
closed = 1;
nodes = (
(635.06,260.46,o),
(602.11,230.27,o),
(555.85,230.27,cs),
(506.61,230.27,o),
(487.42,261.61,o),
(487.42,302.14,cs),
(487.42,349.89,o),
(516.56,369.96,o),
(566.72,369.96,cs),
(635.06,369.96,l)
);
}
);
};
layerId = "d1372d82-00a2-46c8-b514-a1dd5d34fccf";
name = "SemiBold (intermediate)";
shapes = (
{
closed = 1;
nodes = (
(227,0,l),
(227,411,ls),
(227,536,o),
(298,606,o),
(429,606,cs),
(575,606,o),
(635,555,o),
(635,432,c),
(775,432,l),
(775,622,o),
(656,724,o),
(429,724,cs),
(206,724,o),
(86,593,o),
(86,411,cs),
(86,0,l)
);
},
{
closed = 1;
nodes = (
(570,499,ls),
(421,499,o),
(343,433,o),
(343,318,cs),
(343,208,o),
(425,130,o),
(556,130,cs),
(685,130,o),
(775,219,o),
(775,381,c),
(903,381,l),
(903,499,l)
);
},
{
closed = 1;
nodes = (
(635,279,o),
(604,248,o),
(557,248,cs),
(505,248,o),
(489,279,o),
(489,319,cs),
(489,360,o),
(523,381,o),
(571,381,cs),
(635,381,l)
);
}
);
width = 924;
},
{
layerId = m004;
shapes = (
{
closed = 1;
nodes = (
(264,0,l),
(264,386,ls),
(264,507,o),
(330,566,o),
(456,566,cs),
(601,566,o),
(653,539,o),
(653,424,c),
(844,424,l),
(844,614,o),
(718,724,o),
(456,724,cs),
(204,724,o),
(73,583,o),
(73,389,cs),
(73,0,l)
);
},
{
closed = 1;
nodes = (
(590,503,ls),
(424,503,o),
(338,425,o),
(338,292,cs),
(338,166,o),
(417,75,o),
(594,75,cs),
(735,75,o),
(844,179,o),
(844,345,c),
(983,345,l),
(983,503,l)
);
},
{
closed = 1;
nodes = (
(653,255,o),
(622,233,o),
(589,233,cs),
(546,233,o),
(535,262,o),
(535,292,cs),
(535,330,o),
(554,345,o),
(587,345,cs),
(653,345,l)
);
}
);
width = 1021;
},
{
layerId = m005;
shapes = (
{
closed = 1;
nodes = (
(98,0,l),
(98,493,ls),
(98,651,o),
(158,699,o),
(243,699,cs),
(334,699,o),
(388,633,o),
(388,458,c),
(414,458,l),
(414,645,o),
(353,724,o),
(243,724,cs),
(148,724,o),
(72,672,o),
(72,490,cs),
(72,0,l)
);
},
{
closed = 1;
nodes = (
(320,469,ls),
(227,469,o),
(188,424,o),
(188,316,cs),
(188,228,o),
(227,175,o),
(295,175,cs),
(387,175,o),
(414,248,o),
(414,444,c),
(508,444,l),
(508,469,l)
);
},
{
closed = 1;
nodes = (
(388,270,o),
(366,200,o),
(296,200,cs),
(244,200,o),
(215,244,o),
(215,316,cs),
(215,405,o),
(241,444,o),
(320,444,cs),
(388,444,l)
);
}
);
width = 520;
},
{
layerId = m006;
shapes = (
{
closed = 1;
nodes = (
(149,0,l),
(149,483,ls),
(149,600,o),
(199,650,o),
(298,650,cs),
(403,650,o),
(447,590,o),
(447,447,c),
(530,447,l),
(530,635,o),
(460,724,o),
(299,724,cs),
(153,724,o),
(66,648,o),
(66,487,cs),
(66,0,l)
);
},
{
closed = 1;
nodes = (
(382,487,ls),
(281,487,o),
(227,428,o),
(227,317,cs),
(227,215,o),
(285,153,o),
(374,153,cs),
(469,153,o),
(528,224,o),
(530,413,c),
(632,413,l),
(632,487,l)
);
},
{
closed = 1;
nodes = (
(446,281,o),
(426,227,o),
(374,227,cs),
(332,227,o),
(311,259,o),
(311,314,cs),
(311,383,o),
(339,413,o),
(397,413,cs),
(446,413,l)
);
}
);
width = 645;
},
{
layerId = m008;
shapes = (
{
closed = 1;
nodes = (
(226,0,l),
(226,452,ls),
(226,536,o),
(273,579,o),
(381,579,cs),
(507,579,o),
(534,543,o),
(534,430,c),
(704,430,l),
(704,635,o),
(595,724,o),
(383,724,cs),
(171,724,o),
(56,622,o),
(56,457,cs),
(56,0,l)
);
},
{
closed = 1;
nodes = (
(490,502,ls),
(360,502,o),
(280,440,o),
(280,312,cs),
(280,183,o),
(357,106,o),
(494,106,cs),
(616,106,o),
(701,187,o),
(704,357,c),
(819,357,l),
(819,502,l)
);
},
{
closed = 1;
nodes = (
(534,276,o),
(516,251,o),
(492,251,cs),
(460,251,o),
(450,267,o),
(450,303,cs),
(450,334,o),
(466,357,o),
(498,357,cs),
(534,357,l)
);
}
);
width = 834;
}
);
note = uni0539;
unicode = 1337;
}
{
color = 10;
glyphname = uni053A;
kernLeft = uni053A;
kernRight = uni053A;
layers = (
{
layerId = m001;
shapes = (
{
closed = 1;
nodes = (
(542,714,l),
(542,254,ls),
(542,102,o),
(458,15,o),
(316,15,cs),
(167,15,o),
(91,88,o),
(91,235,c),
(65,235,l),
(65,74,o),
(150,-10,o),
(315,-10,cs),
(470,-10,o),
(568,84,o),
(568,262,cs),
(568,714,l)
);
},
{
closed = 1;
nodes = (
(170,480,o),
(65,396,o),
(65,235,c),
(91,235,l),
(91,382,o),
(187,455,o),
(336,455,cs),
(713,455,l),
(713,480,l),
(335,480,ls)
);
}
);
width = 742;
},
{
layerId = m002;
shapes = (
{
closed = 1;
nodes = (
(505,714,l),
(505,278,ls),
(505,139,o),
(444,66,o),
(329,66,cs),
(217,66,o),
(158,125,o),
(158,237,c),
(65,237,l),
(65,81,o),
(161,-10,o),
(329,-10,cs),
(500,-10,o),
(595,84,o),
(595,276,cs),
(595,714,l)
);
},
{
closed = 1;
nodes = (
(167,491,o),
(65,397,o),
(65,237,c),
(158,237,l),
(158,355,o),
(225,415,o),
(346,415,cs),
(736,415,l),
(736,491,l),
(336,491,ls)
);
}
);
width = 765;
},
{
associatedMasterId = m002;
attr = {
coordinates = (
144,
100
);
};
background = {
shapes = (
{
closed = 1;
nodes = (
(458.64,714,l),
(458.64,301.18,ls),
(458.64,174.38,o),
(420.21,116.02,o),
(331.44,116.02,cs),
(254.21,116.02,o),
(211.68,160.38,o),
(211.68,238.83,c),
(54.63,238.83,l),
(54.63,87.71,o),
(161.61,-10,o),
(332.66,-10,cs),
(518.3,-10,o),
(610.25,90.1,o),
(610.25,295.52,cs),
(610.25,714,l)
);
},
{
closed = 1;
nodes = (
(154.19,501.98,o),
(54.63,398.22,o),
(54.63,238.83,c),
(211.68,238.83,l),
(211.68,329.38,o),
(251.84,375.96,o),
(344.78,375.96,cs),
(747.59,375.96,l),
(747.59,501.98,l),
(325.63,501.98,ls)
);
}
);
};
layerId = "c5c8276c-1c44-40cc-afad-551357281f2e";
name = "SemiBold (intermediate)";
shapes = (
{
closed = 1;
nodes = (
(469,714,l),
(469,297,ls),
(469,167,o),
(427,108,o),
(334,108,cs),
(250,108,o),
(205,153,o),
(205,239,c),
(59,239,l),
(59,87,o),
(164,-10,o),
(335,-10,cs),
(517,-10,o),
(610,92,o),
(610,295,cs),
(610,714,l)
);
},
{
closed = 1;
nodes = (
(152,500,o),
(59,368,o),
(59,239,c),
(205,239,l),
(205,334,o),
(250,382,o),
(347,382,cs),
(748,382,l),
(748,500,l),
(330,500,ls)
);
}
);
width = 772;
},
{
layerId = m004;
shapes = (
{
closed = 1;
nodes = (
(429,714,l),
(429,316,ls),
(429,197,o),
(405,148,o),
(333,148,cs),
(278,148,o),
(246,183,o),
(246,240,c),
(48,240,l),
(48,92,o),
(162,-10,o),
(335,-10,cs),
(530,-10,o),
(620,94,o),
(620,308,cs),
(620,714,l)
);
},
{
closed = 1;
nodes = (
(146,509,o),
(48,399,o),
(48,240,c),
(246,240,l),
(246,313,o),
(269,351,o),
(344,351,cs),
(755,351,l),
(755,509,l),
(319,509,ls)
);
}
);
width = 770;
},
{
layerId = m005;
shapes = (
{
closed = 1;
nodes = (
(364,714,l),
(364,221,ls),
(364,63,o),
(304,15,o),
(219,15,cs),
(128,15,o),
(74,71,o),
(74,231,c),
(48,231,l),
(48,59,o),
(109,-10,o),
(219,-10,cs),
(314,-10,o),
(390,42,o),
(390,217,cs),
(390,714,l)
);
},
{
closed = 1;
nodes = (
(117,482,o),
(48,394,o),
(48,231,c),
(74,231,l),
(74,382,o),
(133,457,o),
(246,457,cs),
(492,457,l),
(492,482,l),
(245,482,ls)
);
}
);
width = 504;
},
{
layerId = m006;
shapes = (
{
closed = 1;
nodes = (
(356,714,l),
(356,231,ls),
(356,104,o),
(312,64,o),
(241,64,cs),
(167,64,o),
(127,114,o),
(127,240,c),
(44,240,l),
(44,68,o),
(118,-10,o),
(241,-10,cs),
(360,-10,o),
(439,56,o),
(439,227,cs),
(439,714,l)
);
},
{
closed = 1;
nodes = (
(119,491,o),
(44,401,o),
(44,240,c),
(127,240,l),
(127,356,o),
(174,417,o),
(256,417,cs),
(550,417,l),
(550,491,l),
(247,491,ls)
);
}
);
width = 563;
},
{
layerId = m008;
shapes = (
{
closed = 1;
nodes = (
(344,714,l),
(344,247,ls),
(344,163,o),
(323,135,o),
(275,135,cs),
(227,135,o),
(208,174,o),
(208,254,c),
(38,254,l),
(38,81,o),
(131,-10,o),
(273,-10,cs),
(429,-10,o),
(514,77,o),
(514,242,cs),
(514,714,l)
);
},
{
closed = 1;
nodes = (
(124,505,o),
(38,412,o),
(38,254,c),
(208,254,l),
(208,318,o),
(235,360,o),
(290,360,cs),
(638,360,l),
(638,505,l),
(269,505,ls)
);
}
);
width = 653;
}
);
note = uni053A;
unicode = 1338;
}
{
color = 10;
glyphname = uni053B;
kernLeft = uni053B;
kernRight = uni053B;
layers = (
{
layerId = m001;
shapes = (
{
closed = 1;
nodes = (
(96,0,l),
(122,0,l),
(122,399,l),
(119,399,l),
(121,447,o),
(122,485,o),
(122,528,cs),
(122,714,l),
(96,714,l)
);
},
{
closed = 1;
nodes = (
(122,200,l),
(122,284,ls),
(122,433,o),
(208,513,o),
(350,513,cs),
(493,513,o),
(565,441,o),
(565,294,cs),
(565,274,l),
(591,274,l),
(591,294,ls),
(591,456,o),
(508,538,o),
(351,538,cs),
(196,538,o),
(106,452,o),
(106,296,cs),
(106,200,l)
);
}
);
width = 651;
},
{
layerId = m002;
shapes = (
{
closed = 1;
nodes = (
(96,0,l),
(186,0,l),
(186,397,l),
(181,397,l),
(184,439,o),
(186,475,o),
(186,515,cs),
(186,714,l),
(96,714,l)
);
},
{
closed = 1;
nodes = (
(186,204,l),
(186,255,ls),
(186,383,o),
(265,449,o),
(382,449,cs),
(494,449,o),
(552,389,o),
(552,270,cs),
(552,235,l),
(642,235,l),
(642,276,ls),
(642,432,o),
(554,525,o),
(402,525,cs),
(279,525,o),
(196,474,o),
(175,357,c),
(175,204,l)
);
}
);
width = 702;
},
{
associatedMasterId = m002;
attr = {
coordinates = (
144,
100
);
};
background = {
shapes = (
{
closed = 1;
nodes = (
(84.41,0,l),
(236.02,0,l),
(236.02,415.3,l),
(229.19,415.3,l),
(234.02,451.81,o),
(236.02,486.59,o),
(236.02,523.54,cs),
(236.02,714,l),
(84.41,714,l)
);
},
{
closed = 1;
nodes = (
(236.02,194.85,l),
(236.02,230.6,ls),
(236.02,329.93,o),
(307.7,386.17,o),
(400.91,386.17,cs),
(483.63,386.17,o),
(527.6,338.37,o),
(527.6,247.43,cs),
(527.6,196.57,l),
(679.21,196.57,l),
(679.21,258.92,ls),
(679.21,409.43,o),
(586.33,512.19,o),
(439.21,512.19,cs),
(346.71,512.19,o),
(266.76,473.39,o),
(225.63,392.99,cs),
(225.63,194.85,l)
);
}
);
};
layerId = "46dd4313-dd37-4b48-9892-927550d56ea1";
name = "SemiBold (intermediate)";
shapes = (
{
closed = 1;
nodes = (
(91,0,l),
(232,0,l),
(232,403,l),
(225,403,l),
(230,440,o),
(232,476,o),
(232,513,cs),
(232,714,l),
(91,714,l)
);
},
{
closed = 1;
nodes = (
(232,206,l),
(232,232,ls),
(232,341,o),
(304,396,o),
(402,396,cs),
(490,396,o),
(536,347,o),
(536,252,cs),
(536,203,l),
(677,203,l),
(677,262,ls),
(677,414,o),
(585,514,o),
(437,514,cs),
(339,514,o),
(262,473,o),
(224,387,c),
(224,206,l)
);
}
);
width = 727;
},
{
layerId = m004;
shapes = (
{
closed = 1;
nodes = (
(77,0,l),
(268,0,l),
(268,427,l),
(260,427,l),
(266,460,o),
(268,494,o),
(268,529,cs),
(268,714,l),
(77,714,l)
);
},
{
closed = 1;
nodes = (
(268,189,l),
(268,215,ls),
(268,296,o),
(335,346,o),
(413,346,cs),
(477,346,o),
(512,306,o),
(512,233,cs),
(512,172,l),
(703,172,l),
(703,248,ls),
(703,395,o),
(607,504,o),
(463,504,cs),
(390,504,o),
(312,473,o),
(258,416,c),
(258,189,l)
);
}
);
width = 739;
},
{
layerId = m005;
shapes = (
{
closed = 1;
nodes = (
(78,0,l),
(104,0,l),
(104,447,l),
(99,447,l),
(102,480,o),
(104,512,o),
(104,545,cs),
(104,714,l),
(78,714,l)
);
},
{
closed = 1;
nodes = (
(104,300,l),
(104,373,ls),
(104,440,o),
(156,509,o),
(250,509,cs),
(346,509,o),
(372,464,o),
(372,359,cs),
(372,277,l),
(398,277,l),
(398,371,ls),
(398,476,o),
(360,534,o),
(250,534,cs),
(191,534,o),
(136,511,o),
(95,433,c),
(95,300,l)
);
}
);
width = 440;
},
{
layerId = m006;
shapes = (
{
closed = 1;
nodes = (
(69,0,l),
(152,0,l),
(152,436,l),
(147,436,l),
(150,465,o),
(152,498,o),
(152,535,cs),
(152,714,l),
(69,714,l)
);
},
{
closed = 1;
nodes = (
(153,246,l),
(153,310,ls),
(153,385,o),
(197,444,o),
(271,444,cs),
(350,444,o),
(370,403,o),
(370,316,cs),
(370,236,l),
(454,236,l),
(454,344,ls),
(454,461,o),
(404,518,o),
(296,518,cs),
(237,518,o),
(183,494,o),
(142,419,c),
(142,246,l)
);
}
);
width = 495;
},
{
layerId = m008;
shapes = (
{
closed = 1;
nodes = (
(56,0,l),
(226,0,l),
(226,419,l),
(221,419,l),
(224,442,o),
(226,477,o),
(226,521,cs),
(226,714,l),
(56,714,l)
);
},
{
closed = 1;
nodes = (
(226,164,l),
(226,215,ls),
(226,302,o),
(257,347,o),
(302,347,cs),
(355,347,o),
(367,312,o),
(367,251,cs),
(367,175,l),
(537,175,l),
(537,304,ls),
(537,438,o),
(470,494,o),
(365,494,cs),
(306,494,o),
(253,468,o),
(212,398,c),
(212,164,l)
);
}
);
width = 577;
}
);
note = uni053B;
unicode = 1339;
}
{
glyphname = uni053C;
kernRight = uni0533;
layers = (
{
layerId = m001;
shapes = (
{
closed = 1;
nodes = (
(341,0,l),
(341,25,l),
(122,25,l),
(122,714,l),
(96,714,l),
(96,0,l)
);
}
);
width = 364;
},
{
layerId = m002;
shapes = (
{
closed = 1;
nodes = (
(389,0,l),
(389,76,l),
(186,76,l),
(186,714,l),
(96,714,l),
(96,0,l)
);
}
);
width = 412;
},
{
layerId = m004;
shapes = (
{
closed = 1;
nodes = (
(445,0,l),
(445,158,l),
(268,158,l),
(268,714,l),
(77,714,l),
(77,0,l)
);
}
);
width = 468;
},
{
layerId = m005;
shapes = (
{
closed = 1;
nodes = (
(232,0,l),
(232,25,l),
(104,25,l),
(104,714,l),
(78,714,l),
(78,0,l)
);
}
);
width = 244;
},
{
layerId = m006;
shapes = (
{
closed = 1;
nodes = (
(288,0,l),
(288,74,l),
(152,74,l),
(152,714,l),
(69,714,l),
(69,0,l)
);
}
);
width = 302;
},
{
layerId = m008;
shapes = (
{
closed = 1;
nodes = (
(374,0,l),
(374,145,l),
(226,145,l),
(226,714,l),
(56,714,l),
(56,0,l)
);
}
);
width = 389;
}
);
note = uni053C;
unicode = 1340;
}
{
color = 10;
glyphname = uni053D;
kernLeft = uni053B;
kernRight = uni053D;
layers = (
{
layerId = m001;
shapes = (
{
closed = 1;
nodes = (
(122,0,l),
(122,714,l),
(96,714,l),
(96,0,l)
);
},
{
closed = 1;
nodes = (
(330,379,ls),
(330,259,o),
(380,197,o),
(492,197,cs),
(593,197,o),
(650,259,o),
(650,379,cs),
(650,482,l),
(624,482,l),
(624,384,ls),
(624,271,o),
(582,222,o),
(492,222,cs),
(398,222,o),
(356,271,o),
(356,384,cs),
(356,482,l),
(330,482,l)
);
},
{
closed = 1;
nodes = (
(109,457,l),
(356,457,l),
(356,482,l),
(109,482,l)
);
}
);
width = 698;
},
{
layerId = m002;
shapes = (
{
closed = 1;
nodes = (
(186,0,l),
(186,714,l),
(96,714,l),
(96,0,l)
);
},
{
closed = 1;
nodes = (
(370,378,ls),
(370,240,o),
(436,169,o),
(572,169,cs),
(701,169,o),
(771,244,o),
(771,384,cs),
(771,526,l),
(681,526,l),
(681,390,ls),
(681,288,o),
(647,245,o),
(572,245,cs),
(495,245,o),
(460,289,o),
(460,390,cs),
(460,526,l),
(370,526,l)
);
},
{
closed = 1;
nodes = (
(135,449,l),
(431,449,l),
(431,526,l),
(135,526,l)
);
}
);
width = 819;
},
{
associatedMasterId = m002;
attr = {
coordinates = (
144,
100
);
};
background = {
shapes = (
{
closed = 1;
nodes = (
(236.02,0,l),
(236.02,714,l),
(84.41,714,l),
(84.41,0,l)
);
},
{
closed = 1;
nodes = (
(395.62,378,ls),
(395.62,221.7,o),
(477.48,141.55,o),
(636.05,141.55,cs),
(792.5,141.55,o),
(875.31,228.75,o),
(875.31,388.27,cs),
(875.31,568.7,l),
(723.7,568.7,l),
(723.7,394.88,ls),
(723.7,303.86,o),
(697.02,267.57,o),
(636.05,267.57,cs),
(575.52,267.57,o),
(547.23,306.08,o),
(547.23,394.88,cs),
(547.23,568.7,l),
(395.62,568.7,l)
);
},
{
closed = 1;
nodes = (
(147.81,442.29,l),
(490.17,442.29,l),
(490.17,568.7,l),
(147.81,568.7,l)
);
}
);
};
layerId = "34470eff-8981-4900-9e51-eb5a7765c602";
name = "SemiBold (intermediate)";
shapes = (
{
closed = 1;
nodes = (
(232,0,l),
(232,714,l),
(91,714,l),
(91,0,l)
);
},
{
closed = 1;
nodes = (
(396,378,ls),
(396,225,o),
(475,146,o),
(630,146,cs),
(781,146,o),
(862,231,o),
(862,387,cs),
(862,561,l),
(721,561,l),
(721,394,ls),
(721,301,o),
(693,264,o),
(630,264,cs),
(566,264,o),
(537,303,o),
(537,394,cs),
(537,561,l),
(396,561,l)
);
},
{
closed = 1;
nodes = (
(150,443,l),
(484,443,l),
(484,561,l),
(150,561,l)
);
}
);
width = 910;
},
{
layerId = m004;
shapes = (
{
closed = 1;
nodes = (
(268,0,l),
(268,714,l),
(77,714,l),
(77,0,l)
);
},
{
closed = 1;
nodes = (
(412,378,ls),
(412,210,o),
(504,124,o),
(677,124,cs),
(851,124,o),
(942,219,o),
(942,391,cs),
(942,596,l),
(751,596,l),
(751,398,ls),
(751,314,o),
(729,282,o),
(677,282,cs),
(627,282,o),
(603,317,o),
(603,398,cs),
(603,596,l),
(412,596,l)
);
},
{
closed = 1;
nodes = (
(156,438,l),
(528,438,l),
(528,596,l),
(156,596,l)
);
}
);
width = 985;
},
{
layerId = m005;
shapes = (
{
closed = 1;
nodes = (
(104,-3,l),
(104,717,l),
(78,717,l),
(78,-3,l)
);
},
{
closed = 1;
nodes = (
(225,339,ls),
(225,237,o),
(261,197,o),
(329,197,cs),
(394,197,o),
(431,240,o),
(431,338,cs),
(431,480,l),
(405,480,l),
(405,343,ls),
(405,250,o),
(376,222,o),
(329,222,cs),
(279,222,o),
(251,250,o),
(251,343,cs),
(251,480,l),
(225,480,l)
);
},
{
closed = 1;
nodes = (
(91,455,l),
(246,455,l),
(246,480,l),
(91,480,l)
);
}
);
width = 473;
},
{
layerId = m006;
shapes = (
{
closed = 1;
nodes = (
(152,-2,l),
(152,716,l),
(69,716,l),
(69,-2,l)
);
},
{
closed = 1;
nodes = (
(269,355,ls),
(269,241,o),
(322,186,o),
(422,186,cs),
(519,186,o),
(573,245,o),
(573,359,cs),
(573,526,l),
(490,526,l),
(490,366,ls),
(490,287,o),
(466,260,o),
(422,260,cs),
(376,260,o),
(352,287,o),
(352,366,cs),
(352,526,l),
(269,526,l)
);
},
{
closed = 1;
nodes = (
(103,452,l),
(324,452,l),
(324,526,l),
(103,526,l)
);
}
);
width = 615;
},
{
layerId = m008;
shapes = (
{
closed = 1;
nodes = (
(226,0,l),
(226,714,l),
(56,714,l),
(56,0,l)
);
},
{
closed = 1;
nodes = (
(336,378,ls),
(336,246,o),
(414,170,o),
(562,170,cs),
(709,170,o),
(788,252,o),
(788,391,c),
(788,596,l),
(618,596,l),
(618,400,ls),
(618,340,o),
(602,315,o),
(562,315,cs),
(524,315,o),
(506,341,o),
(506,400,c),
(506,596,l),
(336,596,l)
);
},
{
closed = 1;
nodes = (
(122,451,l),
(442,451,l),
(442,596,l),
(122,596,l)
);
}
);
width = 828;
}
);
note = uni053D;
unicode = 1341;
}
{
color = 10;
glyphname = uni053E;
kernLeft = uni053E;
kernRight = uni053E;
layers = (
{
layerId = m001;
shapes = (
{
closed = 1;
nodes = (
(61,101,o),
(145,-10,o),
(325,-10,cs),
(501,-10,o),
(591,107,o),
(591,276,cs),
(591,432,o),
(484,557,o),
(248,595,cs),
(136,613,o),
(91,645,o),
(84,714,c),
(60,714,l),
(66,631,o),
(123,592,o),
(229,575,cs),
(459,538,o),
(564,422,o),
(564,276,cs),
(564,124,o),
(487,15,o),
(325,15,cs),
(167,15,o),
(88,116,o),
(88,277,cs),
(88,507,o),
(353,699,o),
(603,699,c),
(603,724,l),
(342,724,o),
(61,518,o),
(61,277,cs)
);
}
);
width = 663;
},
{
layerId = m002;
shapes = (
{
closed = 1;
nodes = (
(68,101,o),
(172,-10,o),
(354,-10,cs),
(533,-10,o),
(645,103,o),
(645,268,cs),
(645,420,o),
(549,536,o),
(309,600,cs),
(179,635,o),
(152,658,o),
(149,714,c),
(60,714,l),
(63,619,o),
(110,580,o),
(274,535,cs),
(480,478,o),
(554,391,o),
(554,268,cs),
(554,146,o),
(483,66,o),
(354,66,cs),
(228,66,o),
(159,145,o),
(159,270,cs),
(159,478,o),
(414,648,o),
(651,648,c),
(651,724,l),
(375,724,o),
(68,515,o),
(68,269,cs)
);
}
);
width = 711;
},
{
associatedMasterId = m002;
attr = {
coordinates = (
144,
100
);
};
background = {
shapes = (
{
closed = 1;
nodes = (
(58.24,96.12,o),
(170.78,-10,o),
(369.25,-10,cs),
(558.01,-10,o),
(680.99,98.12,o),
(680.99,254.58,cs),
(680.99,411.46,o),
(608.78,505.5,o),
(351.7,592.68,cs),
(209.5,641.1,o),
(196.53,658.61,o),
(195.36,714,c),
(43.53,714,l),
(44.7,594.6,o),
(78.28,553.77,o),
(274.61,486.81,cs),
(465.97,423.1,o),
(528.38,361.72,o),
(528.38,260.07,cs),
(528.38,166.13,o),
(463.48,116.02,o),
(369.25,116.02,cs),
(262.16,116.02,o),
(210.85,171.23,o),
(210.85,263.29,cs),
(210.85,457.87,o),
(434.13,601.64,o),
(680.89,596.76,c),
(680.89,722.78,l),
(353.65,722.78,o),
(58.24,507.07,o),
(58.24,261.07,cs)
);
}
);
};
layerId = "c0b71b9b-d895-402c-91b6-ba74ea2bc527";
name = "SemiBold (intermediate)";
shapes = (
{
closed = 1;
nodes = (
(62,101,o),
(182,-10,o),
(365,-10,cs),
(547,-10,o),
(677,100,o),
(677,262,cs),
(677,411,o),
(608,514,o),
(346,604,cs),
(201,654,o),
(189,669,o),
(189,714,c),
(48,714,l),
(48,609,o),
(88,570,o),
(298,498,cs),
(464,441,o),
(535,367,o),
(535,261,cs),
(535,163,o),
(469,108,o),
(365,108,cs),
(265,108,o),
(204,168,o),
(204,264,cs),
(204,460,o),
(449,606,o),
(677,606,c),
(677,724,l),
(389,724,o),
(62,512,o),
(62,262,cs)
);
}
);
width = 736;
},
{
layerId = m004;
shapes = (
{
closed = 1;
nodes = (
(52,93,o),
(170,-10,o),
(379,-10,cs),
(574,-10,o),
(704,95,o),
(704,246,cs),
(704,406,o),
(647,486,o),
(379,588,cs),
(229,645,o),
(225,659,o),
(225,714,c),
(33,714,l),
(33,579,o),
(58,537,o),
(275,456,cs),
(457,388,o),
(512,343,o),
(512,255,cs),
(512,179,o),
(451,148,o),
(379,148,cs),
(284,148,o),
(244,188,o),
(244,259,cs),
(244,445,o),
(447,572,o),
(700,564,c),
(700,722,l),
(340,722,o),
(52,502,o),
(52,256,cs)
);
}
);
width = 751;
},
{
layerId = m005;
shapes = (
{
closed = 1;
nodes = (
(42,89,o),
(98,-10,o),
(214,-10,cs),
(328,-10,o),
(389,80,o),
(389,252,cs),
(389,420,o),
(304,523,o),
(162,567,cs),
(91,589,o),
(80,626,o),
(76,714,c),
(51,714,l),
(54,612,o),
(78,566,o),
(151,544,cs),
(286,504,o),
(362,408,o),
(362,252,cs),
(362,98,o),
(317,15,o),
(214,15,cs),
(116,15,o),
(69,98,o),
(69,249,cs),
(69,497,o),
(236,699,o),
(385,699,c),
(385,724,l),
(221,724,o),
(42,510,o),
(42,254,cs)
);
}
);
width = 433;
},
{
layerId = m006;
shapes = (
{
closed = 1;
nodes = (
(40,94,o),
(116,-10,o),
(253,-10,cs),
(385,-10,o),
(464,89,o),
(464,254,cs),
(464,411,o),
(387,512,o),
(229,577,cs),
(142,613,o),
(128,633,o),
(128,714,c),
(48,714,l),
(48,603,o),
(74,562,o),
(177,520,cs),
(319,462,o),
(380,387,o),
(380,253,cs),
(380,129,o),
(341,64,o),
(251,64,cs),
(167,64,o),
(124,132,o),
(124,253,cs),
(124,468,o),
(287,650,o),
(461,650,c),
(461,724,l),
(250,724,o),
(40,502,o),
(40,255,cs)
);
}
);
width = 507;
},
{
layerId = m008;
shapes = (
{
closed = 1;
nodes = (
(36,95,o),
(139,-10,o),
(311,-10,cs),
(470,-10,o),
(577,93,o),
(577,256,cs),
(577,397,o),
(511,496,o),
(328,582,cs),
(216,635,o),
(213,658,o),
(213,714,c),
(43,714,l),
(43,590,o),
(66,545,o),
(215,473,cs),
(369,399,o),
(407,341,o),
(407,255,cs),
(407,175,o),
(376,135,o),
(306,135,cs),
(244,135,o),
(206,182,o),
(206,259,cs),
(206,424,o),
(366,579,o),
(575,579,c),
(575,724,l),
(293,724,o),
(36,490,o),
(36,256,cs)
);
}
);
width = 619;
}
);
note = uni053E;
unicode = 1342;
}
{
glyphname = uni053F;
kernLeft = uni053F;
kernRight = uni0535;
layers = (
{
layerId = m001;
shapes = (
{
closed = 1;
nodes = (
(564,524,l),
(538,524,l),
(538,366,l),
(541,366,l),
(539,318,o),
(538,279,o),
(538,236,cs),
(538,0,l),
(564,0,l)
);
},
{
closed = 1;
nodes = (
(538,514,l),
(538,480,ls),
(538,328,o),
(452,251,o),
(310,251,cs),
(161,251,o),
(105,330,o),
(105,490,cs),
(105,714,l),
(79,714,l),
(79,490,ls),
(79,317,o),
(144,226,o),
(309,226,cs),
(464,226,o),
(554,312,o),
(554,468,cs),
(554,514,l)
);
}
);
width = 657;
},
{
layerId = m002;
shapes = (
{
closed = 1;
nodes = (
(616,576,l),
(526,576,l),
(526,329,l),
(531,329,l),
(528,287,o),
(526,242,o),
(526,210,cs),
(526,0,l),
(616,0,l)
);
},
{
closed = 1;
nodes = (
(526,561,l),
(526,514,ls),
(526,369,o),
(465,289,o),
(334,289,cs),
(217,289,o),
(169,354,o),
(169,482,cs),
(169,714,l),
(79,714,l),
(79,463,ls),
(79,294,o),
(159,213,o),
(309,213,cs),
(462,213,o),
(559,307,o),
(559,459,cs),
(559,561,l)
);
}
);
width = 709;
},
{
layerId = m004;
shapes = (
{
closed = 1;
nodes = (
(684,625,l),
(493,625,l),
(493,277,l),
(501,277,l),
(495,245,o),
(493,190,o),
(493,175,cs),
(493,0,l),
(684,0,l)
);
},
{
closed = 1;
nodes = (
(493,605,l),
(493,568,ls),
(493,434,o),
(472,350,o),
(358,350,cs),
(292,350,o),
(257,391,o),
(257,470,cs),
(257,714,l),
(66,714,l),
(66,421,ls),
(66,259,o),
(169,192,o),
(296,192,cs),
(447,192,o),
(554,299,o),
(554,444,cs),
(554,605,l)
);
}
);
width = 756;
},
{
layerId = m005;
shapes = (
{
closed = 1;
nodes = (
(372,524,l),
(346,524,l),
(346,319,l),
(351,319,l),
(348,286,o),
(346,254,o),
(346,221,cs),
(346,0,l),
(372,0,l)
);
},
{
closed = 1;
nodes = (
(346,457,l),
(346,389,ls),
(346,322,o),
(294,248,o),
(211,248,cs),
(104,248,o),
(78,293,o),
(78,398,cs),
(78,714,l),
(52,714,l),
(52,386,ls),
(52,281,o),
(90,223,o),
(210,223,cs),
(264,223,o),
(355,261,o),
(355,372,cs),
(355,457,l)
);
}
);
width = 450;
},
{
layerId = m006;
shapes = (
{
closed = 1;
nodes = (
(425,564,l),
(342,564,l),
(342,302,l),
(347,302,l),
(344,273,o),
(342,240,o),
(342,203,cs),
(342,0,l),
(425,0,l)
);
},
{
closed = 1;
nodes = (
(342,482,l),
(342,421,ls),
(342,351,o),
(298,284,o),
(230,284,cs),
(145,284,o),
(124,325,o),
(124,412,cs),
(124,714,l),
(41,714,l),
(41,384,ls),
(41,267,o),
(91,210,o),
(205,210,cs),
(261,210,o),
(336,243,o),
(353,338,cs),
(353,482,l)
);
}
);
width = 495;
},
{
layerId = m008;
shapes = (
{
closed = 1;
nodes = (
(521,625,l),
(351,625,l),
(351,265,l),
(356,265,l),
(353,242,o),
(351,207,o),
(351,163,cs),
(351,0,l),
(521,0,l)
);
},
{
closed = 1;
nodes = (
(351,520,l),
(351,469,ls),
(351,382,o),
(320,337,o),
(275,337,cs),
(222,337,o),
(210,372,o),
(210,433,cs),
(210,714,l),
(40,714,l),
(40,380,ls),
(40,246,o),
(107,190,o),
(212,190,cs),
(271,190,o),
(324,216,o),
(365,286,c),
(365,520,l)
);
}
);
width = 577;
}
);
note = uni053F;
unicode = 1343;
}
{
color = 10;
glyphname = uni0540;
kernRight = uni0540;
layers = (
{
layerId = m001;
shapes = (
{
closed = 1;
nodes = (
(453,702,l),
(416,717,o),
(373,724,o),
(325,724,cs),
(193,724,o),
(107,645,o),
(89,484,cs),
(43,62,l),
(69,62,l),
(115,485,ls),
(130,622,o),
(204,699,o),
(324,699,cs),
(369,699,o),
(409,692,o),
(443,679,c)
);
},
{
closed = 1;
nodes = (
(355,30,ls),
(395,26,o),
(419,-4,o),
(419,-54,cs),
(419,-62,l),
(445,-62,l),
(445,-53,ls),
(445,12,o),
(414,49,o),
(357,55,cs),
(71,84,l),
(43,62,l)
);
}
);
width = 489;
},
{
layerId = m002;
shapes = (
{
closed = 1;
nodes = (
(543,675,l),
(495,709,o),
(440,724,o),
(380,724,cs),
(235,724,o),
(154,653,o),
(123,496,cs),
(43,86,l),
(131,73,l),
(211,478,ls),
(235,599,o),
(282,648,o),
(380,648,cs),
(423,648,o),
(462,634,o),
(495,610,c)
);
},
{
closed = 1;
nodes = (
(350,27,ls),
(397,18,o),
(424,-12,o),
(424,-62,cs),
(424,-94,l),
(514,-94,l),
(514,-50,ls),
(514,30,o),
(475,79,o),
(369,100,cs),
(76,159,l),
(43,86,l)
);
}
);
width = 575;
},
{
associatedMasterId = m002;
attr = {
coordinates = (
144,
100
);
};
background = {
shapes = (
{
closed = 1;
nodes = (
(621.08,652.43,l),
(562.1,702.29,o),
(496.12,727.66,o),
(425.14,727.66,cs),
(267.94,727.66,o),
(194.87,655.44,o),
(149.84,502.71,cs),
(34.46,108.57,l),
(180.41,73,l),
(297.62,467.02,ls),
(324.67,563.62,o),
(355.81,600.42,o),
(425.14,600.42,cs),
(466.92,600.42,o),
(504.7,579.71,o),
(535.87,547.17,c)
);
},
{
closed = 1;
nodes = (
(336.58,24.56,ls),
(390.29,9.46,o),
(420.34,-19.32,o),
(420.34,-69.32,cs),
(420.34,-125.11,l),
(571.95,-125.11,l),
(571.95,-47.56,ls),
(571.95,48.3,o),
(523.19,101.57,o),
(371.44,146.36,cs),
(85.15,226.71,l),
(34.46,108.57,l)
);
}
);
};
layerId = "102e711b-2429-4a76-a05a-59a2ed1f0899";
name = "SemiBold (intermediate)";
shapes = (
{
closed = 1;
nodes = (
(609,653,l),
(552,702,o),
(488,724,o),
(418,724,cs),
(263,724,o),
(189,652,o),
(146,498,cs),
(37,104,l),
(172,69,l),
(284,466,ls),
(314,574,o),
(338,606,o),
(418,606,cs),
(461,606,o),
(499,586,o),
(530,555,c)
);
},
{
closed = 1;
nodes = (
(340,25,ls),
(393,11,o),
(422,-18,o),
(422,-68,cs),
(422,-120,l),
(563,-120,l),
(563,-48,ls),
(563,45,o),
(517,102,o),
(372,140,cs),
(73,218,l),
(37,104,l)
);
}
);
width = 633;
},
{
layerId = m004;
shapes = (
{
closed = 1;
nodes = (
(671,638,l),
(605,698,o),
(532,730,o),
(454,730,cs),
(289,730,o),
(221,657,o),
(167,507,cs),
(29,123,l),
(212,73,l),
(353,460,ls),
(382,541,o),
(403,570,o),
(454,570,cs),
(495,570,o),
(532,545,o),
(562,507,c)
);
},
{
closed = 1;
nodes = (
(328,23,ls),
(386,4,o),
(418,-24,o),
(418,-74,cs),
(418,-145,l),
(609,-145,l),
(609,-46,ls),
(609,60,o),
(554,116,o),
(373,176,cs),
(91,270,l),
(29,123,l)
);
}
);
width = 692;
},
{
layerId = m005;
shapes = (
{
closed = 1;
nodes = (
(337,703,l),
(312,717,o),
(283,724,o),
(248,724,cs),
(153,724,o),
(90,672,o),
(76,498,cs),
(42,74,l),
(68,73,l),
(102,492,ls),
(115,649,o),
(163,699,o),
(248,699,cs),
(277,699,o),
(303,693,o),
(324,681,c)
);
},
{
closed = 1;
nodes = (
(220,40,ls),
(273,30,o),
(291,14,o),
(291,-33,cs),
(291,-62,l),
(316,-62,l),
(316,-34,ls),
(316,30,o),
(290,53,o),
(229,64,cs),
(52,97,l),
(42,74,l)
);
}
);
width = 347;
},
{
layerId = m006;
shapes = (
{
closed = 1;
nodes = (
(427,685,l),
(389,713,o),
(348,724,o),
(300,724,cs),
(193,724,o),
(126,671,o),
(99,493,cs),
(35,78,l),
(117,64,l),
(181,474,ls),
(202,611,o),
(240,650,o),
(306,650,cs),
(333,650,o),
(360,641,o),
(383,623,c)
);
},
{
closed = 1;
nodes = (
(248,25,ls),
(294,14,o),
(308,-8,o),
(308,-49,cs),
(308,-95,l),
(391,-95,l),
(391,-43,ls),
(391,33,o),
(365,69,o),
(284,90,cs),
(67,146,l),
(35,78,l)
);
}
);
width = 435;
},
{
layerId = m008;
shapes = (
{
closed = 1;
nodes = (
(562,658,l),
(505,707,o),
(446,724,o),
(379,724,cs),
(254,724,o),
(183,669,o),
(133,486,cs),
(24,85,l),
(190,50,l),
(299,448,ls),
(328,553,o),
(355,575,o),
(393,575,cs),
(418,575,o),
(445,563,o),
(472,536,c)
);
},
{
closed = 1;
nodes = (
(289,2,ls),
(326,-10,o),
(334,-41,o),
(334,-72,cs),
(334,-145,l),
(504,-145,l),
(504,-57,ls),
(504,38,o),
(478,92,o),
(367,128,cs),
(88,219,l),
(24,85,l)
);
}
);
width = 567;
}
);
note = uni0540;
unicode = 1344;
}
{
color = 10;
glyphname = uni0541;
kernLeft = uni0541;
kernRight = uni0541;
layers = (
{
layerId = m001;
shapes = (
{
closed = 1;
nodes = (
(140,724,o),
(50,643,o),
(50,517,cs),
(50,390,o),
(128,305,o),
(265,305,cs),
(346,305,o),
(445,341,o),
(504,377,c),
(504,407,l),
(448,368,o),
(354,330,o),
(265,330,cs),
(145,330,o),
(77,401,o),
(77,517,cs),
(77,631,o),
(155,699,o),
(277,699,cs),
(447,699,o),
(497,560,o),
(497,432,cs),
(497,127,o),
(339,15,o),
(202,15,c),
(202,-10,l),
(353,-10,o),
(524,112,o),
(524,430,cs),
(524,573,o),
(466,724,o),
(277,724,cs)
);
},
{
closed = 1;
nodes = (
(568,30,l),
(452,190,o),
(332,236,o),
(225,236,cs),
(114,236,o),
(55,190,o),
(55,113,cs),
(55,31,o),
(117,-10,o),
(202,-10,c),
(202,15,l),
(134,15,o),
(82,50,o),
(82,113,cs),
(82,176,o),
(134,211,o),
(225,211,cs),
(340,211,o),
(448,157,o),
(568,-10,c)
);
}
);
width = 613;
},
{
layerId = m002;
shapes = (
{
closed = 1;
nodes = (
(149,729,o),
(50,643,o),
(50,513,cs),
(50,384,o),
(144,304,o),
(284,304,cs),
(354,304,o),
(427,323,o),
(484,353,c),
(484,422,l),
(444,393,o),
(359,372,o),
(284,372,cs),
(194,372,o),
(140,424,o),
(140,513,cs),
(140,604,o),
(198,655,o),
(308,655,cs),
(423,655,o),
(472,564,o),
(472,442,cs),
(472,200,o),
(359,58,o),
(219,58,c),
(219,-10,l),
(407,-10,o),
(562,160,o),
(562,440,cs),
(562,609,o),
(474,729,o),
(308,729,cs)
);
},
{
closed = 1;
nodes = (
(604,77,l),
(471,206,o),
(355,250,o),
(231,250,cs),
(117,250,o),
(50,203,o),
(50,119,cs),
(50,34,o),
(107,-10,o),
(219,-10,c),
(219,58,l),
(168,58,o),
(135,79,o),
(135,119,cs),
(135,162,o),
(168,182,o),
(232,182,cs),
(332,182,o),
(470,118,o),
(604,-15,c)
);
}
);
width = 649;
},
{
associatedMasterId = m002;
attr = {
coordinates = (
144,
100
);
};
background = {
shapes = (
{
closed = 1;
nodes = (
(165.02,725.95,o),
(56.73,642.61,o),
(56.73,512.17,cs),
(56.73,386.39,o),
(138.67,310.78,o),
(303.65,310.78,cs),
(361.94,310.78,o),
(415.86,319.51,o),
(471.57,336.9,c),
(471.57,445.9,l),
(434.74,430.34,o),
(370.89,421,o),
(322.41,421,cs),
(243.68,421,o),
(209.27,455.73,o),
(209.27,511.73,cs),
(209.27,567.07,o),
(243.41,602.9,o),
(328.82,602.9,cs),
(415.13,602.9,o),
(455.08,552.42,o),
(455.08,449.56,cs),
(455.08,265.89,o),
(380.02,93.78,o),
(242.75,93.78,c),
(242.75,-10,l),
(466.02,-10,o),
(606.62,206.47,o),
(606.62,431.12,cs),
(606.62,623.15,o),
(504.11,725.95,o),
(322.11,725.95,cs)
);
},
{
closed = 1;
nodes = (
(645.57,116.66,l),
(504.02,223.02,o),
(376.14,275.88,o),
(243.04,275.88,cs),
(126.02,275.88,o),
(51.07,221.44,o),
(51.07,131.05,cs),
(51.07,42.93,o),
(111.14,-10,o),
(242.75,-10,c),
(242.75,93.78,l),
(204.97,93.78,o),
(187.95,111.32,o),
(187.95,132.05,cs),
(187.95,157.44,o),
(205.02,171.71,o),
(252.31,171.71,cs),
(343.31,171.71,o),
(493.4,98.32,o),
(645.57,-22.78,c)
);
}
);
};
layerId = "afd92367-ddf3-4625-82fd-6ecb3408451d";
name = "SemiBold (intermediate)";
shapes = (
{
closed = 1;
nodes = (
(160,724,o),
(53,635,o),
(53,510,cs),
(53,380,o),
(153,304,o),
(285,304,cs),
(363,304,o),
(415,315,o),
(471,335,c),
(471,434,l),
(434,417,o),
(365,406,o),
(314,406,cs),
(235,406,o),
(194,442,o),
(194,510,cs),
(194,575,o),
(235,612,o),
(314,612,cs),
(407,612,o),
(455,551,o),
(455,450,cs),
(455,267,o),
(378,90,o),
(236,90,c),
(236,-10,l),
(453,-10,o),
(596,198,o),
(596,426,cs),
(596,620,o),
(489,724,o),
(311,724,cs)
);
},
{
closed = 1;
nodes = (
(636,111,l),
(489,214,o),
(376,261,o),
(238,261,cs),
(122,261,o),
(49,213,o),
(49,124,cs),
(49,36,o),
(104,-10,o),
(236,-10,c),
(236,90,l),
(200,90,o),
(180,102,o),
(180,124,cs),
(180,150,o),
(199,161,o),
(240,161,cs),
(329,161,o),
(490,86,o),
(636,-19,c)
);
}
);
width = 669;
},
{
layerId = m004;
shapes = (
{
closed = 1;
nodes = (
(155,724,o),
(41,641,o),
(41,526,cs),
(41,411,o),
(114,349,o),
(296,349,cs),
(347,349,o),
(388,352,o),
(444,360,c),
(444,483,l),
(408,477,o),
(357,475,o),
(326,475,cs),
(255,475,o),
(232,496,o),
(232,524,cs),
(232,551,o),
(251,574,o),
(322,574,cs),
(389,574,o),
(423,548,o),
(423,448,cs),
(423,297,o),
(371,116,o),
(238,116,c),
(238,-10,l),
(483,-10,o),
(614,235,o),
(614,425,cs),
(614,630,o),
(503,724,o),
(311,724,cs)
);
},
{
closed = 1;
nodes = (
(652,149,l),
(506,249,o),
(371,312,o),
(231,312,cs),
(112,312,o),
(33,249,o),
(33,149,cs),
(33,52,o),
(94,-10,o),
(238,-10,c),
(238,116,l),
(210,116,o),
(196,133,o),
(196,150,cs),
(196,171,o),
(209,186,o),
(246,186,cs),
(332,186,o),
(488,103,o),
(652,-19,c)
);
}
);
width = 673;
},
{
layerId = m005;
shapes = (
{
closed = 1;
nodes = (
(96,724,o),
(42,642,o),
(42,507,cs),
(42,378,o),
(86,302,o),
(175,302,cs),
(222,302,o),
(270,319,o),
(313,359,c),
(313,387,l),
(280,351,o),
(221,327,o),
(175,327,cs),
(110,327,o),
(68,389,o),
(68,507,cs),
(68,627,o),
(109,699,o),
(189,699,cs),
(268,699,o),
(305,614,o),
(305,439,cs),
(305,153,o),
(224,15,o),
(143,15,c),
(143,-10,l),
(236,-10,o),
(331,122,o),
(331,441,cs),
(331,629,o),
(288,724,o),
(189,724,cs)
);
},
{
closed = 1;
nodes = (
(354,43,l),
(294,180,o),
(229,236,o),
(144,236,cs),
(78,236,o),
(40,188,o),
(40,114,cs),
(40,36,o),
(75,-10,o),
(143,-10,c),
(143,15,l),
(91,15,o),
(66,55,o),
(66,114,cs),
(66,174,o),
(94,211,o),
(144,211,cs),
(223,211,o),
(287,145,o),
(354,-9,c)
);
}
);
width = 385;
},
{
layerId = m006;
shapes = (
{
closed = 1;
nodes = (
(112,724,o),
(40,640,o),
(40,508,cs),
(40,381,o),
(100,310,o),
(205,310,cs),
(248,310,o),
(292,322,o),
(328,348,c),
(328,419,l),
(299,395,o),
(252,380,o),
(215,380,cs),
(157,380,o),
(123,427,o),
(123,510,cs),
(123,599,o),
(156,650,o),
(222,650,cs),
(289,650,o),
(319,589,o),
(319,450,cs),
(319,192,o),
(244,56,o),
(171,56,c),
(171,-10,l),
(297,-10,o),
(403,153,o),
(403,436,cs),
(403,632,o),
(339,724,o),
(222,724,cs)
);
},
{
closed = 1;
nodes = (
(426,81,l),
(328,210,o),
(256,258,o),
(166,258,cs),
(85,258,o),
(36,205,o),
(36,124,cs),
(36,38,o),
(82,-10,o),
(171,-10,c),
(171,56,l),
(133,56,o),
(112,82,o),
(112,124,cs),
(112,166,o),
(132,193,o),
(171,193,cs),
(241,193,o),
(337,117,o),
(426,-18,c)
);
}
);
width = 455;
},
{
associatedMasterId = m006;
attr = {
coordinates = (
144,
70
);
};
background = {
shapes = (
{
closed = 1;
nodes = (
(126.64,724,o),
(38.78,638.17,o),
(38.78,517.76,cs),
(38.78,398.08,o),
(114.03,338.67,o),
(233.67,338.67,cs),
(271.79,338.67,o),
(313.35,345.18,o),
(342.03,358.37,c),
(342.03,462.31,l),
(317.3,449.9,o),
(281.89,442.83,o),
(252.21,442.83,cs),
(201.53,442.83,o),
(174.85,475.19,o),
(174.85,520.98,cs),
(174.85,574.6,o),
(199.92,606.69,o),
(253.72,606.69,cs),
(309.13,606.69,o),
(333.03,565.82,o),
(333.03,456.1,cs),
(333.03,221.28,o),
(262.3,92.6,o),
(197.84,92.6,c),
(197.84,-10,l),
(354.34,-10,o),
(470.1,182.28,o),
(470.1,431.73,cs),
(470.1,635.66,o),
(386.58,724,o),
(253.72,724,cs)
);
},
{
closed = 1;
nodes = (
(493.71,121.26,l),
(360.33,247.21,o),
(281.62,290.94,o),
(187.96,290.94,cs),
(92.93,290.94,o),
(33.56,230.62,o),
(33.56,139.25,cs),
(33.56,41.05,o),
(89.93,-10,o),
(197.84,-10,c),
(197.84,92.6,l),
(172.65,92.6,o),
(152.26,107.62,o),
(152.26,139.86,cs),
(152.26,169.05,o),
(167.99,188.73,o),
(197.23,188.73,cs),
(258.69,188.73,o),
(384.58,100.53,o),
(493.71,-21.66,c)
);
}
);
};
layerId = "380827a8-b832-4fc5-8021-349e51168c92";
name = "Condensed SemiBold (intermediate)";
shapes = (
{
closed = 1;
nodes = (
(139,724,o),
(51,639,o),
(51,509,cs),
(51,384,o),
(127,318,o),
(246,318,cs),
(284,318,o),
(326,324,o),
(354,338,c),
(354,449,l),
(330,436,o),
(295,429,o),
(265,429,cs),
(214,429,o),
(188,463,o),
(188,513,cs),
(188,570,o),
(213,604,o),
(266,604,cs),
(322,604,o),
(346,564,o),
(346,460,cs),
(346,228,o),
(276,93,o),
(210,93,c),
(210,-10,l),
(367,-10,o),
(483,183,o),
(483,432,cs),
(483,637,o),
(399,724,o),
(266,724,cs)
);
},
{
closed = 1;
nodes = (
(506,117,l),
(372,238,o),
(293,279,o),
(200,279,cs),
(105,279,o),
(45,221,o),
(45,133,cs),
(45,39,o),
(102,-10,o),
(210,-10,c),
(210,93,l),
(184,93,o),
(168,107,o),
(168,134,cs),
(168,159,o),
(180,176,o),
(209,176,cs),
(270,176,o),
(397,90,o),
(506,-27,c)
);
}
);
width = 546;
},
{
layerId = m008;
shapes = (
{
closed = 1;
nodes = (
(136,724,o),
(38,637,o),
(38,524,cs),
(38,409,o),
(123,357,o),
(252,357,cs),
(287,357,o),
(327,360,o),
(351,365,c),
(351,490,l),
(329,485,o),
(301,483,o),
(276,483,cs),
(230,483,o),
(208,506,o),
(208,528,cs),
(208,559,o),
(228,579,o),
(274,579,cs),
(322,579,o),
(342,551,o),
(342,460,cs),
(342,240,o),
(274,116,o),
(215,116,c),
(215,-10,l),
(391,-10,o),
(513,201,o),
(513,429,cs),
(513,638,o),
(417,724,o),
(274,724,cs)
);
},
{
closed = 1;
nodes = (
(537,147,l),
(381,271,o),
(298,312,o),
(202,312,cs),
(98,312,o),
(32,247,o),
(32,149,cs),
(32,43,o),
(95,-10,o),
(215,-10,c),
(215,116,l),
(198,116,o),
(178,124,o),
(178,150,cs),
(178,171,o),
(191,186,o),
(214,186,cs),
(270,186,o),
(415,90,o),
(537,-24,c)
);
}
);
width = 561;
}
);
note = uni0541;
unicode = 1345;
}
{
glyphname = uni0542;
kernLeft = uni0534;
kernRight = uni0533;
layers = (
{
layerId = m001;
shapes = (
{
closed = 1;
nodes = (
(522,462,ls),
(522,640,o),
(434,724,o),
(289,724,cs),
(134,724,o),
(59,633,o),
(59,460,c),
(85,460,l),
(85,620,o),
(151,699,o),
(290,699,cs),
(422,699,o),
(496,622,o),
(496,470,cs),
(496,0,l),
(522,0,l)
);
},
{
closed = 1;
nodes = (
(508,0,l),
(694,0,l),
(694,25,l),
(508,25,l)
);
}
);
width = 726;
},
{
layerId = m002;
shapes = (
{
closed = 1;
nodes = (
(564,461,ls),
(564,629,o),
(471,724,o),
(313,724,cs),
(144,724,o),
(59,621,o),
(59,445,c),
(149,445,l),
(149,584,o),
(201,648,o),
(311,648,cs),
(415,648,o),
(474,589,o),
(474,453,cs),
(474,0,l),
(564,0,l)
);
},
{
closed = 1;
nodes = (
(549,0,l),
(732,0,l),
(732,76,l),
(549,76,l)
);
}
);
width = 764;
},
{
layerId = m004;
shapes = (
{
closed = 1;
nodes = (
(610,459,ls),
(610,612,o),
(508,724,o),
(328,724,cs),
(137,724,o),
(37,601,o),
(37,422,c),
(228,422,l),
(228,526,o),
(258,566,o),
(322,566,cs),
(383,566,o),
(419,536,o),
(419,426,cs),
(419,0,l),
(610,0,l)
);
},
{
closed = 1;
nodes = (
(593,0,l),
(771,0,l),
(771,158,l),
(593,158,l)
);
}
);
width = 789;
},
{
layerId = m005;
shapes = (
{
closed = 1;
nodes = (
(384,497,ls),
(384,655,o),
(323,724,o),
(213,724,cs),
(118,724,o),
(42,668,o),
(42,493,c),
(68,493,l),
(68,651,o),
(128,699,o),
(213,699,cs),
(304,699,o),
(358,643,o),
(358,493,cs),
(358,0,l),
(384,0,l)
);
},
{
closed = 1;
nodes = (
(375,0,l),
(512,0,l),
(512,25,l),
(375,25,l)
);
}
);
width = 524;
},
{
layerId = m006;
shapes = (
{
closed = 1;
nodes = (
(437,489,ls),
(437,650,o),
(367,724,o),
(240,724,cs),
(121,724,o),
(41,651,o),
(41,467,c),
(124,467,l),
(124,610,o),
(169,650,o),
(239,650,cs),
(312,650,o),
(353,604,o),
(353,483,cs),
(353,0,l),
(437,0,l)
);
},
{
closed = 1;
nodes = (
(428,0,l),
(568,0,l),
(568,74,l),
(428,74,l)
);
}
);
width = 581;
},
{
layerId = m008;
shapes = (
{
closed = 1;
nodes = (
(517,476,ls),
(517,642,o),
(433,724,o),
(281,724,cs),
(125,724,o),
(40,626,o),
(40,427,c),
(210,427,l),
(210,551,o),
(231,579,o),
(279,579,cs),
(324,579,o),
(347,550,o),
(347,468,cs),
(347,0,l),
(517,0,l)
);
},
{
closed = 1;
nodes = (
(508,0,l),
(652,0,l),
(652,145,l),
(508,145,l)
);
}
);
width = 667;
}
);
note = uni0542;
unicode = 1346;
}
{
color = 10;
glyphname = uni0543;
kernLeft = uni0543;
kernRight = uni0543;
layers = (
{
layerId = m001;
shapes = (
{
closed = 1;
nodes = (
(559,724,l),
(281,646,o),
(61,385,o),
(61,157,cs),
(61,41,o),
(115,0,o),
(225,0,c),
(560,0,l),
(560,256,ls),
(560,422,o),
(484,564,o),
(248,602,cs),
(72,630,l),
(72,605,l),
(246,577,ls),
(466,542,o),
(534,410,o),
(534,256,cs),
(534,25,l),
(225,25,ls),
(132,25,o),
(88,56,o),
(88,157,cs),
(88,374,o),
(294,620,o),
(559,699,c)
);
}
);
width = 626;
},
{
layerId = m002;
shapes = (
{
closed = 1;
nodes = (
(622,724,l),
(289,686,o),
(61,408,o),
(61,167,cs),
(61,65,o),
(108,0,o),
(246,0,cs),
(618,0,l),
(618,179,ls),
(618,420,o),
(550,568,o),
(302,611,cs),
(68,652,l),
(68,575,l),
(274,539,ls),
(467,505,o),
(527,396,o),
(527,209,cs),
(527,76,l),
(261,76,ls),
(185,76,o),
(152,104,o),
(152,182,cs),
(152,383,o),
(347,609,o),
(622,648,c)
);
}
);
width = 688;
},
{
associatedMasterId = m002;
attr = {
coordinates = (
144,
100
);
};
background = {
shapes = (
{
closed = 1;
nodes = (
(667.75,724,l),
(280.46,709.18,o),
(45.14,429.96,o),
(45.14,176.76,cs),
(45.14,87.57,o),
(86.04,0,o),
(250.27,0,c),
(658.26,0,l),
(658.26,167.41,ls),
(658.26,418.17,o),
(584.16,555.19,o),
(338.6,607.95,cs),
(49.09,672.13,l),
(49.09,545.72,l),
(287.42,489.59,ls),
(461.51,450.1,o),
(505.04,373.43,o),
(505.04,190.7,cs),
(505.04,126.02,l),
(281.13,126.02,ls),
(220.38,126.02,o),
(198.36,149.75,o),
(198.36,205.18,cs),
(198.36,396.42,o),
(370.18,582.77,o),
(667.75,597.98,c)
);
}
);
};
layerId = "2bda88e7-29ea-4fbd-923a-2e143039ee9f";
name = "SemiBold (intermediate)";
shapes = (
{
closed = 1;
nodes = (
(662,724,l),
(284,717,o),
(50,426,o),
(50,175,cs),
(50,83,o),
(92,0,o),
(252,0,cs),
(654,0,l),
(654,118,ls),
(654,418,o),
(591,573,o),
(335,619,cs),
(55,669,l),
(55,551,l),
(287,508,ls),
(458,476,o),
(511,384,o),
(511,172,cs),
(511,118,l),
(279,118,ls),
(216,118,o),
(192,142,o),
(192,201,cs),
(192,394,o),
(379,600,o),
(662,606,c)
);
}
);
width = 722;
},
{
layerId = m004;
shapes = (
{
closed = 1;
nodes = (
(697,724,l),
(275,724,o),
(35,444,o),
(35,183,cs),
(35,102,o),
(72,0,o),
(253,0,cs),
(684,0,l),
(684,160,ls),
(684,417,o),
(606,547,o),
(362,606,cs),
(37,685,l),
(37,527,l),
(296,458,ls),
(458,415,o),
(491,359,o),
(491,179,cs),
(491,158,l),
(294,158,ls),
(243,158,o),
(228,179,o),
(228,220,cs),
(228,405,o),
(385,566,o),
(697,566,c)
);
}
);
width = 744;
},
{
layerId = m005;
shapes = (
{
closed = 1;
nodes = (
(391,724,l),
(227,694,o),
(48,500,o),
(48,175,cs),
(48,35,o),
(92,0,o),
(200,0,cs),
(395,0,l),
(395,252,ls),
(395,430,o),
(363,562,o),
(197,598,cs),
(55,629,l),
(55,603,l),
(186,575,ls),
(344,541,o),
(368,417,o),
(368,252,cs),
(368,25,l),
(200,25,ls),
(113,25,o),
(75,55,o),
(75,174,cs),
(75,487,o),
(242,669,o),
(391,699,c)
);
}
);
width = 457;
},
{
layerId = m006;
shapes = (
{
closed = 1;
nodes = (
(467,724,l),
(256,704,o),
(46,492,o),
(46,195,cs),
(46,50,o),
(95,0,o),
(227,0,cs),
(470,0,l),
(470,254,ls),
(470,417,o),
(432,558,o),
(228,608,cs),
(48,652,l),
(48,574,l),
(196,538,ls),
(359,498,o),
(386,387,o),
(386,253,cs),
(386,74,l),
(233,74,ls),
(160,74,o),
(130,97,o),
(130,196,cs),
(130,458,o),
(301,632,o),
(467,650,c)
);
}
);
width = 529;
},
{
layerId = m008;
shapes = (
{
closed = 1;
nodes = (
(581,724,l),
(299,720,o),
(42,480,o),
(42,226,cs),
(42,72,o),
(98,0,o),
(267,0,c),
(583,0,l),
(583,256,ls),
(583,397,o),
(534,552,o),
(275,622,cs),
(36,687,l),
(36,539,l),
(211,492,ls),
(380,447,o),
(413,341,o),
(413,255,cs),
(413,145,l),
(282,145,ls),
(230,145,o),
(212,161,o),
(212,229,cs),
(212,414,o),
(388,579,o),
(581,579,c)
);
}
);
width = 637;
}
);
note = uni0543;
unicode = 1347;
}
{
glyphname = uni0544;
kernLeft = uni0531;
kernRight = uni0544;
layers = (
{
layerId = m001;
shapes = (
{
closed = 1;
nodes = (
(505,-10,o),
(613,74,o),
(613,252,cs),
(613,690,l),
(763,690,l),
(763,714,l),
(587,714,l),
(587,244,ls),
(587,92,o),
(493,15,o),
(351,15,cs),
(202,15,o),
(116,96,o),
(116,256,cs),
(116,714,l),
(90,714,l),
(90,254,ls),
(90,81,o),
(185,-10,o),
(350,-10,cs)
);
}
);
width = 785;
},
{
layerId = m002;
shapes = (
{
closed = 1;
nodes = (
(532,-10,o),
(635,85,o),
(635,253,cs),
(635,638,l),
(782,638,l),
(782,714,l),
(545,714,l),
(545,261,ls),
(545,125,o),
(476,66,o),
(362,66,cs),
(242,66,o),
(180,131,o),
(180,267,cs),
(180,714,l),
(90,714,l),
(90,253,ls),
(90,93,o),
(184,-10,o),
(363,-10,cs)
);
}
);
width = 804;
},
{
layerId = m004;
shapes = (
{
closed = 1;
nodes = (
(558,-10,o),
(653,102,o),
(653,255,cs),
(653,556,l),
(795,556,l),
(795,714,l),
(462,714,l),
(462,286,ls),
(462,178,o),
(432,148,o),
(362,148,cs),
(288,148,o),
(264,188,o),
(264,283,cs),
(264,714,l),
(73,714,l),
(73,251,ls),
(73,111,o),
(167,-10,o),
(367,-10,cs)
);
}
);
width = 811;
},
{
layerId = m005;
shapes = (
{
closed = 1;
nodes = (
(353,-10,o),
(414,59,o),
(414,217,cs),
(414,689,l),
(542,689,l),
(542,714,l),
(388,714,l),
(388,221,ls),
(388,71,o),
(334,15,o),
(243,15,cs),
(158,15,o),
(98,63,o),
(98,221,cs),
(98,714,l),
(72,714,l),
(72,217,ls),
(72,42,o),
(148,-10,o),
(243,-10,cs)
);
}
);
width = 554;
},
{
layerId = m006;
shapes = (
{
closed = 1;
nodes = (
(392,-10,o),
(462,64,o),
(462,225,cs),
(462,640,l),
(593,640,l),
(593,714,l),
(378,714,l),
(378,231,ls),
(378,110,o),
(337,64,o),
(264,64,cs),
(194,64,o),
(149,104,o),
(149,231,cs),
(149,714,l),
(66,714,l),
(66,227,ls),
(66,56,o),
(146,-10,o),
(265,-10,cs)
);
}
);
width = 605;
},
{
layerId = m008;
shapes = (
{
closed = 1;
nodes = (
(449,-10,o),
(533,72,o),
(533,238,cs),
(533,569,l),
(668,569,l),
(668,714,l),
(363,714,l),
(363,242,ls),
(363,164,o),
(340,135,o),
(295,135,cs),
(247,135,o),
(226,163,o),
(226,243,cs),
(226,714,l),
(56,714,l),
(56,242,ls),
(56,77,o),
(141,-10,o),
(297,-10,cs)
);
}
);
width = 683;
}
);
note = uni0544;
unicode = 1348;
}
{
glyphname = uni0545;
kernLeft = uni0545;
kernRight = uni0545;
layers = (
{
layerId = m001;
shapes = (
{
closed = 1;
nodes = (
(528,665,o),
(451,724,o),
(331,724,cs),
(243,724,o),
(172,695,o),
(113,650,c),
(127,629,l),
(192,676,o),
(256,699,o),
(331,699,cs),
(433,699,o),
(501,651,o),
(501,551,cs),
(501,435,o),
(403,384,o),
(297,384,cs),
(44,384,l),
(44,359,l),
(297,359,ls),
(430,359,o),
(523,314,o),
(523,194,cs),
(523,85,o),
(449,15,o),
(305,15,cs),
(231,15,o),
(155,35,o),
(105,60,c),
(105,32,l),
(156,8,o),
(223,-10,o),
(305,-10,cs),
(465,-10,o),
(550,72,o),
(550,194,cs),
(550,300,o),
(487,358,o),
(376,373,c),
(376,375,l),
(463,390,o),
(528,457,o),
(528,551,cs)
);
}
);
width = 607;
},
{
layerId = m002;
shapes = (
{
closed = 1;
nodes = (
(548,657,o),
(468,724,o),
(333,724,cs),
(230,724,o),
(147,694,o),
(86,648,c),
(127,584,l),
(180,626,o),
(243,648,o),
(317,648,cs),
(409,648,o),
(458,608,o),
(458,537,cs),
(458,452,o),
(383,410,o),
(239,410,cs),
(44,410,l),
(44,334,l),
(253,334,ls),
(410,334,o),
(477,296,o),
(477,204,cs),
(477,120,o),
(420,66,o),
(300,66,cs),
(227,66,o),
(138,84,o),
(86,112,c),
(86,30,l),
(139,6,o),
(220,-10,o),
(311,-10,cs),
(480,-10,o),
(570,75,o),
(570,199,cs),
(570,299,o),
(507,359,o),
(387,373,c),
(387,376,l),
(483,391,o),
(548,454,o),
(548,549,cs)
);
}
);
width = 627;
},
{
layerId = m004;
shapes = (
{
closed = 1;
nodes = (
(574,645,o),
(489,724,o),
(329,724,cs),
(203,724,o),
(102,694,o),
(37,645,c),
(120,512,l),
(155,544,o),
(216,566,o),
(287,566,cs),
(365,566,o),
(383,540,o),
(383,514,cs),
(383,480,o),
(345,450,o),
(166,450,cs),
(37,450,l),
(37,292,l),
(176,292,ls),
(372,292,o),
(399,266,o),
(399,220,cs),
(399,176,o),
(368,148,o),
(286,148,cs),
(213,148,o),
(103,164,o),
(48,196,c),
(48,28,l),
(104,3,o),
(209,-10,o),
(313,-10,cs),
(498,-10,o),
(596,80,o),
(596,206,cs),
(596,297,o),
(533,361,o),
(397,373,c),
(397,376,l),
(507,391,o),
(574,449,o),
(574,546,cs)
);
}
);
width = 634;
},
{
layerId = m005;
shapes = (
{
closed = 1;
nodes = (
(317,659,o),
(264,724,o),
(174,724,cs),
(126,724,o),
(88,705,o),
(59,672,c),
(77,655,l),
(100,680,o),
(130,699,o),
(173,699,cs),
(244,699,o),
(290,646,o),
(290,556,cs),
(290,446,o),
(228,381,o),
(139,381,cs),
(36,381,l),
(36,356,l),
(139,356,ls),
(245,356,o),
(302,299,o),
(302,189,cs),
(302,69,o),
(241,15,o),
(158,15,cs),
(122,15,o),
(80,25,o),
(48,45,c),
(48,15,l),
(82,-2,o),
(122,-10,o),
(158,-10,cs),
(264,-10,o),
(329,61,o),
(329,187,cs),
(329,290,o),
(282,357,o),
(197,368,c),
(197,371,l),
(272,391,o),
(317,456,o),
(317,556,cs)
);
}
);
width = 391;
},
{
layerId = m006;
shapes = (
{
closed = 1;
nodes = (
(379,657,o),
(314,724,o),
(210,724,cs),
(142,724,o),
(96,706,o),
(52,665,c),
(87,603,l),
(115,632,o),
(149,650,o),
(194,650,cs),
(257,650,o),
(295,610,o),
(295,540,cs),
(295,451,o),
(247,407,o),
(160,407,cs),
(36,407,l),
(36,333,l),
(163,333,ls),
(259,333,o),
(309,289,o),
(309,201,cs),
(309,105,o),
(260,64,o),
(177,64,cs),
(136,64,o),
(82,77,o),
(46,100,c),
(46,19,l),
(87,0,o),
(136,-10,o),
(188,-10,cs),
(327,-10,o),
(395,71,o),
(395,194,cs),
(395,295,o),
(346,359,o),
(256,370,c),
(256,373,l),
(335,393,o),
(379,455,o),
(379,552,cs)
);
}
);
width = 449;
},
{
layerId = m008;
shapes = (
{
closed = 1;
nodes = (
(473,653,o),
(390,724,o),
(265,724,cs),
(165,724,o),
(108,707,o),
(41,654,c),
(103,528,l),
(137,561,o),
(177,579,o),
(226,579,cs),
(277,579,o),
(302,557,o),
(302,516,cs),
(302,458,o),
(275,444,o),
(191,444,cs),
(36,444,l),
(36,299,l),
(198,299,ls),
(279,299,o),
(320,273,o),
(320,219,cs),
(320,157,o),
(288,135,o),
(206,135,cs),
(156,135,o),
(85,154,o),
(44,182,c),
(44,26,l),
(95,2,o),
(158,-10,o),
(234,-10,cs),
(422,-10,o),
(494,85,o),
(494,204,cs),
(494,302,o),
(442,362,o),
(344,373,c),
(344,377,l),
(430,396,o),
(473,453,o),
(473,547,cs)
);
}
);
width = 536;
}
);
note = uni0545;
unicode = 1349;
}
{
glyphname = uni0546;
kernLeft = uni0546;
kernRight = uni0546;
layers = (
{
layerId = m001;
shapes = (
{
closed = 1;
nodes = (
(434,-10,o),
(502,55,o),
(502,188,cs),
(502,416,l),
(476,416,l),
(476,191,ls),
(476,74,o),
(422,15,o),
(307,15,c),
(179,15,o),
(124,98,o),
(124,216,c),
(97,216,l),
(97,82,o),
(157,-10,o),
(307,-10,c)
);
},
{
closed = 1;
nodes = (
(137,622,ls),
(97,622,o),
(73,644,o),
(73,694,cs),
(73,760,l),
(47,760,l),
(47,693,ls),
(47,628,o),
(80,597,o),
(137,597,cs),
(210,597,l),
(221,607,l),
(212,622,l)
);
},
{
closed = 1;
nodes = (
(124,372,o),
(186,545,o),
(221,607,c),
(196,607,l),
(161,540,o),
(97,391,o),
(97,216,c),
(124,216,l)
);
}
);
width = 572;
},
{
layerId = m002;
shapes = (
{
closed = 1;
nodes = (
(469,-10,o),
(558,72,o),
(558,221,cs),
(558,418,l),
(468,418,l),
(468,227,ls),
(468,122,o),
(422,66,o),
(319,66,cs),
(215,66,o),
(162,135,o),
(162,242,c),
(72,242,l),
(72,88,o),
(158,-10,o),
(319,-10,cs)
);
},
{
closed = 1;
nodes = (
(213,631,ls),
(162,631,o),
(137,650,o),
(137,714,cs),
(137,760,l),
(47,760,l),
(47,714,ls),
(47,617,o),
(92,577,o),
(174,577,cs),
(227,577,l),
(286,617,l),
(277,631,l)
);
},
{
closed = 1;
nodes = (
(162,380,o),
(225,536,o),
(286,617,c),
(200,617,l),
(138,537,o),
(72,398,o),
(72,242,c),
(162,242,l)
);
}
);
width = 628;
},
{
layerId = m004;
shapes = (
{
closed = 1;
nodes = (
(535,-10,o),
(658,99,o),
(658,272,cs),
(658,421,l),
(467,421,l),
(467,285,ls),
(467,197,o),
(434,148,o),
(350,148,cs),
(283,148,o),
(235,193,o),
(235,282,c),
(44,282,l),
(44,97,o),
(171,-10,o),
(350,-10,cs)
);
},
{
closed = 1;
nodes = (
(347,646,ls),
(278,646,o),
(251,660,o),
(251,745,cs),
(251,760,l),
(60,760,l),
(60,747,ls),
(60,600,o),
(123,546,o),
(246,546,cs),
(267,546,l),
(400,632,l),
(393,646,l)
);
},
{
closed = 1;
nodes = (
(235,393,o),
(313,542,o),
(400,632,c),
(218,632,l),
(105,525,o),
(44,408,o),
(44,282,c),
(235,282,l)
);
}
);
width = 705;
},
{
layerId = m005;
shapes = (
{
closed = 1;
nodes = (
(330,-10,o),
(411,42,o),
(411,217,cs),
(411,414,l),
(385,414,l),
(385,221,ls),
(385,63,o),
(320,15,o),
(235,15,cs),
(144,15,o),
(85,71,o),
(85,221,c),
(59,221,l),
(59,59,o),
(125,-10,o),
(235,-10,cs)
);
},
{
closed = 1;
nodes = (
(121,623,ls),
(71,623,o),
(56,632,o),
(56,687,cs),
(56,760,l),
(30,760,l),
(30,686,ls),
(30,615,o),
(54,598,o),
(118,598,cs),
(156,598,l),
(166,615,l),
(162,623,l)
);
},
{
closed = 1;
nodes = (
(85,364,o),
(119,485,o),
(166,615,c),
(139,615,l),
(92,486,o),
(59,362,o),
(59,221,c),
(85,221,l)
);
}
);
width = 459;
},
{
layerId = m006;
shapes = (
{
closed = 1;
nodes = (
(373,-10,o),
(456,56,o),
(456,227,cs),
(456,416,l),
(372,416,l),
(372,231,ls),
(372,104,o),
(325,64,o),
(255,64,cs),
(182,64,o),
(137,110,o),
(137,244,c),
(54,244,l),
(54,64,o),
(127,-10,o),
(254,-10,cs)
);
},
{
closed = 1;
nodes = (
(188,631,ls),
(141,631,o),
(124,646,o),
(124,695,cs),
(124,760,l),
(41,760,l),
(41,692,ls),
(41,599,o),
(75,569,o),
(153,569,cs),
(197,569,l),
(240,623,l),
(234,631,l)
);
},
{
closed = 1;
nodes = (
(137,380,o),
(173,492,o),
(239,623,c),
(160,623,l),
(92,493,o),
(54,380,o),
(54,244,c),
(137,244,l)
);
}
);
width = 502;
},
{
layerId = m008;
shapes = (
{
closed = 1;
nodes = (
(439,-10,o),
(524,77,o),
(524,242,cs),
(524,419,l),
(354,419,l),
(354,243,ls),
(354,163,o),
(333,135,o),
(285,135,cs),
(240,135,o),
(217,164,o),
(217,279,c),
(47,279,l),
(47,72,o),
(131,-10,o),
(283,-10,cs)
);
},
{
closed = 1;
nodes = (
(289,644,ls),
(247,644,o),
(227,668,o),
(227,707,cs),
(227,760,l),
(57,760,l),
(57,686,ls),
(57,576,o),
(96,539,o),
(206,539,cs),
(258,539,l),
(350,634,l),
(343,644,l)
);
},
{
closed = 1;
nodes = (
(217,404,o),
(255,503,o),
(350,634,c),
(192,634,l),
(93,504,o),
(47,406,o),
(47,279,c),
(217,279,l)
);
}
);
width = 568;
}
);
note = uni0546;
unicode = 1350;
}
{
glyphname = uni0547;
kernLeft = uni0547;
kernRight = uni0547;
layers = (
{
layerId = m001;
shapes = (
{
closed = 1;
nodes = (
(328,647,l),
(193,565,o),
(69,406,o),
(69,247,cs),
(69,101,o),
(153,-10,o),
(303,-10,cs),
(464,-10,o),
(531,87,o),
(531,226,cs),
(531,312,l),
(504,312,l),
(504,226,ls),
(504,103,o),
(449,15,o),
(303,15,cs),
(175,15,o),
(96,116,o),
(96,248,cs),
(96,404,o),
(221,555,o),
(355,637,c)
);
},
{
closed = 1;
nodes = (
(76,701,l),
(539,574,l),
(545,599,l),
(82,725,l)
);
}
);
width = 613;
},
{
layerId = m002;
shapes = (
{
closed = 1;
nodes = (
(305,626,l),
(177,551,o),
(69,396,o),
(69,257,cs),
(69,97,o),
(167,-10,o),
(328,-10,cs),
(494,-10,o),
(583,88,o),
(583,239,cs),
(583,296,l),
(492,296,l),
(492,244,ls),
(492,136,o),
(446,66,o),
(328,66,cs),
(224,66,o),
(159,143,o),
(159,257,cs),
(159,389,o),
(263,524,o),
(400,605,c)
);
},
{
closed = 1;
nodes = (
(73,649,l),
(575,552,l),
(586,628,l),
(84,724,l)
);
}
);
width = 654;
},
{
layerId = m004;
shapes = (
{
closed = 1;
nodes = (
(242,593,l),
(124,529,o),
(53,381,o),
(53,272,cs),
(53,90,o),
(173,-10,o),
(352,-10,cs),
(526,-10,o),
(648,88,o),
(648,260,cs),
(648,270,l),
(458,270,l),
(458,265,ls),
(458,187,o),
(425,148,o),
(352,148,cs),
(284,148,o),
(244,186,o),
(244,270,cs),
(244,364,o),
(310,476,o),
(452,555,c)
);
},
{
closed = 1;
nodes = (
(54,566,l),
(617,517,l),
(637,674,l),
(73,724,l)
);
}
);
width = 698;
},
{
layerId = m005;
shapes = (
{
closed = 1;
nodes = (
(239,656,l),
(124,537,o),
(59,383,o),
(59,217,cs),
(59,59,o),
(125,-10,o),
(235,-10,cs),
(330,-10,o),
(411,42,o),
(411,217,cs),
(411,314,l),
(385,314,l),
(385,221,ls),
(385,63,o),
(320,15,o),
(235,15,cs),
(144,15,o),
(85,71,o),
(85,221,cs),
(85,385,o),
(144,520,o),
(258,638,c)
);
},
{
closed = 1;
nodes = (
(56,701,l),
(426,564,l),
(435,587,l),
(64,724,l)
);
}
);
width = 483;
},
{
layerId = m006;
shapes = (
{
closed = 1;
nodes = (
(256,655,l),
(128,535,o),
(54,395,o),
(54,225,cs),
(54,64,o),
(127,-10,o),
(254,-10,cs),
(373,-10,o),
(456,56,o),
(456,227,cs),
(456,298,l),
(372,298,l),
(372,231,ls),
(372,104,o),
(325,64,o),
(255,64,cs),
(182,64,o),
(137,110,o),
(137,221,cs),
(137,373,o),
(201,499,o),
(306,604,c)
);
},
{
closed = 1;
nodes = (
(50,648,l),
(459,539,l),
(475,615,l),
(66,724,l)
);
}
);
width = 520;
},
{
layerId = m008;
shapes = (
{
closed = 1;
nodes = (
(282,654,l),
(135,533,o),
(47,412,o),
(47,238,cs),
(47,72,o),
(131,-10,o),
(283,-10,cs),
(439,-10,o),
(524,77,o),
(524,242,cs),
(524,274,l),
(354,274,l),
(354,247,ls),
(354,163,o),
(333,135,o),
(285,135,cs),
(240,135,o),
(217,164,o),
(217,220,cs),
(217,354,o),
(287,468,o),
(380,552,c)
);
},
{
closed = 1;
nodes = (
(42,568,l),
(509,501,l),
(537,656,l),
(70,724,l)
);
}
);
width = 575;
}
);
note = uni0547;
unicode = 1351;
}
{
color = 10;
glyphname = uni0548;
kernLeft = uni0538;
kernRight = uni0535;
layers = (
{
anchors = (
{
name = top;
pos = (351,714);
}
);
layerId = m001;
shapes = (
{
closed = 1;
nodes = (
(112,0,l),
(112,470,ls),
(112,622,o),
(206,699,o),
(348,699,cs),
(497,699,o),
(583,618,o),
(583,458,cs),
(583,0,l),
(609,0,l),
(609,460,ls),
(609,633,o),
(514,724,o),
(349,724,cs),
(194,724,o),
(86,640,o),
(86,462,cs),
(86,0,l)
);
}
);
width = 703;
},
{
anchors = (
{
name = top;
pos = (362,714);
}
);
layerId = m002;
shapes = (
{
closed = 1;
nodes = (
(180,0,l),
(180,454,ls),
(180,585,o),
(246,648,o),
(362,648,cs),
(480,648,o),
(545,587,o),
(545,448,cs),
(545,0,l),
(635,0,l),
(635,460,ls),
(635,626,o),
(538,724,o),
(365,724,cs),
(191,724,o),
(90,625,o),
(90,462,cs),
(90,0,l)
);
}
);
width = 725;
},
{
anchors = (
{
name = top;
pos = (367,714);
}
);
associatedMasterId = m002;
attr = {
coordinates = (
144,
100
);
};
background = {
shapes = (
{
closed = 1;
nodes = (
(230.63,0,l),
(230.63,437.53,ls),
(230.63,548.4,o),
(269.79,597.98,o),
(361.39,597.98,cs),
(448.89,597.98,o),
(493.76,556.5,o),
(493.76,438.24,cs),
(493.76,0,l),
(645.37,0,l),
(645.37,460,ls),
(645.37,619.29,o),
(547.15,724,o),
(365.61,724,cs),
(173.31,724,o),
(79.02,609.75,o),
(79.02,462,cs),
(79.02,0,l)
);
}
);
};
layerId = "57cc92ee-ff75-42aa-8eeb-8da16608b0bb";
name = "SemiBold (intermediate)";
shapes = (
{
closed = 1;
nodes = (
(226,0,l),
(226,440,ls),
(226,554,o),
(270,606,o),
(366,606,cs),
(459,606,o),
(507,561,o),
(507,440,cs),
(507,0,l),
(648,0,l),
(648,460,ls),
(648,620,o),
(550,724,o),
(370,724,cs),
(181,724,o),
(85,612,o),
(85,462,cs),
(85,0,l)
);
}
);
width = 734;
},
{
anchors = (
{
name = top;
pos = (362,714);
}
);
layerId = m004;
shapes = (
{
closed = 1;
nodes = (
(263,0,l),
(263,427,ls),
(263,525,o),
(285,566,o),
(361,566,cs),
(429,566,o),
(461,537,o),
(461,432,cs),
(461,0,l),
(652,0,l),
(652,460,ls),
(652,615,o),
(553,724,o),
(366,724,cs),
(162,724,o),
(72,600,o),
(72,462,cs),
(72,0,l)
);
}
);
width = 725;
},
{
anchors = (
{
name = top;
pos = (243,714);
}
);
layerId = m005;
shapes = (
{
closed = 1;
nodes = (
(98,0,l),
(98,493,ls),
(98,651,o),
(158,699,o),
(243,699,cs),
(334,699,o),
(388,643,o),
(388,493,cs),
(388,0,l),
(414,0,l),
(414,497,ls),
(414,655,o),
(353,724,o),
(243,724,cs),
(148,724,o),
(72,672,o),
(72,497,cs),
(72,0,l)
);
}
);
width = 486;
},
{
anchors = (
{
name = top;
pos = (263,714);
}
);
layerId = m006;
shapes = (
{
closed = 1;
nodes = (
(149,0,l),
(149,483,ls),
(149,610,o),
(194,650,o),
(264,650,cs),
(337,650,o),
(378,604,o),
(378,483,cs),
(378,0,l),
(462,0,l),
(462,489,ls),
(462,650,o),
(392,724,o),
(265,724,cs),
(146,724,o),
(66,658,o),
(66,487,cs),
(66,0,l)
);
}
);
width = 527;
},
{
anchors = (
{
name = top;
pos = (294,714);
}
);
layerId = m008;
shapes = (
{
closed = 1;
nodes = (
(226,0,l),
(226,471,ls),
(226,551,o),
(247,579,o),
(295,579,cs),
(340,579,o),
(363,550,o),
(363,472,cs),
(363,0,l),
(533,0,l),
(533,476,ls),
(533,642,o),
(449,724,o),
(297,724,cs),
(141,724,o),
(56,637,o),
(56,472,cs),
(56,0,l)
);
}
);
width = 589;
}
);
note = uni0548;
unicode = 1352;
}
{
glyphname = uni0549;
kernLeft = uni0549;
kernRight = uni0549;
layers = (
{
layerId = m001;
shapes = (
{
closed = 1;
nodes = (
(455,201,o),
(549,343,o),
(549,472,cs),
(549,618,o),
(460,724,o),
(310,724,cs),
(149,724,o),
(67,632,o),
(67,493,cs),
(67,477,l),
(94,477,l),
(94,493,ls),
(94,616,o),
(164,699,o),
(310,699,cs),
(438,699,o),
(522,603,o),
(522,471,cs),
(522,350,o),
(427,210,o),
(239,96,c),
(268,87,l)
);
},
{
closed = 1;
nodes = (
(510,26,l),
(318,38,o),
(183,132,o),
(67,253,c),
(50,236,l),
(164,112,o),
(315,11,o),
(510,-1,c)
);
}
);
width = 608;
},
{
layerId = m002;
shapes = (
{
closed = 1;
nodes = (
(474,201,o),
(575,335,o),
(575,468,cs),
(575,622,o),
(482,726,o),
(319,726,cs),
(153,726,o),
(62,631,o),
(62,487,cs),
(62,470,l),
(152,470,l),
(152,482,ls),
(152,581,o),
(201,650,o),
(319,650,cs),
(425,650,o),
(485,573,o),
(485,465,cs),
(485,353,o),
(402,249,o),
(248,138,c),
(315,95,l)
);
},
{
closed = 1;
nodes = (
(536,77,l),
(379,83,o),
(218,178,o),
(102,291,c),
(50,231,l),
(187,100,o),
(357,5,o),
(536,-1,c)
);
}
);
width = 634;
},
{
layerId = m004;
shapes = (
{
closed = 1;
nodes = (
(495,201,o),
(609,322,o),
(609,461,cs),
(609,629,o),
(508,722,o),
(325,722,cs),
(150,722,o),
(46,631,o),
(46,478,cs),
(46,460,l),
(237,460,l),
(237,465,ls),
(237,525,o),
(251,564,o),
(325,564,cs),
(396,564,o),
(418,526,o),
(418,455,cs),
(418,358,o),
(359,309,o),
(255,204,c),
(380,108,l)
);
},
{
closed = 1;
nodes = (
(569,157,l),
(454,157,o),
(265,253,o),
(150,351,c),
(42,223,l),
(214,83,o),
(403,-1,o),
(569,-1,c)
);
}
);
width = 650;
},
{
layerId = m005;
shapes = (
{
closed = 1;
nodes = (
(330,203,o),
(397,367,o),
(397,517,cs),
(397,655,o),
(331,724,o),
(221,724,cs),
(126,724,o),
(45,672,o),
(45,497,cs),
(45,470,l),
(71,470,l),
(71,493,ls),
(71,651,o),
(136,699,o),
(221,699,cs),
(312,699,o),
(371,643,o),
(371,517,cs),
(371,379,o),
(301,209,o),
(191,96,c),
(215,85,l)
);
},
{
closed = 1;
nodes = (
(370,23,l),
(247,69,o),
(140,123,o),
(65,231,c),
(44,217,l),
(120,108,o),
(238,46,o),
(370,0,c)
);
}
);
width = 453;
},
{
layerId = m006;
shapes = (
{
closed = 1;
nodes = (
(383,218,o),
(446,367,o),
(446,511,cs),
(446,650,o),
(373,724,o),
(246,724,cs),
(127,724,o),
(44,658,o),
(44,487,cs),
(44,458,l),
(127,458,l),
(127,483,ls),
(127,610,o),
(175,650,o),
(245,650,cs),
(318,650,o),
(362,604,o),
(362,508,cs),
(362,371,o),
(294,233,o),
(180,122,c),
(258,97,l)
);
},
{
closed = 1;
nodes = (
(425,76,l),
(289,112,o),
(191,166,o),
(96,274,c),
(39,221,l),
(138,94,o),
(284,28,o),
(425,0,c)
);
}
);
width = 496;
},
{
layerId = m008;
shapes = (
{
closed = 1;
nodes = (
(463,240,o),
(519,367,o),
(519,503,cs),
(519,642,o),
(435,724,o),
(283,724,cs),
(127,724,o),
(42,637,o),
(42,472,cs),
(42,440,l),
(212,440,l),
(212,467,ls),
(212,551,o),
(233,579,o),
(281,579,cs),
(326,579,o),
(349,550,o),
(349,494,cs),
(349,360,o),
(284,270,o),
(164,162,c),
(323,116,l)
);
},
{
closed = 1;
nodes = (
(509,156,l),
(353,178,o),
(269,231,o),
(143,338,c),
(32,226,l),
(165,74,o),
(353,0,o),
(509,0,c)
);
}
);
width = 561;
}
);
note = uni0549;
unicode = 1353;
}
{
glyphname = uni054A;
kernLeft = uni0550;
kernRight = uni0535;
layers = (
{
layerId = m001;
shapes = (
{
closed = 1;
nodes = (
(108,330,l),
(108,470,ls),
(108,622,o),
(202,699,o),
(344,699,cs),
(493,699,o),
(579,618,o),
(579,458,cs),
(579,0,l),
(605,0,l),
(605,460,ls),
(605,633,o),
(510,724,o),
(345,724,cs),
(190,724,o),
(82,640,o),
(82,462,cs),
(82,330,l)
);
},
{
closed = 1;
nodes = (
(356,170,l),
(356,714,l),
(330,714,l),
(330,170,l)
);
}
);
width = 695;
},
{
layerId = m002;
shapes = (
{
closed = 1;
nodes = (
(172,330,l),
(172,453,ls),
(172,585,o),
(249,648,o),
(393,648,cs),
(534,648,o),
(613,587,o),
(613,447,cs),
(613,0,l),
(703,0,l),
(703,460,ls),
(703,626,o),
(593,724,o),
(396,724,cs),
(196,724,o),
(82,625,o),
(82,462,cs),
(82,330,l)
);
},
{
closed = 1;
nodes = (
(438,167,l),
(438,677,l),
(347,677,l),
(347,167,l)
);
}
);
width = 793;
},
{
layerId = m004;
shapes = (
{
closed = 1;
nodes = (
(246,330,l),
(246,430,ls),
(246,528,o),
(296,569,o),
(442,569,cs),
(573,569,o),
(639,540,o),
(639,435,cs),
(639,0,l),
(830,0,l),
(830,460,ls),
(830,615,o),
(697,724,o),
(449,724,cs),
(178,724,o),
(55,600,o),
(55,462,cs),
(55,330,l)
);
},
{
closed = 1;
nodes = (
(539,163,l),
(539,619,l),
(347,619,l),
(347,163,l)
);
}
);
width = 903;
},
{
layerId = m005;
shapes = (
{
closed = 1;
nodes = (
(78,330,l),
(78,493,ls),
(78,651,o),
(138,699,o),
(223,699,cs),
(314,699,o),
(368,643,o),
(368,493,cs),
(368,0,l),
(394,0,l),
(394,497,ls),
(394,655,o),
(333,724,o),
(223,724,cs),
(128,724,o),
(52,672,o),
(52,497,cs),
(52,330,l)
);
},
{
closed = 1;
nodes = (
(236,167,l),
(236,711,l),
(210,711,l),
(210,167,l)
);
}
);
width = 466;
},
{
layerId = m006;
shapes = (
{
closed = 1;
nodes = (
(133,330,l),
(133,483,ls),
(133,610,o),
(189,650,o),
(283,650,cs),
(379,650,o),
(433,604,o),
(433,483,cs),
(433,0,l),
(516,0,l),
(516,489,ls),
(516,650,o),
(433,724,o),
(284,724,cs),
(142,724,o),
(50,658,o),
(50,487,cs),
(50,330,l)
);
},
{
closed = 1;
nodes = (
(324,166,l),
(324,674,l),
(241,674,l),
(241,166,l)
);
}
);
width = 582;
},
{
layerId = m008;
shapes = (
{
closed = 1;
nodes = (
(216,330,l),
(216,467,ls),
(216,551,o),
(265,579,o),
(373,579,cs),
(477,579,o),
(530,550,o),
(530,468,cs),
(530,0,l),
(700,0,l),
(700,476,ls),
(700,642,o),
(584,724,o),
(375,724,cs),
(163,724,o),
(46,637,o),
(46,472,cs),
(46,330,l)
);
},
{
closed = 1;
nodes = (
(458,165,l),
(458,619,l),
(288,619,l),
(288,165,l)
);
}
);
width = 756;
}
);
note = uni054A;
unicode = 1354;
}
{
glyphname = uni054B;
kernLeft = uni054B;
kernRight = uni054B;
layers = (
{
layerId = m001;
shapes = (
{
closed = 1;
nodes = (
(538,-1,l),
(538,49,ls),
(538,114,o),
(505,145,o),
(448,145,cs),
(122,145,l),
(122,204,l),
(96,204,l),
(96,0,l),
(122,0,l),
(122,120,l),
(448,120,ls),
(488,120,o),
(512,98,o),
(512,48,cs),
(512,-1,l)
);
},
{
closed = 1;
nodes = (
(280,232,o),
(241,275,o),
(187,321,cs),
(125,373,o),
(91,420,o),
(91,499,cs),
(91,636,o),
(178,700,o),
(306,700,cs),
(447,700,o),
(518,631,o),
(518,489,cs),
(518,355,o),
(434,253,o),
(280,163,c)
);
},
{
closed = 1;
nodes = (
(286,145,l),
(465,240,o),
(545,360,o),
(545,489,cs),
(545,644,o),
(463,725,o),
(306,725,cs),
(158,725,o),
(64,645,o),
(64,499,cs),
(64,422,o),
(93,368,o),
(170,303,cs),
(236,248,o),
(257,211,o),
(257,156,c),
(245,151,o),
(206,145,o),
(198,145,c)
);
}
);
width = 592;
},
{
layerId = m002;
shapes = (
{
closed = 1;
nodes = (
(595,0,l),
(595,58,ls),
(595,139,o),
(555,170,o),
(483,170,cs),
(144,170,l),
(144,221,l),
(67,221,l),
(67,0,l),
(144,0,l),
(144,94,l),
(447,94,ls),
(491,94,o),
(510,80,o),
(510,36,cs),
(510,0,l)
);
},
{
closed = 1;
nodes = (
(312,271,o),
(284,305,o),
(235,345,cs),
(181,389,o),
(155,433,o),
(155,495,cs),
(155,595,o),
(217,650,o),
(323,650,cs),
(428,650,o),
(485,596,o),
(485,484,cs),
(485,375,o),
(422,288,o),
(318,218,c)
);
},
{
closed = 1;
nodes = (
(360,170,l),
(516,273,o),
(575,368,o),
(575,488,cs),
(575,643,o),
(477,724,o),
(323,724,cs),
(165,724,o),
(64,637,o),
(64,497,cs),
(64,414,o),
(93,359,o),
(173,300,cs),
(233,255,o),
(247,222,o),
(249,183,c),
(238,177,o),
(205,170,o),
(196,170,c)
);
}
);
width = 642;
},
{
layerId = m004;
shapes = (
{
closed = 1;
nodes = (
(679,0,l),
(679,71,ls),
(679,175,o),
(631,208,o),
(534,208,cs),
(175,208,l),
(175,249,l),
(17,249,l),
(17,0,l),
(175,0,l),
(175,58,l),
(442,58,ls),
(492,58,o),
(503,48,o),
(503,18,cs),
(503,0,l)
);
},
{
closed = 1;
nodes = (
(362,335,o),
(347,353,o),
(305,382,cs),
(261,413,o),
(251,454,o),
(251,488,cs),
(251,538,o),
(273,575,o),
(339,575,cs),
(393,575,o),
(427,543,o),
(427,476,cs),
(427,408,o),
(410,353,o),
(369,303,c)
);
},
{
closed = 1;
nodes = (
(457,208,l),
(576,302,o),
(618,381,o),
(618,489,cs),
(618,648,o),
(506,725,o),
(338,725,cs),
(172,725,o),
(60,633,o),
(60,495,cs),
(60,402,o),
(91,346,o),
(174,297,cs),
(225,267,o),
(232,249,o),
(232,226,c),
(223,218,o),
(201,210,o),
(190,208,c)
);
}
);
width = 693;
},
{
layerId = m005;
shapes = (
{
closed = 1;
nodes = (
(394,0,l),
(394,48,ls),
(394,112,o),
(368,145,o),
(307,145,cs),
(82,145,l),
(82,205,l),
(56,205,l),
(56,0,l),
(82,0,l),
(82,120,l),
(298,120,ls),
(351,120,o),
(369,96,o),
(369,49,cs),
(369,0,l)
);
},
{
closed = 1;
nodes = (
(178,233,o),
(154,274,o),
(123,320,cs),
(86,374,o),
(68,419,o),
(68,498,cs),
(68,627,o),
(114,699,o),
(208,699,cs),
(298,699,o),
(344,628,o),
(344,489,cs),
(344,371,o),
(300,262,o),
(179,160,c)
);
},
{
closed = 1;
nodes = (
(194,145,l),
(329,254,o),
(370,367,o),
(370,488,cs),
(370,651,o),
(309,724,o),
(208,724,cs),
(102,724,o),
(42,640,o),
(42,498,cs),
(42,421,o),
(60,365,o),
(106,300,cs),
(144,246,o),
(155,214,o),
(156,152,c),
(150,150,o),
(133,146,o),
(121,145,c)
);
}
);
width = 418;
},
{
layerId = m006;
shapes = (
{
closed = 1;
nodes = (
(462,0,l),
(462,58,ls),
(462,136,o),
(428,170,o),
(355,170,cs),
(112,170,l),
(112,220,l),
(38,220,l),
(38,0,l),
(112,0,l),
(112,96,l),
(324,96,ls),
(372,96,o),
(385,75,o),
(385,37,cs),
(385,0,l)
);
},
{
closed = 1;
nodes = (
(225,278,o),
(206,309,o),
(177,345,cs),
(143,387,o),
(127,429,o),
(127,494,cs),
(127,595,o),
(163,651,o),
(237,651,cs),
(311,651,o),
(348,595,o),
(348,484,cs),
(348,391,o),
(316,306,o),
(232,221,c)
);
},
{
closed = 1;
nodes = (
(271,170,l),
(390,277,o),
(430,370,o),
(430,488,cs),
(430,645,o),
(358,724,o),
(237,724,cs),
(117,724,o),
(43,639,o),
(43,497,cs),
(43,406,o),
(64,357,o),
(121,299,cs),
(148,272,o),
(177,235,o),
(177,181,c),
(170,176,o),
(155,172,o),
(143,170,c)
);
}
);
width = 481;
},
{
layerId = m008;
shapes = (
{
closed = 1;
nodes = (
(566,0,l),
(566,73,l),
(566,171,o),
(519,208,o),
(429,208,cs),
(158,208,l),
(158,242,l),
(12,242,l),
(12,0,l),
(158,0,l),
(158,63,l),
(365,63,ls),
(405,63,o),
(410,48,o),
(410,18,cs),
(410,0,l)
);
},
{
closed = 1;
nodes = (
(296,346,o),
(283,362,o),
(258,382,cs),
(229,406,o),
(215,445,o),
(215,488,cs),
(215,547,o),
(236,579,o),
(279,579,cs),
(329,579,o),
(352,545,o),
(352,476,cs),
(352,421,o),
(338,357,o),
(310,313,c)
);
},
{
closed = 1;
nodes = (
(385,208,l),
(481,297,o),
(522,375,o),
(522,488,cs),
(522,639,o),
(432,724,o),
(280,724,cs),
(140,724,o),
(45,637,o),
(45,495,cs),
(45,401,o),
(68,338,o),
(143,297,cs),
(185,274,o),
(209,254,o),
(209,225,c),
(201,216,o),
(188,210,o),
(177,208,c)
);
}
);
width = 576;
}
);
note = uni054B;
unicode = 1355;
}
{
glyphname = uni054C;
kernLeft = uni0538;
kernRight = uni0533;
layers = (
{
layerId = m001;
shapes = (
{
closed = 1;
nodes = (
(116,0,l),
(116,470,ls),
(116,622,o),
(200,699,o),
(342,699,cs),
(491,699,o),
(567,618,o),
(567,458,cs),
(567,0,l),
(593,0,l),
(593,460,ls),
(593,633,o),
(508,724,o),
(343,724,cs),
(188,724,o),
(90,640,o),
(90,462,cs),
(90,0,l)
);
},
{
closed = 1;
nodes = (
(583,304,l),
(753,304,l),
(753,329,l),
(583,329,l)
);
}
);
width = 777;
},
{
layerId = m002;
shapes = (
{
closed = 1;
nodes = (
(180,0,l),
(180,453,ls),
(180,585,o),
(241,648,o),
(357,648,cs),
(475,648,o),
(535,587,o),
(535,447,cs),
(535,0,l),
(625,0,l),
(625,460,ls),
(625,626,o),
(534,724,o),
(360,724,cs),
(186,724,o),
(90,625,o),
(90,462,cs),
(90,0,l)
);
},
{
closed = 1;
nodes = (
(610,265,l),
(773,265,l),
(773,341,l),
(610,341,l)
);
}
);
width = 805;
},
{
layerId = m004;
shapes = (
{
closed = 1;
nodes = (
(264,0,l),
(264,427,ls),
(264,525,o),
(289,566,o),
(365,566,cs),
(433,566,o),
(468,537,o),
(468,432,cs),
(468,0,l),
(659,0,l),
(659,460,ls),
(659,615,o),
(557,724,o),
(370,724,cs),
(166,724,o),
(73,600,o),
(73,462,cs),
(73,0,l)
);
},
{
closed = 1;
nodes = (
(642,203,l),
(800,203,l),
(800,361,l),
(642,361,l)
);
}
);
width = 819;
},
{
layerId = m005;
shapes = (
{
closed = 1;
nodes = (
(98,0,l),
(98,493,ls),
(98,651,o),
(158,699,o),
(243,699,cs),
(334,699,o),
(388,643,o),
(388,493,cs),
(388,0,l),
(414,0,l),
(414,497,ls),
(414,655,o),
(353,724,o),
(243,724,cs),
(148,724,o),
(72,672,o),
(72,497,cs),
(72,0,l)
);
},
{
closed = 1;
nodes = (
(405,303,l),
(542,303,l),
(542,328,l),
(405,328,l)
);
}
);
width = 554;
},
{
layerId = m006;
shapes = (
{
closed = 1;
nodes = (
(149,0,l),
(149,483,ls),
(149,610,o),
(194,650,o),
(264,650,cs),
(337,650,o),
(378,604,o),
(378,483,cs),
(378,0,l),
(462,0,l),
(462,489,ls),
(462,650,o),
(392,724,o),
(265,724,cs),
(146,724,o),
(66,658,o),
(66,487,cs),
(66,0,l)
);
},
{
closed = 1;
nodes = (
(452,269,l),
(592,269,l),
(592,343,l),
(452,343,l)
);
}
);
width = 605;
},
{
layerId = m008;
shapes = (
{
closed = 1;
nodes = (
(226,0,l),
(226,471,ls),
(226,551,o),
(247,579,o),
(295,579,cs),
(340,579,o),
(363,550,o),
(363,472,cs),
(363,0,l),
(533,0,l),
(533,476,ls),
(533,642,o),
(449,724,o),
(297,724,cs),
(141,724,o),
(56,637,o),
(56,472,cs),
(56,0,l)
);
},
{
closed = 1;
nodes = (
(524,219,l),
(668,219,l),
(668,364,l),
(524,364,l)
);
}
);
width = 683;
}
);
note = uni054C;
unicode = 1356;
}
{
color = 10;
glyphname = uni054D;
kernLeft = uni0531;
kernRight = uni0535;
layers = (
{
layerId = m001;
shapes = (
{
closed = 1;
nodes = (
(587,714,l),
(587,244,ls),
(587,92,o),
(493,15,o),
(351,15,cs),
(202,15,o),
(116,96,o),
(116,256,cs),
(116,714,l),
(90,714,l),
(90,254,ls),
(90,81,o),
(185,-10,o),
(350,-10,cs),
(505,-10,o),
(613,74,o),
(613,252,cs),
(613,714,l)
);
}
);
width = 703;
},
{
layerId = m002;
shapes = (
{
closed = 1;
nodes = (
(545,714,l),
(545,260,ls),
(545,129,o),
(479,66,o),
(363,66,cs),
(245,66,o),
(180,127,o),
(180,266,cs),
(180,714,l),
(90,714,l),
(90,254,ls),
(90,88,o),
(187,-10,o),
(360,-10,cs),
(534,-10,o),
(635,89,o),
(635,252,cs),
(635,714,l)
);
}
);
width = 725;
},
{
associatedMasterId = m002;
attr = {
coordinates = (
144,
100
);
};
background = {
shapes = (
{
closed = 1;
nodes = (
(494.37,714,l),
(494.37,276.47,ls),
(494.37,165.6,o),
(455.21,116.02,o),
(363.61,116.02,cs),
(276.11,116.02,o),
(231.24,157.5,o),
(231.24,275.76,cs),
(231.24,714,l),
(79.63,714,l),
(79.63,254,ls),
(79.63,94.71,o),
(177.85,-10,o),
(359.39,-10,cs),
(551.69,-10,o),
(645.98,104.25,o),
(645.98,252,cs),
(645.98,714,l)
);
}
);
};
layerId = "2f462775-b1b5-4d08-a434-52daca0dd13a";
name = "SemiBold (intermediate)";
shapes = (
{
closed = 1;
nodes = (
(508,714,l),
(508,274,ls),
(508,160,o),
(464,108,o),
(368,108,cs),
(275,108,o),
(227,153,o),
(227,274,cs),
(227,714,l),
(86,714,l),
(86,254,ls),
(86,94,o),
(184,-10,o),
(364,-10,cs),
(553,-10,o),
(649,102,o),
(649,252,cs),
(649,714,l)
);
}
);
width = 734;
},
{
layerId = m004;
shapes = (
{
closed = 1;
nodes = (
(462,714,l),
(462,287,ls),
(462,189,o),
(440,148,o),
(364,148,cs),
(296,148,o),
(264,177,o),
(264,282,cs),
(264,714,l),
(73,714,l),
(73,254,ls),
(73,99,o),
(172,-10,o),
(359,-10,cs),
(563,-10,o),
(653,114,o),
(653,252,cs),
(653,714,l)
);
}
);
width = 725;
},
{
layerId = m005;
shapes = (
{
closed = 1;
nodes = (
(388,714,l),
(388,221,ls),
(388,63,o),
(328,15,o),
(243,15,cs),
(152,15,o),
(98,71,o),
(98,221,cs),
(98,714,l),
(72,714,l),
(72,217,ls),
(72,59,o),
(133,-10,o),
(243,-10,cs),
(338,-10,o),
(414,42,o),
(414,217,cs),
(414,714,l)
);
}
);
width = 486;
},
{
layerId = m006;
shapes = (
{
closed = 1;
nodes = (
(378,714,l),
(378,231,ls),
(378,104,o),
(334,64,o),
(264,64,cs),
(191,64,o),
(149,110,o),
(149,231,cs),
(149,714,l),
(66,714,l),
(66,225,ls),
(66,64,o),
(136,-10,o),
(263,-10,cs),
(382,-10,o),
(462,56,o),
(462,227,cs),
(462,714,l)
);
}
);
width = 527;
},
{
layerId = m008;
shapes = (
{
closed = 1;
nodes = (
(363,714,l),
(363,243,ls),
(363,163,o),
(342,135,o),
(294,135,cs),
(249,135,o),
(226,164,o),
(226,242,cs),
(226,714,l),
(56,714,l),
(56,238,ls),
(56,72,o),
(140,-10,o),
(292,-10,cs),
(448,-10,o),
(533,77,o),
(533,242,cs),
(533,714,l)
);
}
);
width = 589;
}
);
note = uni054D;
unicode = 1357;
}
{
glyphname = uni054E;
kernLeft = uni054E;
kernRight = uni0533;
layers = (
{
layerId = m001;
shapes = (
{
closed = 1;
nodes = (
(531,714,l),
(505,714,l),
(505,297,l),
(508,297,l),
(506,249,o),
(505,211,o),
(505,168,cs),
(505,0,l),
(531,0,l)
);
},
{
closed = 1;
nodes = (
(505,499,l),
(505,415,ls),
(505,263,o),
(434,186,o),
(292,186,cs),
(143,186,o),
(91,265,o),
(91,425,c),
(91,495,l),
(65,495,l),
(65,425,l),
(65,252,o),
(126,161,o),
(291,161,cs),
(446,161,o),
(521,247,o),
(521,403,cs),
(521,499,l)
);
},
{
closed = 1;
nodes = (
(517,0,l),
(703,0,l),
(703,25,l),
(517,25,l)
);
}
);
width = 735;
},
{
layerId = m002;
shapes = (
{
closed = 1;
nodes = (
(592,714,l),
(502,714,l),
(502,264,l),
(507,264,l),
(504,222,o),
(502,177,o),
(502,145,cs),
(502,0,l),
(592,0,l)
);
},
{
closed = 1;
nodes = (
(502,528,l),
(502,457,ls),
(502,312,o),
(449,232,o),
(318,232,cs),
(201,232,o),
(155,295,o),
(155,424,cs),
(155,480,l),
(65,480,l),
(65,406,ls),
(65,237,o),
(143,155,o),
(293,155,cs),
(447,155,o),
(536,250,o),
(536,401,cs),
(536,528,l)
);
},
{
closed = 1;
nodes = (
(572,0,l),
(755,0,l),
(755,76,l),
(572,76,l)
);
}
);
width = 787;
},
{
layerId = m004;
shapes = (
{
closed = 1;
nodes = (
(672,715,l),
(481,715,l),
(481,234,l),
(489,234,l),
(483,202,o),
(481,147,o),
(481,131,cs),
(481,0,l),
(672,0,l)
);
},
{
closed = 1;
nodes = (
(481,574,l),
(481,523,ls),
(481,388,o),
(455,304,o),
(341,304,cs),
(275,304,o),
(239,346,o),
(239,425,cs),
(239,455,l),
(48,455,l),
(48,376,ls),
(48,214,o),
(153,146,o),
(279,146,cs),
(430,146,o),
(542,254,o),
(542,399,cs),
(542,574,l)
);
},
{
closed = 1;
nodes = (
(641,0,l),
(819,0,l),
(819,158,l),
(641,158,l)
);
}
);
width = 837;
},
{
layerId = m005;
shapes = (
{
closed = 1;
nodes = (
(372,714,l),
(346,714,l),
(346,259,l),
(351,259,l),
(348,226,o),
(346,194,o),
(346,161,cs),
(346,0,l),
(372,0,l)
);
},
{
closed = 1;
nodes = (
(346,397,l),
(346,329,ls),
(346,262,o),
(294,188,o),
(211,188,cs),
(104,188,o),
(78,233,o),
(78,338,cs),
(78,494,l),
(52,494,l),
(52,326,ls),
(52,221,o),
(90,163,o),
(210,163,cs),
(264,163,o),
(355,201,o),
(355,312,cs),
(355,397,l)
);
},
{
closed = 1;
nodes = (
(363,0,l),
(500,0,l),
(500,25,l),
(363,25,l)
);
}
);
width = 512;
},
{
layerId = m006;
shapes = (
{
closed = 1;
nodes = (
(425,714,l),
(342,714,l),
(342,250,l),
(347,250,l),
(344,221,o),
(342,188,o),
(342,151,cs),
(342,0,l),
(425,0,l)
);
},
{
closed = 1;
nodes = (
(342,430,l),
(342,369,ls),
(342,294,o),
(298,232,o),
(230,232,cs),
(145,232,o),
(124,273,o),
(124,360,cs),
(124,482,l),
(41,482,l),
(41,332,ls),
(41,215,o),
(91,158,o),
(205,158,cs),
(261,158,o),
(336,191,o),
(353,286,cs),
(353,430,l)
);
},
{
closed = 1;
nodes = (
(415,0,l),
(555,0,l),
(555,74,l),
(415,74,l)
);
}
);
width = 568;
},
{
layerId = m008;
shapes = (
{
closed = 1;
nodes = (
(521,714,l),
(351,714,l),
(351,227,l),
(356,227,l),
(353,204,o),
(351,169,o),
(351,125,cs),
(351,0,l),
(521,0,l)
);
},
{
closed = 1;
nodes = (
(351,480,l),
(351,429,ls),
(351,342,o),
(320,297,o),
(275,297,cs),
(222,297,o),
(210,332,o),
(210,393,cs),
(210,464,l),
(40,464,l),
(40,340,ls),
(40,206,o),
(107,150,o),
(212,150,cs),
(271,150,o),
(324,176,o),
(365,246,c),
(365,480,l)
);
},
{
closed = 1;
nodes = (
(508,0,l),
(652,0,l),
(652,145,l),
(508,145,l)
);
}
);
width = 667;
}
);
note = uni054E;
unicode = 1358;
}
{
glyphname = uni054F;
kernLeft = uni054F;
kernRight = uni054F;
layers = (
{
layerId = m001;
shapes = (
{
closed = 1;
nodes = (
(484,298,o),
(399,335,o),
(272,375,cs),
(169,407,o),
(86,437,o),
(86,546,cs),
(86,653,o),
(178,699,o),
(284,699,cs),
(337,699,o),
(393,691,o),
(455,664,c),
(466,687,l),
(407,713,o),
(349,724,o),
(286,724,cs),
(160,724,o),
(59,664,o),
(59,544,cs),
(59,425,o),
(142,389,o),
(258,352,cs),
(381,313,o),
(457,280,o),
(457,181,cs),
(457,65,o),
(360,15,o),
(247,15,cs),
(166,15,o),
(104,29,o),
(51,48,c),
(51,19,l),
(99,5,o),
(153,-10,o),
(245,-10,cs),
(375,-10,o),
(484,51,o),
(484,180,cs)
);
}
);
width = 536;
},
{
layerId = m002;
shapes = (
{
closed = 1;
nodes = (
(519,304,o),
(445,355,o),
(306,400,cs),
(196,436,o),
(148,462,o),
(148,536,cs),
(148,611,o),
(207,648,o),
(299,648,cs),
(352,648,o),
(409,638,o),
(479,607,c),
(503,680,l),
(434,710,o),
(370,724,o),
(303,724,cs),
(159,724,o),
(59,656,o),
(59,532,cs),
(59,408,o),
(128,374,o),
(260,329,cs),
(385,286,o),
(430,257,o),
(430,186,cs),
(430,106,o),
(367,66,o),
(264,66,cs),
(196,66,o),
(124,82,o),
(51,115,c),
(51,31,l),
(109,8,o),
(177,-10,o),
(265,-10,cs),
(416,-10,o),
(519,61,o),
(519,189,cs)
);
}
);
width = 571;
},
{
layerId = m004;
shapes = (
{
closed = 1;
nodes = (
(561,314,o),
(505,386,o),
(347,440,cs),
(240,477,o),
(233,489,o),
(233,520,cs),
(233,546,o),
(247,564,o),
(309,564,cs),
(364,564,o),
(421,552,o),
(504,516,c),
(549,670,l),
(463,706,o),
(390,724,o),
(318,724,cs),
(146,724,o),
(46,644,o),
(46,514,cs),
(46,396,o),
(80,357,o),
(250,294,cs),
(365,251,o),
(374,235,o),
(374,198,cs),
(374,172,o),
(361,150,o),
(278,150,cs),
(214,150,o),
(137,172,o),
(38,222,c),
(38,51,l),
(111,12,o),
(201,-10,o),
(283,-10,cs),
(468,-10,o),
(561,77,o),
(561,204,cs)
);
}
);
width = 604;
},
{
layerId = m005;
shapes = (
{
closed = 1;
nodes = (
(346,264,o),
(311,309,o),
(201,376,cs),
(111,431,o),
(74,467,o),
(74,545,cs),
(74,640,o),
(125,699,o),
(219,699,cs),
(246,699,o),
(287,694,o),
(326,674,c),
(337,696,l),
(310,711,o),
(264,724,o),
(219,724,cs),
(117,724,o),
(47,663,o),
(47,545,cs),
(47,451,o),
(92,413,o),
(189,354,cs),
(296,289,o),
(319,245,o),
(319,185,cs),
(319,82,o),
(272,16,o),
(172,16,cs),
(129,16,o),
(77,28,o),
(42,44,c),
(42,15,l),
(81,-2,o),
(134,-10,o),
(172,-10,cs),
(284,-10,o),
(346,59,o),
(346,185,cs)
);
}
);
width = 389;
},
{
layerId = m006;
shapes = (
{
closed = 1;
nodes = (
(393,283,o),
(352,333,o),
(248,394,cs),
(158,447,o),
(126,475,o),
(126,537,cs),
(126,604,o),
(163,650,o),
(237,650,cs),
(271,650,o),
(316,641,o),
(363,616,c),
(388,687,l),
(345,709,o),
(291,724,o),
(239,724,cs),
(116,724,o),
(41,655,o),
(41,533,cs),
(41,431,o),
(91,388,o),
(189,332,cs),
(290,274,o),
(312,239,o),
(312,191,cs),
(312,117,o),
(275,64,o),
(191,64,cs),
(143,64,o),
(83,80,o),
(36,105,c),
(36,23,l),
(84,-1,o),
(140,-10,o),
(190,-10,cs),
(317,-10,o),
(393,69,o),
(393,198,cs)
);
}
);
width = 429;
},
{
layerId = m008;
shapes = (
{
closed = 1;
nodes = (
(465,312,o),
(414,369,o),
(319,422,cs),
(229,472,o),
(206,486,o),
(206,524,cs),
(206,559,o),
(222,579,o),
(266,579,cs),
(310,579,o),
(360,564,o),
(420,533,c),
(465,673,l),
(398,707,o),
(333,724,o),
(269,724,cs),
(115,724,o),
(32,642,o),
(32,515,cs),
(32,401,o),
(97,358,o),
(191,300,cs),
(271,251,o),
(291,226,o),
(291,195,cs),
(291,157,o),
(269,135,o),
(221,135,cs),
(164,135,o),
(92,157,o),
(28,195,c),
(28,35,l),
(89,1,o),
(149,-10,o),
(217,-10,cs),
(369,-10,o),
(465,84,o),
(465,217,cs)
);
}
);
width = 490;
}
);
note = uni054F;
unicode = 1359;
}
{
glyphname = uni0550;
kernLeft = uni0550;
layers = (
{
layerId = m001;
shapes = (
{
closed = 1;
nodes = (
(116,0,l),
(116,470,ls),
(116,622,o),
(200,699,o),
(342,699,cs),
(491,699,o),
(567,620,o),
(567,460,c),
(593,460,l),
(593,633,o),
(508,724,o),
(343,724,cs),
(188,724,o),
(90,640,o),
(90,462,cs),
(90,0,l)
);
}
);
width = 653;
},
{
layerId = m002;
shapes = (
{
closed = 1;
nodes = (
(180,0,l),
(180,453,ls),
(180,585,o),
(239,648,o),
(351,648,cs),
(468,648,o),
(523,585,o),
(523,445,c),
(613,445,l),
(613,627,o),
(528,724,o),
(354,724,cs),
(184,724,o),
(90,625,o),
(90,462,cs),
(90,0,l)
);
}
);
width = 673;
},
{
layerId = m004;
shapes = (
{
closed = 1;
nodes = (
(264,0,l),
(264,425,ls),
(264,525,o),
(283,566,o),
(349,566,cs),
(415,566,o),
(436,528,o),
(436,420,c),
(627,420,l),
(627,618,o),
(542,724,o),
(354,724,cs),
(160,724,o),
(73,600,o),
(73,462,cs),
(73,0,l)
);
}
);
width = 664;
},
{
layerId = m005;
shapes = (
{
closed = 1;
nodes = (
(98,0,l),
(98,493,ls),
(98,651,o),
(158,699,o),
(243,699,cs),
(334,699,o),
(388,643,o),
(388,493,c),
(414,493,l),
(414,655,o),
(353,724,o),
(243,724,cs),
(148,724,o),
(72,672,o),
(72,497,cs),
(72,0,l)
);
}
);
width = 456;
},
{
layerId = m006;
shapes = (
{
closed = 1;
nodes = (
(149,0,l),
(149,483,ls),
(149,610,o),
(194,650,o),
(264,650,cs),
(341,650,o),
(378,602,o),
(378,468,c),
(462,468,l),
(462,651,o),
(400,724,o),
(265,724,cs),
(146,724,o),
(66,658,o),
(66,487,cs),
(66,0,l)
);
}
);
width = 503;
},
{
layerId = m008;
shapes = (
{
closed = 1;
nodes = (
(226,0,l),
(226,471,ls),
(226,551,o),
(247,579,o),
(295,579,cs),
(351,579,o),
(363,543,o),
(363,430,c),
(533,430,l),
(533,645,o),
(461,724,o),
(297,724,cs),
(141,724,o),
(56,637,o),
(56,472,cs),
(56,0,l)
);
}
);
width = 573;
}
);
note = uni0550;
unicode = 1360;
}
{
color = 10;
glyphname = uni0551;
kernLeft = uni0551;
kernRight = uni0551;
layers = (
{
layerId = m001;
shapes = (
{
closed = 1;
nodes = (
(184,397,o),
(87,444,o),
(87,551,cs),
(87,646,o),
(180,699,o),
(320,699,cs),
(459,699,o),
(552,646,o),
(552,551,cs),
(552,456,o),
(463,403,o),
(349,389,cs),
(76,356,l),
(79,331,l),
(279,359,l),
(431,359,o),
(574,314,o),
(574,194,cs),
(574,85,o),
(488,15,o),
(321,15,cs),
(234,15,o),
(146,35,o),
(88,60,c),
(88,32,l),
(147,8,o),
(224,-10,o),
(319,-10,cs),
(503,-10,o),
(601,72,o),
(601,194,cs),
(601,300,o),
(506,362,o),
(381,372,c),
(381,374,l),
(495,389,o),
(579,457,o),
(579,551,cs),
(579,660,o),
(478,724,o),
(320,724,cs),
(161,724,o),
(60,660,o),
(60,551,cs),
(60,457,o),
(130,377,o),
(321,362,c),
(356,379,l)
);
}
);
width = 663;
},
{
layerId = m002;
shapes = (
{
closed = 1;
nodes = (
(206,438,o),
(150,473,o),
(150,545,cs),
(150,612,o),
(217,650,o),
(316,650,cs),
(416,650,o),
(482,612,o),
(482,545,cs),
(482,481,o),
(426,443,o),
(338,424,cs),
(71,366,l),
(93,296,l),
(298,345,l),
(424,330,o),
(515,290,o),
(515,202,cs),
(515,116,o),
(444,66,o),
(309,66,cs),
(236,66,o),
(155,84,o),
(85,117,c),
(85,36,l),
(142,10,o),
(225,-10,o),
(311,-10,cs),
(497,-10,o),
(606,70,o),
(606,201,cs),
(606,295,o),
(536,365,o),
(421,386,c),
(421,389,l),
(513,416,o),
(572,471,o),
(572,550,cs),
(572,659,o),
(477,724,o),
(316,724,cs),
(165,724,o),
(60,659,o),
(60,550,cs),
(60,454,o),
(125,390,o),
(296,355,c),
(368,405,l)
);
}
);
width = 668;
},
{
associatedMasterId = m002;
attr = {
coordinates = (
144,
100
);
};
background = {
shapes = (
{
closed = 1;
nodes = (
(234.67,459.35,o),
(198.19,486.42,o),
(198.19,539.51,cs),
(198.19,584.55,o),
(238.96,609.74,o),
(302.58,609.74,cs),
(364.15,609.74,o),
(406.97,584.55,o),
(406.97,540.12,cs),
(406.97,499.3,o),
(379.64,472.28,o),
(316.65,453.89,cs),
(55.75,369.66,l),
(96.05,256.35,l),
(306.54,331.58,l),
(407.53,302.55,o),
(447.29,266.82,o),
(447.29,209.93,cs),
(447.29,147.72,o),
(390.93,116.02,o),
(287.65,116.02,cs),
(226.85,116.02,o),
(152.56,132.8,o),
(71.58,173.12,c),
(71.58,39.05,l),
(126.75,11.22,o),
(215.85,-10,o),
(292.7,-10,cs),
(481.14,-10,o),
(599.9,68.78,o),
(599.9,207.71,cs),
(599.9,290.73,o),
(554.3,367.44,o),
(449.06,399.42,c),
(449.06,404.25,l),
(522.76,442.23,o),
(558.58,485.03,o),
(558.58,550,cs),
(558.58,659,o),
(466.63,724,o),
(302.58,724,cs),
(158.9,724,o),
(46.58,655.95,o),
(46.58,550,cs),
(46.58,451.56,o),
(110.36,402.81,o),
(261.23,348.9,c),
(369.83,423.3,l)
);
}
);
};
layerId = "bcc5c089-4908-4244-8d49-7f7ebdd455bf";
name = "SemiBold (intermediate)";
shapes = (
{
closed = 1;
nodes = (
(216,471,o),
(194,496,o),
(194,541,cs),
(194,587,o),
(239,612,o),
(307,612,cs),
(375,612,o),
(419,587,o),
(419,541,cs),
(419,500,o),
(389,473,o),
(323,453,cs),
(60,374,l),
(97,268,l),
(307,334,l),
(412,307,o),
(460,271,o),
(460,209,cs),
(460,143,o),
(402,108,o),
(293,108,cs),
(230,108,o),
(155,125,o),
(75,164,c),
(75,38,l),
(131,11,o),
(219,-10,o),
(297,-10,cs),
(486,-10,o),
(602,69,o),
(602,207,cs),
(602,292,o),
(552,367,o),
(446,397,c),
(446,402,l),
(520,438,o),
(560,483,o),
(560,550,cs),
(560,658,o),
(470,724,o),
(307,724,cs),
(161,724,o),
(53,658,o),
(53,550,cs),
(53,452,o),
(115,401,o),
(269,350,c),
(371,425,l)
);
}
);
width = 653;
},
{
layerId = m004;
shapes = (
{
closed = 1;
nodes = (
(253,473,o),
(229,495,o),
(229,536,cs),
(229,567,o),
(253,584,o),
(294,584,cs),
(331,584,o),
(359,567,o),
(359,537,cs),
(359,511,o),
(350,491,o),
(303,473,cs),
(46,372,l),
(98,231,l),
(312,323,l),
(397,285,o),
(404,252,o),
(404,215,cs),
(404,168,o),
(357,148,o),
(274,148,cs),
(221,148,o),
(151,164,o),
(63,209,c),
(63,41,l),
(117,12,o),
(210,-10,o),
(281,-10,cs),
(471,-10,o),
(596,68,o),
(596,212,cs),
(596,288,o),
(566,369,o),
(467,408,c),
(467,414,l),
(529,459,o),
(550,494,o),
(550,550,cs),
(550,659,o),
(460,724,o),
(294,724,cs),
(155,724,o),
(38,654,o),
(38,550,cs),
(38,450,o),
(101,411,o),
(239,345,c),
(371,435,l)
);
}
);
width = 630;
},
{
layerId = m005;
shapes = (
{
closed = 1;
nodes = (
(93,422,o),
(62,482,o),
(62,566,cs),
(62,646,o),
(110,699,o),
(192,699,cs),
(265,699,o),
(319,648,o),
(319,562,cs),
(319,456,o),
(262,400,o),
(194,386,cs),
(45,355,l),
(49,332,l),
(186,360,l),
(293,325,o),
(333,259,o),
(333,170,cs),
(333,85,o),
(273,15,o),
(180,15,cs),
(120,15,o),
(65,30,o),
(32,58,c),
(32,28,l),
(70,4,o),
(110,-10,o),
(179,-10,cs),
(292,-10,o),
(360,70,o),
(360,172,cs),
(360,272,o),
(311,339,o),
(225,370,c),
(225,372,l),
(287,389,o),
(345,452,o),
(345,562,cs),
(345,662,o),
(285,724,o),
(192,724,cs),
(101,724,o),
(36,660,o),
(36,567,cs),
(36,471,o),
(75,404,o),
(163,372,c),
(197,381,l)
);
}
);
width = 400;
},
{
layerId = m006;
shapes = (
{
closed = 1;
nodes = (
(143,448,o),
(117,493,o),
(117,555,cs),
(117,612,o),
(153,650,o),
(218,650,cs),
(276,650,o),
(315,614,o),
(315,552,cs),
(315,483,o),
(276,444,o),
(223,426,cs),
(42,364,l),
(66,301,l),
(213,347,l),
(300,311,o),
(334,259,o),
(334,190,cs),
(334,118,o),
(284,64,o),
(199,64,cs),
(143,64,o),
(81,82,o),
(41,111,c),
(41,30,l),
(84,6,o),
(130,-10,o),
(203,-10,cs),
(338,-10,o),
(418,71,o),
(418,189,cs),
(418,283,o),
(380,343,o),
(292,386,c),
(292,388,l),
(349,415,o),
(395,469,o),
(395,562,cs),
(395,663,o),
(326,724,o),
(219,724,cs),
(111,724,o),
(37,658,o),
(37,566,cs),
(37,473,o),
(72,410,o),
(177,364,c),
(240,408,l)
);
}
);
width = 455;
},
{
layerId = m008;
shapes = (
{
closed = 1;
nodes = (
(213,479,o),
(194,505,o),
(194,538,cs),
(194,570,o),
(212,592,o),
(256,592,cs),
(296,592,o),
(314,571,o),
(314,538,cs),
(314,508,o),
(297,488,o),
(267,474,cs),
(36,365,l),
(92,243,l),
(252,328,l),
(310,291,o),
(336,260,o),
(336,221,cs),
(336,167,o),
(300,135,o),
(226,135,cs),
(178,135,o),
(105,158,o),
(55,188,c),
(55,33,l),
(105,9,o),
(159,-10,o),
(238,-10,cs),
(406,-10,o),
(506,73,o),
(506,214,cs),
(506,300,o),
(483,350,o),
(392,409,c),
(392,413,l),
(448,455,o),
(470,500,o),
(470,568,cs),
(470,668,o),
(388,724,o),
(260,724,cs),
(126,724,o),
(38,658,o),
(38,569,cs),
(38,481,o),
(67,418,o),
(198,352,c),
(305,444,l)
);
}
);
width = 538;
}
);
note = uni0551;
unicode = 1361;
}
{
glyphname = uni0552;
kernLeft = uni053B;
kernRight = uni0552;
layers = (
{
layerId = m001;
shapes = (
{
closed = 1;
nodes = (
(122,0,l),
(122,488,l),
(162,488,ls),
(246,488,o),
(265,480,o),
(321,360,cs),
(372,251,o),
(395,232,o),
(457,232,cs),
(495,232,l),
(495,257,l),
(460,257,ls),
(411,257,o),
(397,269,o),
(345,372,cs),
(284,493,o),
(267,513,o),
(166,513,cs),
(122,513,l),
(122,714,l),
(96,714,l),
(96,0,l)
);
}
);
width = 540;
},
{
layerId = m002;
shapes = (
{
closed = 1;
nodes = (
(186,0,l),
(186,461,l),
(221,461,ls),
(287,461,o),
(304,446,o),
(360,329,cs),
(405,236,o),
(445,207,o),
(516,207,cs),
(553,207,l),
(553,283,l),
(526,283,ls),
(484,283,o),
(469,294,o),
(418,395,cs),
(358,513,o),
(332,537,o),
(229,537,cs),
(186,537,l),
(186,714,l),
(96,714,l),
(96,0,l)
);
}
);
width = 598;
},
{
layerId = m004;
shapes = (
{
closed = 1;
nodes = (
(268,0,l),
(268,416,l),
(296,416,ls),
(334,416,o),
(346,393,o),
(402,281,cs),
(438,210,o),
(504,167,o),
(590,167,cs),
(625,167,l),
(625,325,l),
(610,325,ls),
(579,325,o),
(564,333,o),
(513,431,cs),
(453,546,o),
(414,574,o),
(309,574,cs),
(268,574,l),
(268,714,l),
(77,714,l),
(77,0,l)
);
}
);
width = 652;
},
{
layerId = m005;
shapes = (
{
closed = 1;
nodes = (
(104,-3,l),
(104,488,l),
(132,488,ls),
(189,488,o),
(202,480,o),
(239,362,cs),
(274,250,o),
(291,232,o),
(337,232,cs),
(367,232,l),
(367,257,l),
(346,257,ls),
(310,257,o),
(296,270,o),
(264,371,cs),
(225,494,o),
(205,513,o),
(136,513,cs),
(104,513,l),
(104,717,l),
(78,717,l),
(78,-3,l)
);
}
);
width = 379;
},
{
layerId = m006;
shapes = (
{
closed = 1;
nodes = (
(153,-2,l),
(153,463,l),
(177,463,ls),
(220,463,o),
(231,456,o),
(268,348,cs),
(310,227,o),
(335,210,o),
(390,210,cs),
(430,210,l),
(430,284,l),
(411,284,ls),
(379,284,o),
(366,295,o),
(331,395,cs),
(287,520,o),
(268,537,o),
(189,537,cs),
(153,537,l),
(153,716,l),
(70,716,l),
(70,-2,l)
);
}
);
width = 444;
},
{
layerId = m008;
shapes = (
{
closed = 1;
nodes = (
(228,0,l),
(228,429,l),
(247,429,ls),
(267,429,o),
(277,423,o),
(313,328,cs),
(363,195,o),
(402,177,o),
(472,177,cs),
(526,177,l),
(526,322,l),
(509,322,ls),
(484,322,o),
(472,330,o),
(433,431,cs),
(383,560,o),
(364,574,o),
(270,574,cs),
(228,574,l),
(228,714,l),
(59,714,l),
(59,0,l)
);
}
);
width = 541;
}
);
note = uni0552;
unicode = 1362;
}
{
glyphname = uni0553;
kernLeft = uni0553;
kernRight = uni0535;
layers = (
{
layerId = m001;
shapes = (
{
closed = 1;
nodes = (
(351,724,l),
(351,637,l),
(161,632,o),
(50,545,o),
(50,372,cs),
(50,183,o),
(176,102,o),
(351,99,c),
(351,-10,l),
(377,-10,l),
(377,99,l),
(552,102,o),
(678,189,o),
(678,378,cs),
(678,564,o),
(555,634,o),
(377,637,c),
(377,724,l)
);
},
{
closed = 1;
nodes = (
(351,124,l),
(182,127,o),
(77,202,o),
(77,372,cs),
(77,535,o),
(180,609,o),
(351,612,c)
);
},
{
closed = 1;
nodes = (
(554,609,o),
(651,543,o),
(651,378,cs),
(651,205,o),
(544,127,o),
(377,124,c),
(377,612,l)
);
}
);
width = 727;
},
{
layerId = m002;
shapes = (
{
closed = 1;
nodes = (
(359,721,l),
(359,636,l),
(147,631,o),
(50,527,o),
(50,371,cs),
(50,218,o),
(148,104,o),
(359,100,c),
(359,-7,l),
(442,-7,l),
(442,100,l),
(651,104,o),
(751,220,o),
(751,374,cs),
(751,536,o),
(648,632,o),
(442,636,c),
(442,721,l)
);
},
{
closed = 1;
nodes = (
(359,172,l),
(214,176,o),
(136,242,o),
(136,371,cs),
(136,493,o),
(209,559,o),
(359,564,c)
);
},
{
closed = 1;
nodes = (
(594,559,o),
(664,497,o),
(664,374,cs),
(664,244,o),
(585,176,o),
(441,172,c),
(441,564,l)
);
}
);
width = 800;
},
{
layerId = m004;
shapes = (
{
closed = 1;
nodes = (
(360,709,l),
(360,636,l),
(113,629,o),
(38,497,o),
(38,369,cs),
(38,273,o),
(91,106,o),
(360,100,c),
(360,5,l),
(531,5,l),
(531,100,l),
(795,106,o),
(853,268,o),
(853,367,cs),
(853,491,o),
(782,629,o),
(531,636,c),
(531,709,l)
);
},
{
closed = 1;
nodes = (
(360,248,l),
(253,253,o),
(217,306,o),
(217,371,cs),
(217,427,o),
(243,481,o),
(360,488,c)
);
},
{
closed = 1;
nodes = (
(646,481,o),
(674,424,o),
(674,369,cs),
(674,305,o),
(639,253,o),
(531,248,c),
(531,488,l)
);
}
);
width = 891;
},
{
layerId = m005;
shapes = (
{
closed = 1;
nodes = (
(243,714,l),
(243,637,l),
(137,634,o),
(46,544,o),
(46,373,cs),
(46,195,o),
(144,99,o),
(243,99,c),
(243,0,l),
(269,0,l),
(269,99,l),
(380,103,o),
(466,194,o),
(466,371,cs),
(466,549,o),
(379,635,o),
(269,637,c),
(269,714,l)
);
},
{
closed = 1;
nodes = (
(243,124,l),
(162,124,o),
(73,209,o),
(73,372,cs),
(73,529,o),
(154,611,o),
(243,613,c)
);
},
{
closed = 1;
nodes = (
(361,611,o),
(439,538,o),
(439,373,cs),
(439,207,o),
(360,128,o),
(269,124,c),
(269,613,l)
);
}
);
width = 512;
},
{
layerId = m006;
shapes = (
{
closed = 1;
nodes = (
(262,714,l),
(262,637,l),
(123,635,o),
(40,532,o),
(40,372,cs),
(40,199,o),
(132,99,o),
(262,99,c),
(262,0,l),
(342,0,l),
(342,99,l),
(476,102,o),
(563,199,o),
(563,370,cs),
(563,538,o),
(475,635,o),
(342,637,c),
(342,714,l)
);
},
{
closed = 1;
nodes = (
(262,173,l),
(189,173,o),
(123,235,o),
(123,372,cs),
(123,500,o),
(183,562,o),
(262,563,c)
);
},
{
closed = 1;
nodes = (
(422,562,o),
(481,503,o),
(481,372,cs),
(481,236,o),
(422,176,o),
(342,173,c),
(342,563,l)
);
}
);
width = 604;
},
{
layerId = m008;
shapes = (
{
closed = 1;
nodes = (
(291,714,l),
(291,636,l),
(102,636,o),
(32,515,o),
(32,370,cs),
(32,204,o),
(116,100,o),
(291,100,c),
(291,0,l),
(452,0,l),
(452,100,l),
(621,100,o),
(711,206,o),
(711,369,cs),
(711,522,o),
(621,636,o),
(452,636,c),
(452,714,l)
);
},
{
closed = 1;
nodes = (
(291,240,l),
(229,240,o),
(199,273,o),
(199,371,cs),
(199,456,o),
(227,496,o),
(291,496,c)
);
},
{
closed = 1;
nodes = (
(513,496,o),
(544,450,o),
(544,371,cs),
(544,280,o),
(516,240,o),
(452,240,c),
(452,496,l)
);
}
);
width = 743;
}
);
note = uni0553;
unicode = 1363;
}
{
glyphname = uni0554;
kernLeft = uni0554;
kernRight = uni0535;
layers = (
{
layerId = m001;
shapes = (
{
closed = 1;
nodes = (
(118,0,l),
(118,360,l),
(239,360,ls),
(413,360,o),
(506,425,o),
(506,549,cs),
(506,660,o),
(427,724,o),
(313,724,cs),
(157,724,o),
(92,627,o),
(92,389,cs),
(92,0,l)
);
},
{
closed = 1;
nodes = (
(118,611,o),
(178,699,o),
(310,699,cs),
(406,699,o),
(479,641,o),
(479,550,cs),
(479,440,o),
(396,385,o),
(236,385,cs),
(118,385,l)
);
},
{
closed = 1;
nodes = (
(12,253,l),
(512,253,l),
(512,278,l),
(12,278,l)
);
}
);
width = 569;
},
{
layerId = m002;
shapes = (
{
closed = 1;
nodes = (
(190,0,l),
(190,329,l),
(296,329,ls),
(468,329,o),
(558,400,o),
(558,527,cs),
(558,646,o),
(472,724,o),
(338,724,cs),
(187,724,o),
(100,625,o),
(100,417,cs),
(100,0,l)
);
},
{
closed = 1;
nodes = (
(190,583,o),
(236,648,o),
(337,648,cs),
(421,648,o),
(467,599,o),
(467,527,cs),
(467,446,o),
(402,405,o),
(293,405,cs),
(190,405,l)
);
},
{
closed = 1;
nodes = (
(12,171,l),
(560,171,l),
(560,247,l),
(12,247,l)
);
}
);
width = 617;
},
{
layerId = m004;
shapes = (
{
closed = 1;
nodes = (
(298,0,l),
(298,281,l),
(381,281,ls),
(549,281,o),
(633,362,o),
(633,494,cs),
(633,624,o),
(538,724,o),
(372,724,cs),
(210,724,o),
(107,624,o),
(107,460,cs),
(107,0,l)
);
},
{
closed = 1;
nodes = (
(298,543,o),
(322,565,o),
(375,565,cs),
(429,565,o),
(441,531,o),
(441,495,cs),
(441,457,o),
(418,439,o),
(378,439,cs),
(298,439,l)
);
},
{
closed = 1;
nodes = (
(7,61,l),
(631,61,l),
(631,219,l),
(7,219,l)
);
}
);
width = 681;
},
{
layerId = m005;
shapes = (
{
closed = 1;
nodes = (
(102,0,l),
(102,357,l),
(212,357,ls),
(316,357,o),
(382,425,o),
(382,548,cs),
(382,664,o),
(327,724,o),
(229,724,cs),
(135,724,o),
(76,659,o),
(76,382,cs),
(76,0,l)
);
},
{
closed = 1;
nodes = (
(102,618,o),
(142,699,o),
(229,699,cs),
(309,699,o),
(356,651,o),
(356,548,cs),
(356,433,o),
(294,382,o),
(206,382,cs),
(102,382,l)
);
},
{
closed = 1;
nodes = (
(12,259,l),
(359,259,l),
(359,284,l),
(12,284,l)
);
}
);
width = 418;
},
{
layerId = m006;
shapes = (
{
closed = 1;
nodes = (
(163,0,l),
(163,331,l),
(256,331,ls),
(374,331,o),
(447,403,o),
(447,530,cs),
(447,659,o),
(378,724,o),
(264,724,cs),
(148,724,o),
(80,650,o),
(80,406,cs),
(80,0,l)
);
},
{
closed = 1;
nodes = (
(163,587,o),
(190,650,o),
(263,650,cs),
(328,650,o),
(363,612,o),
(363,530,cs),
(363,445,o),
(316,405,o),
(244,405,cs),
(163,405,l)
);
},
{
closed = 1;
nodes = (
(13,183,l),
(393,183,l),
(393,257,l),
(13,257,l)
);
}
);
width = 481;
},
{
layerId = m008;
shapes = (
{
closed = 1;
nodes = (
(255,0,l),
(255,294,l),
(321,294,ls),
(460,294,o),
(543,369,o),
(543,504,cs),
(543,651,o),
(454,724,o),
(317,724,cs),
(167,724,o),
(85,637,o),
(85,443,cs),
(85,0,l)
);
},
{
closed = 1;
nodes = (
(255,545,o),
(262,579,o),
(315,579,cs),
(357,579,o),
(373,557,o),
(373,504,cs),
(373,463,o),
(350,439,o),
(302,439,cs),
(255,439,l)
);
},
{
closed = 1;
nodes = (
(15,71,l),
(445,71,l),
(445,216,l),
(15,216,l)
);
}
);
width = 575;
}
);
note = uni0554;
unicode = 1364;
}
{
glyphname = uni0555;
kernLeft = uni0555;
kernRight = uni0535;
layers = (
{
anchors = (
{
name = top;
pos = (374,714);
}
);
layerId = m001;
shapes = (
{
closed = 1;
nodes = (
(688,590,o),
(577,724,o),
(380,724,cs),
(175,724,o),
(61,574,o),
(61,359,cs),
(61,143,o),
(166,-10,o),
(374,-10,cs),
(585,-10,o),
(688,143,o),
(688,358,cs)
);
},
{
closed = 1;
nodes = (
(88,556,o),
(184,699,o),
(380,699,cs),
(560,699,o),
(661,575,o),
(661,358,cs),
(661,156,o),
(571,15,o),
(375,15,cs),
(180,15,o),
(88,159,o),
(88,359,cs)
);
}
);
width = 749;
},
{
anchors = (
{
name = top;
pos = (388,714);
}
);
layerId = m002;
shapes = (
{
closed = 1;
nodes = (
(715,585,o),
(606,725,o),
(391,725,cs),
(171,725,o),
(61,577,o),
(61,359,cs),
(61,140,o),
(167,-10,o),
(388,-10,cs),
(610,-10,o),
(715,140,o),
(715,358,cs)
);
},
{
closed = 1;
nodes = (
(156,532,o),
(230,649,o),
(392,649,cs),
(545,649,o),
(621,542,o),
(621,358,cs),
(621,182,o),
(550,66,o),
(389,66,cs),
(229,66,o),
(156,183,o),
(156,358,cs)
);
}
);
width = 776;
},
{
anchors = (
{
name = top;
pos = (398,714);
}
);
layerId = m004;
shapes = (
{
closed = 1;
nodes = (
(747,577,o),
(641,725,o),
(398,725,cs),
(155,725,o),
(50,582,o),
(50,359,cs),
(50,135,o),
(158,-10,o),
(399,-10,cs),
(639,-10,o),
(747,135,o),
(747,358,cs)
);
},
{
closed = 1;
nodes = (
(251,493,o),
(292,567,o),
(398,567,cs),
(509,567,o),
(545,487,o),
(545,358,cs),
(545,223,o),
(506,148,o),
(398,148,cs),
(293,148,o),
(251,222,o),
(251,358,cs)
);
}
);
width = 797;
},
{
anchors = (
{
name = top;
pos = (255,714);
}
);
layerId = m005;
shapes = (
{
closed = 1;
nodes = (
(457,570,o),
(404,724,o),
(257,724,cs),
(126,724,o),
(54,602,o),
(54,358,cs),
(54,173,o),
(97,-10,o),
(257,-10,cs),
(416,-10,o),
(457,165,o),
(457,358,cs)
);
},
{
closed = 1;
nodes = (
(80,574,o),
(137,699,o),
(257,699,cs),
(374,699,o),
(431,577,o),
(431,358,cs),
(431,135,o),
(374,15,o),
(257,15,cs),
(143,15,o),
(80,141,o),
(80,358,cs)
);
}
);
width = 511;
},
{
anchors = (
{
name = top;
pos = (277,714);
}
);
layerId = m006;
shapes = (
{
closed = 1;
nodes = (
(507,582,o),
(438,724,o),
(279,724,cs),
(129,724,o),
(48,600,o),
(48,358,cs),
(48,151,o),
(112,-10,o),
(279,-10,cs),
(445,-10,o),
(507,146,o),
(507,358,cs)
);
},
{
closed = 1;
nodes = (
(134,546,o),
(181,650,o),
(278,650,cs),
(374,650,o),
(420,550,o),
(420,358,cs),
(420,164,o),
(374,64,o),
(278,64,cs),
(185,64,o),
(134,169,o),
(134,358,cs)
);
}
);
width = 555;
},
{
anchors = (
{
name = top;
pos = (310,714);
}
);
layerId = m008;
shapes = (
{
closed = 1;
nodes = (
(582,599,o),
(489,725,o),
(311,725,cs),
(134,725,o),
(39,597,o),
(39,359,cs),
(39,119,o),
(135,-10,o),
(311,-10,cs),
(488,-10,o),
(582,118,o),
(582,358,cs)
);
},
{
closed = 1;
nodes = (
(216,505,o),
(248,580,o),
(311,580,cs),
(374,580,o),
(405,509,o),
(405,358,cs),
(405,204,o),
(375,135,o),
(311,135,cs),
(248,135,o),
(216,208,o),
(216,358,cs)
);
}
);
width = 621;
}
);
note = uni0555;
unicode = 1365;
}
{
color = 10;
glyphname = uni0556;
kernLeft = uni0556;
kernRight = uni0556;
layers = (
{
layerId = m001;
shapes = (
{
closed = 1;
nodes = (
(454,-10,o),
(540,80,o),
(540,212,cs),
(540,325,o),
(467,382,o),
(292,406,c),
(292,714,l),
(233,714,ls),
(133,714,o),
(69,652,o),
(69,564,cs),
(69,456,o),
(135,405,o),
(266,386,c),
(266,15,l),
(198,17,o),
(121,28,o),
(52,50,c),
(52,24,l),
(121,4,o),
(183,-10,o),
(281,-10,cs)
);
},
{
closed = 1;
nodes = (
(292,381,l),
(435,358,o),
(513,318,o),
(513,212,cs),
(513,103,o),
(442,17,o),
(292,15,c)
);
},
{
closed = 1;
nodes = (
(154,427,o),
(96,472,o),
(96,564,cs),
(96,636,o),
(146,689,o),
(234,689,cs),
(266,689,l),
(266,411,l)
);
}
);
width = 593;
},
{
layerId = m002;
shapes = (
{
closed = 1;
nodes = (
(539,-10,o),
(646,68,o),
(646,215,cs),
(646,332,o),
(576,395,o),
(381,418,c),
(381,714,l),
(275,714,ls),
(147,714,o),
(68,645,o),
(68,541,cs),
(68,435,o),
(129,374,o),
(291,353,c),
(291,66,l),
(216,69,o),
(134,87,o),
(52,121,c),
(52,39,l),
(136,6,o),
(224,-10,o),
(335,-10,cs)
);
},
{
closed = 1;
nodes = (
(381,344,l),
(489,329,o),
(557,300,o),
(557,214,cs),
(557,129,o),
(499,68,o),
(381,66,c)
);
},
{
closed = 1;
nodes = (
(198,440,o),
(157,474,o),
(157,540,cs),
(157,598,o),
(192,638,o),
(269,638,cs),
(291,638,l),
(291,427,l)
);
}
);
width = 699;
},
{
associatedMasterId = m002;
attr = {
coordinates = (
144,
100
);
};
background = {
shapes = (
{
closed = 1;
nodes = (
(612.2,-10,o),
(740.55,57.02,o),
(740.55,218.05,cs),
(740.55,338.1,o),
(674.21,407.2,o),
(459.69,428.98,c),
(459.69,714,l),
(307.94,714,ls),
(153.1,714,o),
(59.46,638.29,o),
(59.46,519.04,cs),
(59.46,414.87,o),
(116.19,345.94,o),
(308.08,322.5,c),
(308.08,116.02,l),
(225.76,120.24,o),
(138.88,143.73,o),
(44.68,188.71,c),
(44.68,53.03,l),
(142.71,7.83,o),
(256.33,-10,o),
(380.14,-10,cs)
);
},
{
closed = 1;
nodes = (
(459.69,308.62,l),
(533.53,300.94,o),
(592.38,282.92,o),
(592.38,215.83,cs),
(592.38,153.4,o),
(546.58,118.02,o),
(459.69,116.02,c)
);
},
{
closed = 1;
nodes = (
(232.77,452.2,o),
(208.85,475.83,o),
(208.85,517.43,cs),
(208.85,561.4,o),
(229.82,587.98,o),
(295.84,587.98,cs),
(308.69,587.98,l),
(308.69,442.86,l)
);
}
);
};
layerId = "8b24ae60-1f3f-4c33-b46f-6616100ad665";
name = "SemiBold (intermediate)";
shapes = (
{
closed = 1;
nodes = (
(603,-10,o),
(727,59,o),
(727,218,cs),
(727,337,o),
(660,405,o),
(449,427,c),
(449,714,l),
(305,714,ls),
(155,714,o),
(64,639,o),
(64,523,cs),
(64,418,o),
(122,352,o),
(308,328,c),
(308,108,l),
(227,112,o),
(141,134,o),
(49,177,c),
(49,51,l),
(145,8,o),
(254,-10,o),
(376,-10,cs)
);
},
{
closed = 1;
nodes = (
(449,315,l),
(528,306,o),
(589,286,o),
(589,216,cs),
(589,149,o),
(541,110,o),
(449,108,c)
);
},
{
closed = 1;
nodes = (
(229,450,o),
(202,476,o),
(202,522,cs),
(202,568,o),
(225,596,o),
(293,596,cs),
(308,596,l),
(308,440,l)
);
}
);
width = 776;
},
{
layerId = m004;
shapes = (
{
closed = 1;
nodes = (
(659,-10,o),
(801,50,o),
(801,220,cs),
(801,342,o),
(737,415,o),
(510,436,c),
(510,714,l),
(329,714,ls),
(157,714,o),
(54,634,o),
(54,505,cs),
(54,402,o),
(108,328,o),
(319,303,c),
(319,148,l),
(232,153,o),
(142,180,o),
(40,232,c),
(40,62,l),
(147,9,o),
(277,-10,o),
(409,-10,cs)
);
},
{
closed = 1;
nodes = (
(510,286,l),
(562,283,o),
(615,272,o),
(615,217,cs),
(615,169,o),
(577,150,o),
(510,148,c)
);
},
{
closed = 1;
nodes = (
(255,460,o),
(242,477,o),
(242,503,cs),
(242,538,o),
(254,556,o),
(313,556,cs),
(320,556,l),
(320,453,l)
);
}
);
width = 842;
},
{
layerId = m005;
shapes = (
{
closed = 1;
nodes = (
(328,-10,o),
(381,64,o),
(381,197,cs),
(381,311,o),
(345,375,o),
(218,408,c),
(218,714,l),
(163,714,ls),
(88,714,o),
(43,655,o),
(43,566,cs),
(43,460,o),
(86,406,o),
(192,386,c),
(192,15,l),
(130,17,o),
(72,30,o),
(32,49,c),
(32,22,l),
(73,5,o),
(129,-10,o),
(204,-10,cs)
);
},
{
closed = 1;
nodes = (
(218,382,l),
(319,358,o),
(354,304,o),
(354,197,cs),
(354,87,o),
(312,15,o),
(218,15,c)
);
},
{
closed = 1;
nodes = (
(102,430,o),
(69,477,o),
(69,567,cs),
(69,638,o),
(100,689,o),
(163,689,cs),
(192,689,l),
(192,412,l)
);
}
);
width = 417;
},
{
layerId = m006;
shapes = (
{
closed = 1;
nodes = (
(428,-10,o),
(502,64,o),
(502,206,cs),
(502,327,o),
(453,391,o),
(308,419,c),
(308,714,l),
(212,714,ls),
(109,714,o),
(45,647,o),
(45,542,cs),
(45,431,o),
(101,375,o),
(226,353,c),
(226,64,l),
(160,67,o),
(92,91,o),
(33,124,c),
(33,38,l),
(90,9,o),
(167,-10,o),
(263,-10,cs)
);
},
{
closed = 1;
nodes = (
(308,343,l),
(387,327,o),
(418,288,o),
(418,205,cs),
(418,117,o),
(383,66,o),
(308,64,c)
);
},
{
closed = 1;
nodes = (
(158,442,o),
(129,477,o),
(129,544,cs),
(129,601,o),
(153,640,o),
(205,640,cs),
(227,640,l),
(227,429,l)
);
}
);
width = 536;
},
{
layerId = m008;
shapes = (
{
closed = 1;
nodes = (
(576,-10,o),
(683,63,o),
(683,220,cs),
(683,350,o),
(619,415,o),
(444,436,c),
(444,714,l),
(286,714,ls),
(140,714,o),
(49,634,o),
(49,505,cs),
(49,387,o),
(124,327,o),
(279,304,c),
(279,136,l),
(207,141,o),
(123,183,o),
(35,238,c),
(35,63,l),
(115,15,o),
(225,-10,o),
(353,-10,cs)
);
},
{
closed = 1;
nodes = (
(444,291,l),
(489,287,o),
(513,264,o),
(513,217,cs),
(513,163,o),
(491,137,o),
(444,134,c)
);
},
{
closed = 1;
nodes = (
(242,453,o),
(219,474,o),
(219,505,cs),
(219,542,o),
(238,569,o),
(273,569,cs),
(279,569,l),
(279,449,l)
);
}
);
width = 715;
}
);
note = uni0556;
unicode = 1366;
}
{
glyphname = uni0559;
kernLeft = uni0559;
kernRight = uni0535;
layers = (
{
layerId = m001;
shapes = (
{
closed = 1;
nodes = (
(132,468,l),
(82,468,o),
(47,516,o),
(47,583,cs),
(47,666,o),
(79,710,o),
(132,744,c),
(118,760,l),
(64,729,o),
(21,684,o),
(21,583,cs),
(21,500,o),
(65,443,o),
(132,443,c)
);
}
);
width = 169;
},
{
layerId = m002;
shapes = (
{
closed = 1;
nodes = (
(166,515,l),
(126,515,o),
(100,546,o),
(100,595,cs),
(100,649,o),
(124,682,o),
(174,715,c),
(140,760,l),
(66,722,o),
(21,669,o),
(21,583,cs),
(21,499,o),
(72,438,o),
(166,438,c)
);
}
);
width = 211;
},
{
layerId = m004;
shapes = (
{
closed = 1;
nodes = (
(208,589,l),
(184,589,o),
(172,594,o),
(172,613,cs),
(172,622,o),
(182,639,o),
(228,669,c),
(163,760,l),
(56,711,o),
(9,646,o),
(9,583,cs),
(9,497,o),
(70,431,o),
(208,431,c)
);
}
);
width = 252;
},
{
layerId = m005;
shapes = (
{
closed = 1;
nodes = (
(86,467,l),
(55,467,o),
(37,493,o),
(37,563,cs),
(37,638,o),
(54,697,o),
(89,753,c),
(76,763,l),
(33,713,o),
(12,643,o),
(12,564,cs),
(12,479,o),
(43,442,o),
(86,442,c)
);
}
);
width = 109;
},
{
layerId = m006;
shapes = (
{
closed = 1;
nodes = (
(125,516,l),
(97,516,o),
(83,533,o),
(83,583,cs),
(83,634,o),
(101,680,o),
(136,723,c),
(103,764,l),
(43,715,o),
(10,647,o),
(10,572,cs),
(10,482,o),
(54,438,o),
(125,438,c)
);
}
);
width = 156;
},
{
layerId = m008;
shapes = (
{
closed = 1;
nodes = (
(186,589,l),
(163,589,o),
(154,593,o),
(154,613,cs),
(154,627,o),
(174,654,o),
(208,677,c),
(144,765,l),
(59,718,o),
(8,654,o),
(8,583,cs),
(8,486,o),
(72,431,o),
(186,431,c)
);
}
);
width = 228;
}
);
note = uni0559;
unicode = 1369;
}
{
glyphname = uni055A;
kernRight = uni0535;
layers = (
{
layerId = m001;
shapes = (
{
closed = 1;
nodes = (
(37,735,l),
(87,735,o),
(122,687,o),
(122,620,cs),
(122,537,o),
(90,493,o),
(37,459,c),
(51,443,l),
(105,474,o),
(148,519,o),
(148,620,cs),
(148,703,o),
(104,760,o),
(37,760,c)
);
}
);
width = 169;
},
{
layerId = m002;
shapes = (
{
closed = 1;
nodes = (
(45,683,l),
(85,683,o),
(111,652,o),
(111,604,cs),
(111,549,o),
(87,516,o),
(37,484,c),
(71,438,l),
(145,477,o),
(190,529,o),
(190,615,cs),
(190,699,o),
(139,760,o),
(45,760,c)
);
}
);
width = 211;
},
{
layerId = m004;
shapes = (
{
closed = 1;
nodes = (
(44,602,l),
(69,602,o),
(80,597,o),
(80,578,cs),
(80,569,o),
(70,552,o),
(24,522,c),
(89,431,l),
(196,481,o),
(243,545,o),
(243,608,cs),
(243,694,o),
(182,760,o),
(44,760,c)
);
}
);
width = 252;
},
{
layerId = m005;
shapes = (
{
closed = 1;
nodes = (
(23,738,l),
(54,738,o),
(72,712,o),
(72,642,cs),
(72,567,o),
(55,508,o),
(20,452,c),
(33,442,l),
(76,492,o),
(97,562,o),
(97,641,cs),
(97,726,o),
(66,763,o),
(23,763,c)
);
}
);
width = 109;
},
{
layerId = m006;
shapes = (
{
closed = 1;
nodes = (
(31,684,l),
(58,684,o),
(73,667,o),
(73,616,cs),
(73,566,o),
(55,520,o),
(20,477,c),
(53,436,l),
(113,484,o),
(146,552,o),
(146,628,cs),
(146,718,o),
(101,762,o),
(31,762,c)
);
}
);
width = 156;
},
{
layerId = m008;
shapes = (
{
closed = 1;
nodes = (
(42,602,l),
(65,602,o),
(74,598,o),
(74,578,cs),
(74,564,o),
(54,537,o),
(20,514,c),
(84,426,l),
(169,473,o),
(220,537,o),
(220,608,cs),
(220,705,o),
(156,760,o),
(42,760,c)
);
}
);
width = 228;
}
);
note = uni055A;
unicode = 1370;
}
{
glyphname = uni055B;
kernLeft = uni055B;
kernRight = uni0535;
layers = (
{
layerId = m001;
shapes = (
{
closed = 1;
nodes = (
(97,814,l),
(90,742,o),
(65,639,o),
(34,569,c),
(56,569,l),
(88,638,o),
(111,723,o),
(123,805,c),
(117,814,l)
);
}
);
width = 165;
},
{
layerId = m002;
shapes = (
{
closed = 1;
nodes = (
(86,814,l),
(80,759,o),
(61,676,o),
(34,586,c),
(98,586,l),
(129,658,o),
(154,731,o),
(169,802,c),
(161,814,l)
);
}
);
width = 211;
},
{
layerId = m004;
shapes = (
{
closed = 1;
nodes = (
(92,814,l),
(87,786,o),
(79,734,o),
(57,614,c),
(194,614,l),
(225,691,o),
(245,744,o),
(263,798,c),
(254,814,l)
);
}
);
width = 330;
},
{
layerId = m005;
shapes = (
{
closed = 1;
nodes = (
(60,814,l),
(57,734,o),
(43,642,o),
(24,569,c),
(45,569,l),
(65,633,o),
(80,723,o),
(85,806,c),
(82,814,l)
);
}
);
width = 115;
},
{
layerId = m006;
shapes = (
{
closed = 1;
nodes = (
(71,814,l),
(66,740,o),
(54,658,o),
(37,587,c),
(103,587,l),
(119,637,o),
(144,736,o),
(152,804,c),
(146,814,l)
);
}
);
width = 196;
},
{
layerId = m008;
shapes = (
{
closed = 1;
nodes = (
(87,815,l),
(80,748,o),
(69,681,o),
(56,614,c),
(192,614,l),
(204,642,o),
(241,755,o),
(252,800,c),
(241,815,l)
);
}
);
width = 318;
}
);
note = uni055B;
unicode = 1371;
}
{
glyphname = uni055C;
kernLeft = uni055C;
kernRight = uni055C;
layers = (
{
layerId = m001;
shapes = (
{
closed = 1;
nodes = (
(68,603,l),
(68,615,ls),
(68,645,o),
(79,665,o),
(124,693,cs),
(179,727,o),
(197,740,o),
(197,814,c),
(172,814,l),
(172,799,ls),
(172,759,o),
(154,737,o),
(112,712,cs),
(63,683,o),
(43,662,o),
(43,603,c)
);
}
);
width = 239;
},
{
layerId = m002;
shapes = (
{
closed = 1;
nodes = (
(120,603,l),
(120,615,ls),
(120,640,o),
(129,658,o),
(176,686,cs),
(236,721,o),
(249,740,o),
(249,814,c),
(173,814,l),
(173,801,ls),
(173,765,o),
(159,750,o),
(111,720,cs),
(55,685,o),
(43,658,o),
(43,603,c)
);
}
);
width = 291;
},
{
layerId = m004;
shapes = (
{
closed = 1;
nodes = (
(169,603,l),
(169,615,ls),
(169,633,o),
(176,647,o),
(225,675,cs),
(293,714,o),
(300,740,o),
(300,814,c),
(141,814,l),
(141,803,ls),
(141,778,o),
(135,770,o),
(77,732,cs),
(23,696,o),
(11,671,o),
(11,603,c)
);
}
);
width = 310;
},
{
layerId = m005;
shapes = (
{
closed = 1;
nodes = (
(43,600,l),
(43,615,ls),
(43,645,o),
(46,667,o),
(75,694,cs),
(110,726,o),
(120,743,o),
(120,817,c),
(95,817,l),
(95,799,ls),
(95,759,o),
(87,738,o),
(60,713,cs),
(29,685,o),
(18,658,o),
(18,600,c)
);
}
);
width = 138;
},
{
layerId = m006;
shapes = (
{
closed = 1;
nodes = (
(88,601,l),
(88,615,ls),
(88,642,o),
(94,661,o),
(125,686,cs),
(170,722,o),
(177,741,o),
(177,817,c),
(106,817,l),
(106,801,ls),
(106,765,o),
(99,750,o),
(64,721,cs),
(21,685,o),
(16,657,o),
(16,601,c)
);
}
);
width = 193;
},
{
layerId = m008;
shapes = (
{
closed = 1;
nodes = (
(154,602,l),
(154,615,ls),
(154,638,o),
(166,653,o),
(199,675,cs),
(255,712,o),
(263,725,o),
(263,816,c),
(121,816,l),
(121,803,ls),
(121,774,o),
(117,769,o),
(69,732,cs),
(19,693,o),
(12,667,o),
(12,602,c)
);
}
);
width = 275;
}
);
note = uni055C;
unicode = 1372;
}
{
glyphname = uni055D;
kernRight = uni0535;
layers = (
{
layerId = m001;
shapes = (
{
closed = 1;
nodes = (
(42,805,l),
(54,720,o),
(72,649,o),
(109,569,c),
(131,569,l),
(95,651,o),
(77,724,o),
(68,814,c),
(48,814,l)
);
}
);
width = 165;
},
{
layerId = m002;
shapes = (
{
closed = 1;
nodes = (
(42,802,l),
(57,730,o),
(79,664,o),
(113,586,c),
(177,586,l),
(147,682,o),
(132,750,o),
(124,814,c),
(50,814,l)
);
}
);
width = 211;
},
{
layerId = m004;
shapes = (
{
closed = 1;
nodes = (
(67,798,l),
(86,745,o),
(107,687,o),
(136,614,c),
(273,614,l),
(253,730,o),
(243,791,o),
(238,814,c),
(77,814,l)
);
}
);
width = 330;
},
{
layerId = m005;
shapes = (
{
closed = 1;
nodes = (
(30,806,l),
(35,723,o),
(50,633,o),
(70,569,c),
(91,569,l),
(72,642,o),
(58,734,o),
(55,814,c),
(33,814,l)
);
}
);
width = 115;
},
{
layerId = m006;
shapes = (
{
closed = 1;
nodes = (
(44,804,l),
(51,736,o),
(76,637,o),
(93,587,c),
(159,587,l),
(142,658,o),
(129,740,o),
(125,814,c),
(50,814,l)
);
}
);
width = 196;
},
{
layerId = m008;
shapes = (
{
closed = 1;
nodes = (
(66,800,l),
(77,755,o),
(114,642,o),
(126,614,c),
(262,614,l),
(249,681,o),
(238,748,o),
(231,815,c),
(77,815,l)
);
}
);
width = 318;
}
);
note = uni055D;
unicode = 1373;
}
{
color = 10;
glyphname = uni055E;
kernLeft = uni055E;
kernRight = uni0535;
layers = (
{
layerId = m001;
shapes = (
{
closed = 1;
nodes = (
(86,684,l),
(92,756,o),
(157,797,o),
(246,797,cs),
(299,797,o),
(333,781,o),
(333,748,cs),
(333,715,o),
(298,706,o),
(231,703,c),
(231,678,l),
(317,680,o),
(360,701,o),
(360,750,cs),
(360,793,o),
(321,822,o),
(246,822,cs),
(143,822,o),
(70,769,o),
(61,684,c)
);
}
);
width = 418;
},
{
layerId = m002;
shapes = (
{
closed = 1;
nodes = (
(133,634,l),
(138,723,o),
(185,762,o),
(254,762,cs),
(291,762,o),
(315,750,o),
(315,726,cs),
(315,703,o),
(291,691,o),
(242,690,c),
(242,631,l),
(336,632,o),
(384,667,o),
(384,729,cs),
(384,789,o),
(336,826,o),
(258,826,cs),
(146,826,o),
(67,746,o),
(61,634,c)
);
}
);
width = 442;
},
{
layerId = m004;
shapes = (
{
closed = 1;
nodes = (
(183,595,l),
(186,710,o),
(205,747,o),
(244,747,cs),
(255,747,o),
(262,740,o),
(262,733,cs),
(262,723,o),
(258,708,o),
(236,709,c),
(236,597,l),
(344,596,o),
(399,654,o),
(399,736,cs),
(399,824,o),
(336,871,o),
(253,871,cs),
(127,871,o),
(40,751,o),
(38,595,c)
);
}
);
width = 431;
},
{
layerId = m005;
shapes = (
{
closed = 1;
nodes = (
(66,686,l),
(68,757,o),
(101,800,o),
(154,800,cs),
(185,800,o),
(203,781,o),
(203,750,cs),
(203,722,o),
(188,708,o),
(146,707,c),
(146,682,l),
(201,684,o),
(229,705,o),
(229,752,cs),
(229,797,o),
(199,825,o),
(155,825,cs),
(94,825,o),
(45,775,o),
(42,686,c)
);
}
);
width = 267;
},
{
layerId = m006;
shapes = (
{
closed = 1;
nodes = (
(107,633,l),
(109,720,o),
(134,763,o),
(174,763,cs),
(198,763,o),
(211,749,o),
(211,725,cs),
(211,703,o),
(200,692,o),
(168,691,c),
(168,632,l),
(238,633,o),
(276,666,o),
(276,730,cs),
(276,790,o),
(238,827,o),
(181,827,cs),
(96,827,o),
(42,761,o),
(40,633,c)
);
}
);
width = 312;
},
{
associatedMasterId = m006;
attr = {
coordinates = (
144,
70
);
};
background = {
shapes = (
{
closed = 1;
nodes = (
(145.43,603.11,l),
(146.82,703.53,o),
(164.5,747.14,o),
(192.91,747.14,cs),
(210.81,747.14,o),
(219.54,737.41,o),
(219.54,720.73,cs),
(219.54,703.61,o),
(211.59,695.66,o),
(188.74,695.27,c),
(188.74,604.55,l),
(272.16,604.94,o),
(320.53,648.31,o),
(320.53,727.56,cs),
(320.53,802.2,o),
(275.21,847.74,o),
(206.01,847.74,cs),
(97.83,847.74,o),
(39.56,766.49,o),
(38.78,603.11,c)
);
}
);
};
layerId = "29d785e4-0de8-4eb4-9421-9d23a37d3b49";
name = "Condensed SemiBold (intermediate)";
shapes = (
{
closed = 1;
nodes = (
(146,584,l),
(147,685,o),
(165,728,o),
(193,728,cs),
(211,728,o),
(220,719,o),
(220,702,cs),
(220,685,o),
(212,677,o),
(189,677,c),
(189,586,l),
(273,586,o),
(321,630,o),
(321,709,cs),
(321,784,o),
(276,830,o),
(207,830,cs),
(98,830,o),
(40,748,o),
(39,584,c)
);
}
);
width = 353;
},
{
layerId = m008;
shapes = (
{
closed = 1;
nodes = (
(170,584,l),
(171,693,o),
(184,737,o),
(205,737,cs),
(219,737,o),
(225,730,o),
(225,718,cs),
(225,704,o),
(219,698,o),
(202,698,c),
(202,587,l),
(294,587,o),
(349,637,o),
(349,726,cs),
(349,810,o),
(299,861,o),
(222,861,cs),
(99,861,o),
(38,770,o),
(38,584,c)
);
}
);
width = 379;
}
);
note = uni055E;
unicode = 1374;
}
{
glyphname = uni055F;
kernRight = uni0535;
layers = (
{
layerId = m001;
shapes = (
{
closed = 1;
nodes = (
(379,614,l),
(379,639,l),
(163,639,ls),
(104,639,o),
(74,662,o),
(74,708,cs),
(74,748,o),
(106,772,o),
(160,772,cs),
(176,772,o),
(194,768,o),
(215,761,c),
(222,784,l),
(199,793,o),
(176,797,o),
(156,797,cs),
(90,797,o),
(48,764,o),
(48,708,cs),
(48,648,o),
(85,614,o),
(154,614,cs)
);
}
);
width = 405;
},
{
layerId = m002;
shapes = (
{
closed = 1;
nodes = (
(389,607,l),
(389,671,l),
(185,671,ls),
(142,671,o),
(120,685,o),
(120,721,cs),
(120,749,o),
(142,765,o),
(182,765,cs),
(194,765,o),
(211,762,o),
(233,754,c),
(252,815,l),
(225,824,o),
(200,829,o),
(175,829,cs),
(101,829,o),
(48,786,o),
(48,718,cs),
(48,644,o),
(91,607,o),
(176,607,cs)
);
}
);
width = 415;
},
{
layerId = m004;
shapes = (
{
closed = 1;
nodes = (
(381,597,l),
(381,721,l),
(197,721,ls),
(179,721,o),
(170,721,o),
(170,741,cs),
(170,749,o),
(177,755,o),
(194,755,cs),
(201,755,o),
(216,753,o),
(240,744,c),
(276,863,l),
(242,874,o),
(214,879,o),
(182,879,cs),
(96,879,o),
(25,819,o),
(25,733,cs),
(25,639,o),
(78,597,o),
(188,597,cs)
);
}
);
width = 386;
},
{
layerId = m005;
shapes = (
{
closed = 1;
nodes = (
(238,612,l),
(238,637,l),
(112,637,ls),
(79,637,o),
(62,661,o),
(62,707,cs),
(62,748,o),
(80,771,o),
(110,771,cs),
(120,771,o),
(132,767,o),
(143,760,c),
(154,782,l),
(138,791,o),
(121,796,o),
(107,796,cs),
(65,796,o),
(36,761,o),
(36,707,cs),
(36,647,o),
(63,612,o),
(107,612,cs)
);
}
);
width = 258;
},
{
layerId = m006;
shapes = (
{
closed = 1;
nodes = (
(275,606,l),
(275,670,l),
(136,670,ls),
(110,670,o),
(98,687,o),
(98,719,cs),
(98,749,o),
(112,765,o),
(134,765,cs),
(143,765,o),
(157,761,o),
(171,754,c),
(191,814,l),
(169,824,o),
(147,829,o),
(128,829,cs),
(72,829,o),
(31,783,o),
(31,717,cs),
(31,645,o),
(65,606,o),
(130,606,cs)
);
}
);
width = 289;
},
{
layerId = m008;
shapes = (
{
closed = 1;
nodes = (
(331,597,l),
(331,721,l),
(173,721,ls),
(157,721,o),
(152,725,o),
(152,737,cs),
(152,751,o),
(161,755,o),
(170,755,cs),
(178,755,o),
(195,751,o),
(213,744,c),
(247,862,l),
(217,874,o),
(187,879,o),
(160,879,cs),
(82,879,o),
(24,816,o),
(24,733,cs),
(24,641,o),
(68,597,o),
(165,597,cs)
);
}
);
width = 336;
}
);
note = uni055F;
unicode = 1375;
}
{
category = Letter;
color = 10;
glyphname = uni0560;
kernLeft = uni0561;
kernRight = uni0535;
layers = (
{
anchors = (
{
name = top;
pos = (425,492);
}
);
layerId = m001;
shapes = (
{
closed = 1;
nodes = (
(519,492,o),
(456,446,o),
(432,384,c),
(430,384,l),
(414,455,o),
(353,492,o),
(284,492,cs),
(182,492,o),
(135,435,o),
(114,386,c),
(112,386,l),
(108,482,l),
(87,482,l),
(87,0,l),
(113,0,l),
(113,279,ls),
(113,413,o),
(191,467,o),
(284,467,cs),
(357,467,o),
(414,421,o),
(414,314,cs),
(414,0,l),
(440,0,l),
(440,279,ls),
(440,413,o),
(511,467,o),
(611,467,cs),
(684,467,o),
(741,421,o),
(741,314,cs),
(741,0,l),
(767,0,l),
(767,315,ls),
(767,436,o),
(701,492,o),
(611,492,cs)
);
}
);
userData = {
com.schriftgestaltung.Glyphs.category = Letter;
};
width = 850;
},
{
anchors = (
{
name = top;
pos = (460,492);
}
);
layerId = m002;
shapes = (
{
closed = 1;
nodes = (
(584,501,o),
(519,462,o),
(493,409,c),
(488,409,l),
(464,470,o),
(406,501,o),
(333,501,cs),
(246,501,o),
(197,459,o),
(173,412,c),
(168,412,l),
(156,492,l),
(87,492,l),
(87,0,l),
(176,0,l),
(176,251,ls),
(176,372,o),
(233,428,o),
(312,428,cs),
(373,428,o),
(417,388,o),
(417,304,cs),
(417,0,l),
(506,0,l),
(506,251,ls),
(506,372,o),
(560,428,o),
(643,428,cs),
(704,428,o),
(748,388,o),
(748,304,cs),
(748,0,l),
(837,0,l),
(837,321,ls),
(837,441,o),
(770,501,o),
(664,501,cs)
);
}
);
userData = {
com.schriftgestaltung.Glyphs.category = Letter;
};
width = 920;
},
{
anchors = (
{
name = top;
pos = (486,492);
}
);
associatedMasterId = m002;
attr = {
coordinates = (
144,
100
);
};
background = {
shapes = (
{
closed = 1;
nodes = (
(634.63,510.76,o),
(567.8,477.86,o),
(539.97,432.79,c),
(531.92,432.79,l),
(499.99,484.64,o),
(443.82,510.76,o),
(367.77,510.76,cs),
(294.8,510.76,o),
(244.58,482.18,o),
(216.92,437.62,c),
(208.87,437.62,l),
(190.77,501.76,l),
(74.19,501.76,l),
(74.19,0,l),
(224.19,0,l),
(224.19,223.55,ls),
(224.19,332.96,o),
(260.45,391.4,o),
(325.42,391.4,cs),
(375.44,391.4,o),
(407.85,356.28,o),
(407.85,293.63,cs),
(407.85,0,l),
(557.85,0,l),
(557.85,223.55,ls),
(557.85,332.96,o),
(594.77,391.4,o),
(661.3,391.4,cs),
(710.71,391.4,o),
(742.51,356.28,o),
(742.51,293.63,cs),
(742.51,0,l),
(891.9,0,l),
(891.9,326.49,ls),
(891.9,445.88,o),
(824.9,510.76,o),
(702.43,510.76,cs)
);
}
);
};
layerId = "d417ee9d-b2fe-42c4-a0fc-68c881dc8e5d";
name = "SemiBold (intermediate)";
shapes = (
{
closed = 1;
nodes = (
(636,509,o),
(569,475,o),
(541,429,c),
(534,429,l),
(503,482,o),
(447,509,o),
(371,509,cs),
(296,509,o),
(246,478,o),
(219,433,c),
(211,433,l),
(194,500,l),
(86,500,l),
(86,0,l),
(225,0,l),
(225,228,ls),
(225,340,o),
(265,398,o),
(333,398,cs),
(384,398,o),
(419,363,o),
(419,295,cs),
(419,0,l),
(559,0,l),
(559,228,ls),
(559,341,o),
(598,398,o),
(668,398,cs),
(719,398,o),
(753,363,o),
(753,295,cs),
(753,0,l),
(892,0,l),
(892,326,ls),
(892,445,o),
(825,509,o),
(706,509,cs)
);
}
);
userData = {
com.schriftgestaltung.Glyphs.category = Letter;
};
width = 973;
},
{
anchors = (
{
name = top;
pos = (495,492);
}
);
layerId = m004;
shapes = (
{
closed = 1;
nodes = (
(667,517,o),
(599,488,o),
(570,448,c),
(560,448,l),
(523,494,o),
(468,517,o),
(390,517,cs),
(326,517,o),
(275,497,o),
(245,454,c),
(235,454,l),
(213,508,l),
(66,508,l),
(66,0,l),
(255,0,l),
(255,206,ls),
(255,308,o),
(278,368,o),
(334,368,cs),
(377,368,o),
(402,336,o),
(402,287,cs),
(402,0,l),
(591,0,l),
(591,206,ls),
(591,308,o),
(617,368,o),
(673,368,cs),
(715,368,o),
(739,336,o),
(739,287,cs),
(739,0,l),
(927,0,l),
(927,330,ls),
(927,449,o),
(860,517,o),
(727,517,cs)
);
}
);
userData = {
com.schriftgestaltung.Glyphs.category = Letter;
};
width = 991;
},
{
anchors = (
{
name = top;
pos = (304,492);
}
);
layerId = m005;
shapes = (
{
closed = 1;
nodes = (
(363,492,o),
(333,446,o),
(313,386,c),
(310,386,l),
(303,441,o),
(277,492,o),
(209,492,cs),
(134,492,o),
(110,429,o),
(95,383,c),
(92,383,l),
(92,482,l),
(71,482,l),
(71,0,l),
(97,0,l),
(97,292,ls),
(97,377,o),
(132,468,o),
(209,468,cs),
(256,468,o),
(293,434,o),
(293,310,cs),
(293,0,l),
(319,0,l),
(319,296,ls),
(319,399,o),
(363,468,o),
(428,468,cs),
(476,468,o),
(513,430,o),
(513,327,cs),
(513,0,l),
(539,0,l),
(539,329,ls),
(539,442,o),
(497,492,o),
(429,492,cs)
);
}
);
userData = {
com.schriftgestaltung.Glyphs.category = Letter;
};
width = 608;
},
{
anchors = (
{
name = top;
pos = (340,492);
}
);
layerId = m006;
shapes = (
{
closed = 1;
nodes = (
(431,502,o),
(397,464,o),
(375,409,c),
(368,409,l),
(357,459,o),
(327,502,o),
(260,502,cs),
(190,502,o),
(156,453,o),
(138,405,c),
(134,405,l),
(125,492,l),
(63,492,l),
(63,0,l),
(143,0,l),
(143,256,ls),
(143,356,o),
(169,430,o),
(234,430,cs),
(274,430,o),
(301,395,o),
(301,291,cs),
(301,0,l),
(381,0,l),
(381,265,ls),
(381,370,o),
(413,430,o),
(470,430,cs),
(511,430,o),
(539,392,o),
(539,301,cs),
(539,0,l),
(619,0,l),
(619,323,ls),
(619,446,o),
(574,502,o),
(494,502,cs)
);
}
);
userData = {
com.schriftgestaltung.Glyphs.category = Letter;
};
width = 680;
},
{
anchors = (
{
name = top;
pos = (394,492);
}
);
layerId = m008;
shapes = (
{
closed = 1;
nodes = (
(533,518,o),
(493,491,o),
(468,445,c),
(457,445,l),
(440,487,o),
(403,518,o),
(338,518,cs),
(274,518,o),
(225,491,o),
(204,440,c),
(195,440,l),
(177,508,l),
(50,508,l),
(50,0,l),
(212,0,l),
(212,203,ls),
(212,323,o),
(226,373,o),
(271,373,cs),
(301,373,o),
(314,335,o),
(314,262,cs),
(314,0,l),
(476,0,l),
(476,219,ls),
(476,325,o),
(489,373,o),
(534,373,cs),
(564,373,o),
(578,335,o),
(578,262,cs),
(578,0,l),
(740,0,l),
(740,315,ls),
(740,452,o),
(691,518,o),
(592,518,cs)
);
}
);
userData = {
com.schriftgestaltung.Glyphs.category = Letter;
};
width = 789;
}
);
note = uni0561;
unicode = 1376;
}
{
color = 10;
glyphname = uni0561;
kernLeft = uni0561;
kernRight = uni0535;
layers = (
{
anchors = (
{
name = top;
pos = (425,492);
}
);
layerId = m001;
shapes = (
{
closed = 1;
nodes = (
(330,-10,o),
(393,36,o),
(417,98,c),
(419,98,l),
(435,27,o),
(496,-10,o),
(565,-10,cs),
(667,-10,o),
(714,47,o),
(735,96,c),
(737,96,l),
(741,0,l),
(762,0,l),
(762,482,l),
(736,482,l),
(736,203,ls),
(736,69,o),
(658,15,o),
(565,15,cs),
(492,15,o),
(435,61,o),
(435,168,cs),
(435,482,l),
(409,482,l),
(409,203,ls),
(409,69,o),
(338,15,o),
(238,15,cs),
(165,15,o),
(108,61,o),
(108,168,cs),
(108,482,l),
(82,482,l),
(82,167,ls),
(82,46,o),
(148,-10,o),
(238,-10,cs)
);
}
);
width = 850;
},
{
anchors = (
{
name = top;
pos = (460,492);
}
);
layerId = m002;
shapes = (
{
closed = 1;
nodes = (
(335,-9,o),
(400,30,o),
(426,83,c),
(431,83,l),
(455,22,o),
(513,-9,o),
(586,-9,cs),
(673,-9,o),
(722,33,o),
(746,80,c),
(751,80,l),
(763,0,l),
(832,0,l),
(832,492,l),
(743,492,l),
(743,241,ls),
(743,120,o),
(686,64,o),
(607,64,cs),
(546,64,o),
(502,104,o),
(502,188,cs),
(502,492,l),
(413,492,l),
(413,241,ls),
(413,120,o),
(359,64,o),
(276,64,cs),
(215,64,o),
(171,104,o),
(171,188,cs),
(171,492,l),
(82,492,l),
(82,171,ls),
(82,51,o),
(149,-9,o),
(255,-9,cs)
);
}
);
width = 920;
},
{
anchors = (
{
name = top;
pos = (486,492);
}
);
associatedMasterId = m002;
attr = {
coordinates = (
144,
100
);
};
background = {
shapes = (
{
closed = 1;
nodes = (
(328.29,-9,o),
(395.12,23.9,o),
(422.95,68.97,c),
(431,68.97,l),
(462.93,17.12,o),
(519.1,-9,o),
(595.15,-9,cs),
(668.12,-9,o),
(718.34,19.58,o),
(746,64.14,c),
(754.05,64.14,l),
(772.15,0,l),
(888.73,0,l),
(888.73,501.76,l),
(738.73,501.76,l),
(738.73,278.21,ls),
(738.73,168.8,o),
(702.47,110.36,o),
(637.5,110.36,cs),
(587.48,110.36,o),
(555.07,145.48,o),
(555.07,208.13,cs),
(555.07,501.76,l),
(405.07,501.76,l),
(405.07,278.21,ls),
(405.07,168.8,o),
(368.15,110.36,o),
(301.62,110.36,cs),
(252.21,110.36,o),
(220.41,145.48,o),
(220.41,208.13,cs),
(220.41,501.76,l),
(71.02,501.76,l),
(71.02,175.27,ls),
(71.02,55.88,o),
(138.02,-9,o),
(260.49,-9,cs)
);
}
);
};
layerId = "d2650efb-d6a0-4f2c-9dcb-0fb16968f4a9";
name = "SemiBold (intermediate)";
shapes = (
{
closed = 1;
nodes = (
(337,-9,o),
(404,25,o),
(432,71,c),
(439,71,l),
(470,18,o),
(526,-9,o),
(602,-9,cs),
(677,-9,o),
(727,22,o),
(754,67,c),
(762,67,l),
(779,0,l),
(887,0,l),
(887,500,l),
(748,500,l),
(748,272,ls),
(748,160,o),
(708,102,o),
(640,102,cs),
(589,102,o),
(554,137,o),
(554,205,cs),
(554,500,l),
(414,500,l),
(414,272,ls),
(414,159,o),
(375,102,o),
(305,102,cs),
(254,102,o),
(220,137,o),
(220,205,cs),
(220,500,l),
(81,500,l),
(81,174,ls),
(81,55,o),
(148,-9,o),
(267,-9,cs)
);
}
);
width = 973;
},
{
anchors = (
{
name = top;
pos = (495,492);
}
);
layerId = m004;
shapes = (
{
closed = 1;
nodes = (
(324,-9,o),
(392,20,o),
(421,60,c),
(431,60,l),
(468,14,o),
(523,-9,o),
(601,-9,cs),
(665,-9,o),
(716,11,o),
(746,54,c),
(756,54,l),
(778,0,l),
(925,0,l),
(925,508,l),
(736,508,l),
(736,302,ls),
(736,200,o),
(713,140,o),
(657,140,cs),
(614,140,o),
(589,172,o),
(589,221,cs),
(589,508,l),
(400,508,l),
(400,302,ls),
(400,200,o),
(374,140,o),
(318,140,cs),
(276,140,o),
(252,172,o),
(252,221,cs),
(252,508,l),
(64,508,l),
(64,178,ls),
(64,59,o),
(131,-9,o),
(264,-9,cs)
);
}
);
width = 991;
},
{
anchors = (
{
name = top;
pos = (304,492);
}
);
layerId = m005;
shapes = (
{
closed = 1;
nodes = (
(245,-10,o),
(275,36,o),
(295,96,c),
(298,96,l),
(305,41,o),
(331,-10,o),
(399,-10,cs),
(474,-10,o),
(498,53,o),
(513,99,c),
(516,99,l),
(516,0,l),
(537,0,l),
(537,482,l),
(511,482,l),
(511,190,ls),
(511,105,o),
(476,14,o),
(399,14,cs),
(352,14,o),
(315,48,o),
(315,172,cs),
(315,482,l),
(289,482,l),
(289,186,ls),
(289,83,o),
(245,14,o),
(180,14,cs),
(132,14,o),
(95,52,o),
(95,155,cs),
(95,482,l),
(69,482,l),
(69,153,ls),
(69,40,o),
(111,-10,o),
(179,-10,cs)
);
}
);
width = 608;
},
{
anchors = (
{
name = top;
pos = (340,492);
}
);
layerId = m006;
shapes = (
{
closed = 1;
nodes = (
(249,-10,o),
(283,28,o),
(305,83,c),
(312,83,l),
(323,33,o),
(353,-10,o),
(420,-10,cs),
(490,-10,o),
(524,39,o),
(542,87,c),
(546,87,l),
(555,0,l),
(617,0,l),
(617,492,l),
(537,492,l),
(537,236,ls),
(537,136,o),
(511,62,o),
(446,62,cs),
(406,62,o),
(379,97,o),
(379,201,cs),
(379,492,l),
(299,492,l),
(299,227,ls),
(299,122,o),
(267,62,o),
(210,62,cs),
(169,62,o),
(141,100,o),
(141,191,cs),
(141,492,l),
(61,492,l),
(61,169,ls),
(61,46,o),
(106,-10,o),
(186,-10,cs)
);
}
);
width = 680;
},
{
anchors = (
{
name = top;
pos = (394,492);
}
);
layerId = m008;
shapes = (
{
closed = 1;
nodes = (
(256,-10,o),
(296,17,o),
(321,63,c),
(332,63,l),
(349,21,o),
(386,-10,o),
(451,-10,cs),
(515,-10,o),
(564,17,o),
(585,68,c),
(594,68,l),
(612,0,l),
(739,0,l),
(739,508,l),
(577,508,l),
(577,305,ls),
(577,185,o),
(563,135,o),
(518,135,cs),
(488,135,o),
(475,173,o),
(475,246,cs),
(475,508,l),
(313,508,l),
(313,289,ls),
(313,183,o),
(300,135,o),
(255,135,cs),
(225,135,o),
(211,173,o),
(211,246,cs),
(211,508,l),
(49,508,l),
(49,193,ls),
(49,56,o),
(98,-10,o),
(197,-10,cs)
);
}
);
width = 789;
}
);
note = uni0561;
unicode = 1377;
}
{
color = 10;
glyphname = uni0562;
kernLeft = uni0562;
kernRight = uni0535;
layers = (
{
layerId = m001;
shapes = (
{
closed = 1;
nodes = (
(113,-232,l),
(113,256,ls),
(113,400,o),
(191,467,o),
(291,467,cs),
(373,467,o),
(430,416,o),
(430,299,cs),
(430,180,l),
(456,180,l),
(456,300,ls),
(456,431,o),
(390,492,o),
(291,492,cs),
(194,492,o),
(137,432,o),
(114,371,c),
(112,371,l),
(108,482,l),
(87,482,l),
(87,-232,l)
);
},
{
closed = 1;
nodes = (
(95,0,l),
(473,0,l),
(473,25,l),
(95,25,l)
);
}
);
width = 539;
},
{
layerId = m002;
shapes = (
{
closed = 1;
nodes = (
(176,-236,l),
(176,241,ls),
(176,367,o),
(232,429,o),
(316,429,cs),
(382,429,o),
(425,387,o),
(425,297,cs),
(425,190,l),
(514,190,l),
(514,314,ls),
(514,439,o),
(447,502,o),
(337,502,cs),
(253,502,o),
(199,458,o),
(173,405,c),
(168,405,l),
(157,492,l),
(87,492,l),
(87,-236,l)
);
},
{
closed = 1;
nodes = (
(126,0,l),
(531,0,l),
(531,70,l),
(126,70,l)
);
}
);
width = 597;
},
{
associatedMasterId = m002;
attr = {
coordinates = (
144,
100
);
};
background = {
shapes = (
{
closed = 1;
nodes = (
(223.58,-240.27,l),
(223.58,225.75,ls),
(223.58,334.67,o),
(258.84,392.4,o),
(327.59,392.4,cs),
(378.34,392.4,o),
(407.92,358.94,o),
(407.92,295.78,cs),
(407.92,199.76,l),
(557.31,199.76,l),
(557.31,327.42,ls),
(557.31,446.32,o),
(489.09,511.76,o),
(368.72,511.76,cs),
(296.92,511.76,o),
(245.97,483.01,o),
(217.53,437.94,c),
(209.48,437.94,l),
(191.77,501.76,l),
(74.19,501.76,l),
(74.19,-240.27,l)
);
},
{
closed = 1;
nodes = (
(141.86,0,l),
(573.09,0,l),
(573.09,112.7,l),
(141.86,112.7,l)
);
}
);
};
layerId = "aef4753b-1c62-4c0c-94fa-fe234a0bba43";
name = "SemiBold (intermediate)";
shapes = (
{
closed = 1;
nodes = (
(224,-239,l),
(224,228,ls),
(224,340,o),
(263,399,o),
(334,399,cs),
(388,399,o),
(420,364,o),
(420,296,cs),
(420,198,l),
(559,198,l),
(559,325,ls),
(559,445,o),
(490,510,o),
(372,510,cs),
(298,510,o),
(246,479,o),
(219,433,c),
(211,433,l),
(194,500,l),
(85,500,l),
(85,-239,l)
);
},
{
closed = 1;
nodes = (
(148,0,l),
(575,0,l),
(575,105,l),
(148,105,l)
);
}
);
width = 641;
},
{
layerId = m004;
shapes = (
{
closed = 1;
nodes = (
(254,-243,l),
(254,216,ls),
(254,314,o),
(276,369,o),
(335,369,cs),
(376,369,o),
(397,341,o),
(397,295,cs),
(397,206,l),
(585,206,l),
(585,336,ls),
(585,451,o),
(516,518,o),
(389,518,cs),
(325,518,o),
(276,499,o),
(246,459,c),
(236,459,l),
(214,508,l),
(66,508,l),
(66,-243,l)
);
},
{
closed = 1;
nodes = (
(152,0,l),
(600,0,l),
(600,140,l),
(152,140,l)
);
}
);
width = 653;
},
{
layerId = m005;
shapes = (
{
closed = 1;
nodes = (
(98,-232,l),
(98,256,ls),
(98,389,o),
(134,468,o),
(198,468,cs),
(250,468,o),
(276,436,o),
(276,327,cs),
(276,180,l),
(302,180,l),
(302,326,ls),
(302,457,o),
(265,492,o),
(202,492,cs),
(149,492,o),
(114,460,o),
(100,395,c),
(96,395,l),
(93,482,l),
(72,482,l),
(72,-232,l)
);
},
{
closed = 1;
nodes = (
(86,-3,l),
(306,-3,l),
(306,23,l),
(86,23,l)
);
}
);
width = 370;
},
{
layerId = m006;
shapes = (
{
closed = 1;
nodes = (
(143,-235,l),
(143,240,ls),
(143,361,o),
(173,430,o),
(228,430,cs),
(272,430,o),
(293,398,o),
(293,314,cs),
(293,188,l),
(373,188,l),
(373,330,ls),
(373,456,o),
(327,502,o),
(249,502,cs),
(195,502,o),
(156,475,o),
(139,421,c),
(135,421,l),
(127,492,l),
(63,492,l),
(63,-235,l)
);
},
{
closed = 1;
nodes = (
(112,-2,l),
(378,-2,l),
(378,68,l),
(112,68,l)
);
}
);
width = 433;
},
{
layerId = m008;
shapes = (
{
closed = 1;
nodes = (
(212,-240,l),
(212,216,ls),
(212,324,o),
(233,373,o),
(275,373,cs),
(305,373,o),
(318,345,o),
(318,295,cs),
(318,200,l),
(480,200,l),
(480,336,ls),
(480,454,o),
(422,518,o),
(320,518,cs),
(264,518,o),
(221,497,o),
(198,461,c),
(195,461,l),
(178,508,l),
(50,508,l),
(50,-240,l)
);
},
{
closed = 1;
nodes = (
(150,0,l),
(485,0,l),
(485,135,l),
(150,135,l)
);
}
);
width = 529;
}
);
note = uni0562;
unicode = 1378;
}
{
color = 10;
glyphname = uni0563;
kernLeft = uni0563;
kernRight = uni0563;
layers = (
{
layerId = m001;
shapes = (
{
closed = 1;
nodes = (
(462,-232,l),
(462,0,l),
(547,0,l),
(547,25,l),
(462,25,l),
(462,482,l),
(440,482,l),
(436,378,l),
(434,378,l),
(411,441,o),
(351,492,o),
(266,492,cs),
(120,492,o),
(57,383,o),
(57,239,cs),
(57,76,o),
(125,-11,o),
(250,-11,cs),
(351,-11,o),
(414,39,o),
(436,116,c),
(438,116,l),
(437,83,o),
(436,35,o),
(436,3,cs),
(436,-232,l)
);
},
{
closed = 1;
nodes = (
(141,14,o),
(84,90,o),
(84,239,cs),
(84,391,o),
(149,467,o),
(266,467,cs),
(377,467,o),
(436,384,o),
(436,252,cs),
(436,242,ls),
(436,86,o),
(375,14,o),
(250,14,cs)
);
}
);
width = 552;
},
{
layerId = m002;
shapes = (
{
closed = 1;
nodes = (
(510,-236,l),
(510,0,l),
(634,0,l),
(634,70,l),
(510,70,l),
(510,492,l),
(439,492,l),
(428,409,l),
(424,409,l),
(395,465,o),
(340,502,o),
(266,502,cs),
(128,502,o),
(57,398,o),
(57,245,cs),
(57,85,o),
(130,-10,o),
(257,-10,cs),
(339,-10,o),
(394,27,o),
(420,89,c),
(426,89,l),
(423,53,o),
(421,15,o),
(421,-14,cs),
(421,-236,l)
);
},
{
closed = 1;
nodes = (
(192,63,o),
(148,124,o),
(148,244,cs),
(148,365,o),
(198,429,o),
(285,429,cs),
(377,429,o),
(421,365,o),
(421,254,cs),
(421,245,ls),
(421,121,o),
(373,63,o),
(278,63,cs)
);
}
);
width = 639;
},
{
associatedMasterId = m002;
attr = {
coordinates = (
144,
100
);
};
background = {
shapes = (
{
closed = 1;
nodes = (
(550.26,-240.27,l),
(550.26,0,l),
(711.47,0,l),
(711.47,112.7,l),
(550.26,112.7,l),
(550.26,501.76,l),
(432.9,501.76,l),
(414.58,438.28,l),
(408.14,438.28,l),
(373.65,487.57,o),
(323.53,511.76,o),
(259.9,511.76,cs),
(129.83,511.76,o),
(50.9,412.03,o),
(50.9,250.49,cs),
(50.9,94.15,o),
(128.17,-8.78,o),
(257,-8.78,cs),
(320.7,-8.78,o),
(367.77,16.02,o),
(398.65,63.38,c),
(407.7,63.38,l),
(402.87,24.33,o),
(400.87,-5.13,o),
(400.87,-31.08,cs),
(400.87,-240.27,l)
);
},
{
closed = 1;
nodes = (
(234.7,110.58,o),
(203.51,156.33,o),
(203.51,248.88,cs),
(203.51,340.6,o),
(238.26,392.4,o),
(297.2,392.4,cs),
(370.9,392.4,o),
(400.87,346.7,o),
(400.87,255.83,cs),
(400.87,248.05,ls),
(400.87,154.55,o),
(365.68,110.58,o),
(299.35,110.58,cs)
);
}
);
};
layerId = "97d9509c-84db-4c41-8930-9e121baf3428";
name = "SemiBold (intermediate)";
shapes = (
{
closed = 1;
nodes = (
(549,-239,l),
(549,0,l),
(704,0,l),
(704,105,l),
(549,105,l),
(549,500,l),
(440,500,l),
(423,433,l),
(417,433,l),
(383,483,o),
(333,510,o),
(267,510,cs),
(136,510,o),
(58,410,o),
(58,249,cs),
(58,93,o),
(134,-9,o),
(263,-9,cs),
(330,-9,o),
(378,18,o),
(408,68,c),
(417,68,l),
(412,30,o),
(410,-2,o),
(410,-28,cs),
(410,-239,l)
);
},
{
closed = 1;
nodes = (
(233,102,o),
(200,151,o),
(200,248,cs),
(200,345,o),
(237,399,o),
(301,399,cs),
(378,399,o),
(410,350,o),
(410,256,cs),
(410,248,ls),
(410,149,o),
(373,102,o),
(302,102,cs)
);
}
);
width = 709;
},
{
layerId = m004;
shapes = (
{
closed = 1;
nodes = (
(576,-243,l),
(576,0,l),
(761,0,l),
(761,140,l),
(576,140,l),
(576,508,l),
(429,508,l),
(406,457,l),
(398,457,l),
(360,502,o),
(313,518,o),
(256,518,cs),
(131,518,o),
(47,421,o),
(47,254,cs),
(47,100,o),
(127,-8,o),
(257,-8,cs),
(309,-8,o),
(351,9,o),
(385,47,c),
(396,47,l),
(390,6,o),
(388,-18,o),
(388,-42,cs),
(388,-243,l)
);
},
{
closed = 1;
nodes = (
(262,141,o),
(239,177,o),
(239,252,cs),
(239,325,o),
(264,369,o),
(305,369,cs),
(367,369,o),
(388,335,o),
(388,257,cs),
(388,250,ls),
(388,176,o),
(361,141,o),
(313,141,cs)
);
}
);
width = 765;
},
{
layerId = m005;
shapes = (
{
closed = 1;
nodes = (
(322,-232,l),
(322,-3,l),
(392,-3,l),
(392,22,l),
(322,22,l),
(322,482,l),
(302,482,l),
(299,392,l),
(297,392,l),
(286,453,o),
(250,492,o),
(186,492,cs),
(94,492,o),
(46,390,o),
(46,238,cs),
(46,81,o),
(94,-10,o),
(182,-10,cs),
(244,-10,o),
(279,30,o),
(296,100,c),
(299,100,l),
(297,71,o),
(296,35,o),
(296,20,cs),
(296,-232,l)
);
},
{
closed = 1;
nodes = (
(120,15,o),
(72,90,o),
(72,238,cs),
(72,372,o),
(112,466,o),
(188,466,cs),
(254,466,o),
(296,396,o),
(296,292,cs),
(296,208,ls),
(296,94,o),
(250,15,o),
(183,15,cs)
);
}
);
width = 398;
},
{
layerId = m006;
shapes = (
{
closed = 1;
nodes = (
(382,-235,l),
(382,-2,l),
(484,-2,l),
(484,68,l),
(382,68,l),
(382,492,l),
(314,492,l),
(307,420,l),
(303,420,l),
(284,473,o),
(249,502,o),
(190,502,cs),
(93,502,o),
(40,399,o),
(40,243,cs),
(40,84,o),
(93,-10,o),
(186,-10,cs),
(243,-10,o),
(280,19,o),
(302,78,c),
(306,78,l),
(303,41,o),
(302,5,o),
(302,-12,cs),
(302,-235,l)
);
},
{
closed = 1;
nodes = (
(157,59,o),
(121,117,o),
(121,242,cs),
(121,361,o),
(153,432,o),
(212,432,cs),
(270,432,o),
(302,379,o),
(302,281,cs),
(302,222,ls),
(302,119,o),
(267,59,o),
(210,59,cs)
);
}
);
width = 490;
},
{
layerId = m008;
shapes = (
{
closed = 1;
nodes = (
(474,-240,l),
(474,0,l),
(624,0,l),
(624,135,l),
(474,135,l),
(474,507,l),
(334,507,l),
(321,438,l),
(312,438,l),
(281,498,o),
(249,517,o),
(197,517,cs),
(93,517,o),
(32,412,o),
(32,250,cs),
(32,88,o),
(93,-10,o),
(192,-10,cs),
(243,-10,o),
(282,14,o),
(312,71,c),
(317,71,l),
(314,21,o),
(312,-14,o),
(312,-35,cs),
(312,-240,l)
);
},
{
closed = 1;
nodes = (
(215,125,o),
(196,158,o),
(196,248,cs),
(196,344,o),
(216,382,o),
(250,382,cs),
(294,382,o),
(312,353,o),
(312,264,cs),
(312,244,ls),
(312,156,o),
(294,125,o),
(251,125,cs)
);
}
);
width = 629;
}
);
note = uni0563;
unicode = 1379;
}
{
glyphname = uni0564;
kernLeft = uni0564;
kernRight = uni0563;
layers = (
{
layerId = m001;
shapes = (
{
closed = 1;
nodes = (
(456,-232,l),
(456,0,l),
(535,0,l),
(535,25,l),
(456,25,l),
(456,300,ls),
(456,431,o),
(390,492,o),
(291,492,cs),
(186,492,o),
(137,432,o),
(114,371,c),
(112,371,l),
(108,482,l),
(87,482,l),
(87,0,l),
(113,0,l),
(113,256,ls),
(113,400,o),
(183,467,o),
(291,467,cs),
(373,467,o),
(430,416,o),
(430,299,cs),
(430,-232,l)
);
}
);
width = 541;
},
{
layerId = m002;
shapes = (
{
closed = 1;
nodes = (
(514,-236,l),
(514,0,l),
(635,0,l),
(635,70,l),
(514,70,l),
(514,314,ls),
(514,439,o),
(447,502,o),
(337,502,cs),
(249,502,o),
(199,458,o),
(173,405,c),
(168,405,l),
(157,492,l),
(87,492,l),
(87,0,l),
(176,0,l),
(176,241,ls),
(176,367,o),
(228,429,o),
(316,429,cs),
(382,429,o),
(425,387,o),
(425,297,cs),
(425,-236,l)
);
}
);
width = 641;
},
{
layerId = m004;
shapes = (
{
closed = 1;
nodes = (
(585,-243,l),
(585,0,l),
(773,0,l),
(773,140,l),
(585,140,l),
(585,336,ls),
(585,451,o),
(516,518,o),
(389,518,cs),
(327,518,o),
(276,499,o),
(246,459,c),
(236,459,l),
(214,508,l),
(66,508,l),
(66,0,l),
(254,0,l),
(254,216,ls),
(254,314,o),
(278,369,o),
(335,369,cs),
(376,369,o),
(397,341,o),
(397,295,cs),
(397,-243,l)
);
}
);
width = 777;
},
{
layerId = m005;
shapes = (
{
closed = 1;
nodes = (
(301,-232,l),
(301,0,l),
(371,0,l),
(371,25,l),
(301,25,l),
(301,326,ls),
(301,457,o),
(264,492,o),
(201,492,cs),
(148,492,o),
(113,460,o),
(99,395,c),
(95,395,l),
(92,482,l),
(71,482,l),
(71,0,l),
(97,0,l),
(97,256,ls),
(97,389,o),
(133,468,o),
(197,468,cs),
(249,468,o),
(275,436,o),
(275,327,cs),
(275,-232,l)
);
}
);
width = 376;
},
{
layerId = m006;
shapes = (
{
closed = 1;
nodes = (
(373,-235,l),
(373,0,l),
(475,0,l),
(475,70,l),
(373,70,l),
(373,330,ls),
(373,456,o),
(327,502,o),
(249,502,cs),
(195,502,o),
(156,475,o),
(139,421,c),
(135,421,l),
(127,492,l),
(63,492,l),
(63,0,l),
(143,0,l),
(143,240,ls),
(143,361,o),
(173,429,o),
(228,429,cs),
(272,429,o),
(293,398,o),
(293,314,cs),
(293,-235,l)
);
}
);
width = 479;
},
{
layerId = m008;
shapes = (
{
closed = 1;
nodes = (
(480,-240,l),
(480,0,l),
(630,0,l),
(630,135,l),
(480,135,l),
(480,336,ls),
(480,454,o),
(422,518,o),
(320,518,cs),
(264,518,o),
(221,497,o),
(198,461,c),
(195,461,l),
(178,508,l),
(50,508,l),
(50,0,l),
(212,0,l),
(212,216,ls),
(212,324,o),
(233,373,o),
(275,373,cs),
(305,373,o),
(318,345,o),
(318,295,cs),
(318,-240,l)
);
}
);
width = 635;
}
);
note = uni0564;
unicode = 1380;
}
{
color = 10;
glyphname = uni0565;
kernLeft = uni0567;
kernRight = uni0565;
layers = (
{
layerId = m001;
shapes = (
{
closed = 1;
nodes = (
(425,332,l),
(425,226,ls),
(425,82,o),
(347,15,o),
(247,15,cs),
(165,15,o),
(108,66,o),
(108,183,cs),
(108,760,l),
(82,760,l),
(82,182,ls),
(82,51,o),
(148,-10,o),
(247,-10,cs),
(344,-10,o),
(401,50,o),
(424,111,c),
(426,111,l),
(430,0,l),
(451,0,l),
(451,332,l)
);
},
{
closed = 1;
nodes = (
(96,457,l),
(474,457,l),
(474,482,l),
(96,482,l)
);
}
);
width = 542;
},
{
layerId = m002;
shapes = (
{
closed = 1;
nodes = (
(420,317,l),
(420,252,ls),
(420,126,o),
(364,63,o),
(280,63,cs),
(214,63,o),
(171,105,o),
(171,195,cs),
(171,760,l),
(82,760,l),
(82,178,ls),
(82,54,o),
(150,-10,o),
(259,-10,cs),
(343,-10,o),
(397,34,o),
(423,87,c),
(428,87,l),
(439,0,l),
(509,0,l),
(509,317,l)
);
},
{
closed = 1;
nodes = (
(126,422,l),
(529,422,l),
(529,492,l),
(126,492,l)
);
}
);
width = 597;
},
{
associatedMasterId = m002;
attr = {
coordinates = (
144,
100
);
};
background = {
shapes = (
{
closed = 1;
nodes = (
(404.75,301.75,l),
(404.75,256.88,ls),
(404.75,168.7,o),
(370.1,109.36,o),
(301.35,109.36,cs),
(250.6,109.36,o),
(220.41,143.43,o),
(220.41,205.98,cs),
(220.41,760,l),
(71.02,760,l),
(71.02,174.95,ls),
(71.02,56.44,o),
(140.24,-10,o),
(260.22,-10,cs),
(332.02,-10,o),
(382.97,18.75,o),
(410.8,63.82,c),
(418.85,63.82,l),
(437.17,0,l),
(554.14,0,l),
(554.14,301.75,l)
);
},
{
closed = 1;
nodes = (
(142.47,389.06,l),
(569.87,389.06,l),
(569.87,501.76,l),
(142.47,501.76,l)
);
}
);
};
layerId = "e1135bea-2f24-4ad0-b9d6-2aed411c760b";
name = "SemiBold (intermediate)";
shapes = (
{
closed = 1;
nodes = (
(416,304,l),
(416,272,ls),
(416,160,o),
(377,101,o),
(306,101,cs),
(252,101,o),
(220,137,o),
(220,204,cs),
(220,760,l),
(81,760,l),
(81,176,ls),
(81,56,o),
(150,-10,o),
(268,-10,cs),
(342,-10,o),
(394,21,o),
(421,68,c),
(429,68,l),
(446,0,l),
(555,0,l),
(555,304,l)
);
},
{
closed = 1;
nodes = (
(148,395,l),
(571,395,l),
(571,500,l),
(148,500,l)
);
}
);
width = 641;
},
{
layerId = m004;
shapes = (
{
closed = 1;
nodes = (
(395,292,l),
(395,260,ls),
(395,196,o),
(374,139,o),
(315,139,cs),
(274,139,o),
(252,168,o),
(252,213,cs),
(252,760,l),
(64,760,l),
(64,173,ls),
(64,58,o),
(134,-10,o),
(261,-10,cs),
(325,-10,o),
(374,9,o),
(403,49,c),
(413,49,l),
(436,0,l),
(583,0,l),
(583,292,l)
);
},
{
closed = 1;
nodes = (
(153,368,l),
(596,368,l),
(596,508,l),
(153,508,l)
);
}
);
width = 653;
},
{
layerId = m005;
shapes = (
{
closed = 1;
nodes = (
(273,332,l),
(273,226,ls),
(273,93,o),
(237,14,o),
(173,14,cs),
(121,14,o),
(95,46,o),
(95,155,cs),
(95,760,l),
(69,760,l),
(69,156,ls),
(69,25,o),
(106,-10,o),
(169,-10,cs),
(222,-10,o),
(257,22,o),
(271,87,c),
(275,87,l),
(278,0,l),
(299,0,l),
(299,332,l)
);
},
{
closed = 1;
nodes = (
(84,457,l),
(303,457,l),
(303,482,l),
(84,482,l)
);
}
);
width = 370;
},
{
layerId = m006;
shapes = (
{
closed = 1;
nodes = (
(291,316,l),
(291,252,ls),
(291,131,o),
(260,64,o),
(205,64,cs),
(162,64,o),
(141,94,o),
(141,178,cs),
(141,760,l),
(61,760,l),
(61,162,ls),
(61,37,o),
(106,-10,o),
(185,-10,cs),
(239,-10,o),
(277,18,o),
(295,71,c),
(298,71,l),
(307,0,l),
(371,0,l),
(371,316,l)
);
},
{
closed = 1;
nodes = (
(110,422,l),
(375,422,l),
(375,492,l),
(110,492,l)
);
}
);
width = 433;
},
{
layerId = m008;
shapes = (
{
closed = 1;
nodes = (
(317,293,l),
(317,292,ls),
(317,184,o),
(296,135,o),
(254,135,cs),
(224,135,o),
(211,163,o),
(211,213,cs),
(211,760,l),
(49,760,l),
(49,172,ls),
(49,54,o),
(107,-10,o),
(209,-10,cs),
(265,-10,o),
(308,11,o),
(331,47,c),
(334,47,l),
(351,0,l),
(479,0,l),
(479,293,l)
);
},
{
closed = 1;
nodes = (
(149,373,l),
(484,373,l),
(484,508,l),
(149,508,l)
);
}
);
width = 529;
}
);
note = uni0565;
unicode = 1381;
}
{
color = 10;
glyphname = uni0566;
kernLeft = uni0563;
kernRight = uni0566;
layers = (
{
layerId = m001;
shapes = (
{
closed = 1;
nodes = (
(559,-232,l),
(559,-207,l),
(464,-207,l),
(464,482,l),
(442,482,l),
(438,378,l),
(436,378,l),
(413,441,o),
(353,492,o),
(268,492,cs),
(122,492,o),
(59,383,o),
(59,239,cs),
(59,76,o),
(127,-11,o),
(252,-11,cs),
(353,-11,o),
(416,39,o),
(438,116,c),
(440,116,l),
(439,83,o),
(438,35,o),
(438,3,cs),
(438,-232,l)
);
},
{
closed = 1;
nodes = (
(143,14,o),
(86,90,o),
(86,239,cs),
(86,391,o),
(151,467,o),
(268,467,cs),
(379,467,o),
(438,384,o),
(438,252,cs),
(438,242,ls),
(438,86,o),
(377,14,o),
(252,14,cs)
);
}
);
width = 551;
},
{
layerId = m002;
shapes = (
{
closed = 1;
nodes = (
(638,-236,l),
(638,-166,l),
(510,-166,l),
(510,492,l),
(439,492,l),
(428,409,l),
(424,409,l),
(395,465,o),
(340,502,o),
(266,502,cs),
(128,502,o),
(57,398,o),
(57,245,cs),
(57,85,o),
(130,-10,o),
(257,-10,cs),
(339,-10,o),
(394,27,o),
(420,89,c),
(426,89,l),
(423,53,o),
(421,15,o),
(421,-14,cs),
(421,-236,l)
);
},
{
closed = 1;
nodes = (
(192,63,o),
(148,124,o),
(148,244,cs),
(148,365,o),
(198,429,o),
(285,429,cs),
(377,429,o),
(421,365,o),
(421,254,cs),
(421,245,ls),
(421,121,o),
(373,63,o),
(278,63,cs)
);
}
);
width = 600;
},
{
associatedMasterId = m002;
attr = {
coordinates = (
144,
100
);
};
background = {
shapes = (
{
closed = 1;
nodes = (
(680.8,-240.22,l),
(680.8,-128.17,l),
(551.14,-128.17,l),
(551.14,501.61,l),
(432.7,501.61,l),
(415.04,434.3,l),
(407.65,434.3,l),
(373.48,486.93,o),
(323.53,511.61,o),
(259.63,511.61,cs),
(129.83,511.61,o),
(50.78,412.1,o),
(50.78,250.22,cs),
(50.78,93.71,o),
(128.17,-8.78,o),
(256.34,-8.78,cs),
(320.7,-8.78,o),
(367.55,17.29,o),
(398.55,67.65,c),
(407.99,67.65,l),
(403.16,28.53,o),
(400.77,-1.54,o),
(400.77,-27.05,cs),
(400.77,-240.22,l)
);
},
{
closed = 1;
nodes = (
(235.32,111.32,o),
(203.76,156.32,o),
(203.76,249.22,cs),
(203.76,339.97,o),
(238.83,391.9,o),
(297.02,391.9,cs),
(370.26,391.9,o),
(400.77,346.56,o),
(400.77,255.2,cs),
(400.77,248.63,ls),
(400.77,154.98,o),
(365.21,111.32,o),
(299.34,111.32,cs)
);
}
);
};
layerId = "8e8ec7cf-4e2b-4c8a-9bcd-177c9f54a7d2";
name = "SemiBold (intermediate)";
shapes = (
{
closed = 1;
nodes = (
(684,-239,l),
(684,-134,l),
(549,-134,l),
(549,500,l),
(440,500,l),
(423,433,l),
(417,433,l),
(383,483,o),
(333,510,o),
(267,510,cs),
(136,510,o),
(58,410,o),
(58,249,cs),
(58,93,o),
(134,-9,o),
(263,-9,cs),
(330,-9,o),
(378,18,o),
(408,68,c),
(417,68,l),
(412,30,o),
(410,-2,o),
(410,-28,cs),
(410,-239,l)
);
},
{
closed = 1;
nodes = (
(233,102,o),
(200,151,o),
(200,248,cs),
(200,345,o),
(237,399,o),
(301,399,cs),
(378,399,o),
(410,350,o),
(410,256,cs),
(410,248,ls),
(410,149,o),
(373,102,o),
(302,102,cs)
);
}
);
width = 644;
},
{
layerId = m004;
shapes = (
{
closed = 1;
nodes = (
(716,-243,l),
(716,-103,l),
(576,-103,l),
(576,508,l),
(429,508,l),
(406,457,l),
(398,457,l),
(360,502,o),
(313,518,o),
(256,518,cs),
(131,518,o),
(47,421,o),
(47,254,cs),
(47,100,o),
(127,-8,o),
(257,-8,cs),
(309,-8,o),
(351,9,o),
(385,47,c),
(396,47,l),
(390,6,o),
(388,-18,o),
(388,-42,cs),
(388,-243,l)
);
},
{
closed = 1;
nodes = (
(262,141,o),
(239,177,o),
(239,252,cs),
(239,325,o),
(264,369,o),
(305,369,cs),
(367,369,o),
(388,335,o),
(388,257,cs),
(388,250,ls),
(388,176,o),
(361,141,o),
(313,141,cs)
);
}
);
width = 676;
},
{
layerId = m005;
shapes = (
{
closed = 1;
nodes = (
(402,-232,l),
(402,-207,l),
(322,-207,l),
(322,482,l),
(302,482,l),
(299,392,l),
(297,392,l),
(286,453,o),
(250,492,o),
(186,492,cs),
(94,492,o),
(46,390,o),
(46,238,cs),
(46,81,o),
(94,-10,o),
(182,-10,cs),
(244,-10,o),
(279,30,o),
(296,100,c),
(299,100,l),
(297,71,o),
(296,35,o),
(296,20,cs),
(296,-232,l)
);
},
{
closed = 1;
nodes = (
(120,15,o),
(72,90,o),
(72,238,cs),
(72,372,o),
(112,466,o),
(188,466,cs),
(254,466,o),
(296,396,o),
(296,292,cs),
(296,208,ls),
(296,94,o),
(250,15,o),
(183,15,cs)
);
}
);
width = 393;
},
{
layerId = m006;
shapes = (
{
closed = 1;
nodes = (
(482,-235,l),
(482,-165,l),
(382,-165,l),
(382,492,l),
(314,492,l),
(307,420,l),
(303,420,l),
(284,474,o),
(249,502,o),
(190,502,cs),
(93,502,o),
(40,399,o),
(40,243,cs),
(40,84,o),
(93,-10,o),
(186,-10,cs),
(243,-10,o),
(280,21,o),
(302,78,c),
(306,78,l),
(303,41,o),
(302,5,o),
(302,-12,cs),
(302,-235,l)
);
},
{
closed = 1;
nodes = (
(157,59,o),
(121,117,o),
(121,242,cs),
(121,361,o),
(153,432,o),
(212,432,cs),
(270,432,o),
(302,379,o),
(302,281,cs),
(302,222,ls),
(302,119,o),
(267,59,o),
(210,59,cs)
);
}
);
width = 445;
},
{
associatedMasterId = m006;
attr = {
coordinates = (
144,
70
);
};
background = {
shapes = (
{
closed = 1;
nodes = (
(541.78,-238.05,l),
(541.78,-128.4,l),
(438.12,-128.4,l),
(438.12,501.15,l),
(326.2,501.15,l),
(315.54,430.98,l),
(308.49,430.98,l),
(282.17,488.64,o),
(249,511.15,o),
(194.27,511.15,cs),
(93,511.15,o),
(35.12,406.93,o),
(35.12,247.27,cs),
(35.12,86.44,o),
(93,-10,o),
(189.66,-10,cs),
(243,-10,o),
(281.22,16.73,o),
(308.1,73.73,c),
(312.71,73.73,l),
(309.71,28.8,o),
(308.1,-6.59,o),
(308.1,-26.03,cs),
(308.1,-238.05,l)
);
},
{
closed = 1;
nodes = (
(192.38,99.26,o),
(166.75,142.01,o),
(166.75,245.66,cs),
(166.75,350.63,o),
(191.43,401.5,o),
(235.18,401.5,cs),
(284.64,401.5,o),
(308.1,363.14,o),
(308.1,270.63,cs),
(308.1,235.42,ls),
(308.1,141.57,o),
(283.47,99.26,o),
(235.01,99.26,cs)
);
}
);
};
layerId = "90fd2466-233d-483e-a99c-52b35cb9a252";
name = "Condensed SemiBold (intermediate)";
shapes = (
{
closed = 1;
nodes = (
(537,-238,l),
(537,-129,l),
(439,-129,l),
(439,501,l),
(326,501,l),
(316,427,l),
(308,427,l),
(282,488,o),
(249,511,o),
(194,511,cs),
(93,511,o),
(35,407,o),
(35,247,cs),
(35,86,o),
(93,-10,o),
(189,-10,cs),
(243,-10,o),
(281,18,o),
(308,78,c),
(313,78,l),
(310,33,o),
(308,-3,o),
(308,-22,cs),
(308,-238,l)
);
},
{
closed = 1;
nodes = (
(193,100,o),
(167,142,o),
(167,246,cs),
(167,350,o),
(192,401,o),
(235,401,cs),
(284,401,o),
(308,363,o),
(308,270,cs),
(308,236,ls),
(308,142,o),
(283,100,o),
(235,100,cs)
);
}
);
width = 507;
},
{
layerId = m008;
shapes = (
{
closed = 1;
nodes = (
(580,-240,l),
(580,-105,l),
(474,-105,l),
(474,507,l),
(334,507,l),
(321,438,l),
(312,438,l),
(281,498,o),
(249,517,o),
(197,517,cs),
(93,517,o),
(32,412,o),
(32,250,cs),
(32,88,o),
(93,-10,o),
(192,-10,cs),
(243,-10,o),
(282,14,o),
(312,71,c),
(317,71,l),
(314,21,o),
(312,-14,o),
(312,-35,cs),
(312,-240,l)
);
},
{
closed = 1;
nodes = (
(215,125,o),
(196,158,o),
(196,248,cs),
(196,344,o),
(216,382,o),
(250,382,cs),
(294,382,o),
(312,353,o),
(312,264,cs),
(312,244,ls),
(312,156,o),
(294,125,o),
(251,125,cs)
);
}
);
width = 528;
}
);
note = uni0566;
unicode = 1382;
}
{
glyphname = uni0567;
kernLeft = uni0567;
kernRight = uni0567;
layers = (
{
anchors = (
{
name = top;
pos = (189,760);
}
);
layerId = m001;
shapes = (
{
closed = 1;
nodes = (
(113,0,l),
(113,760,l),
(87,760,l),
(87,0,l)
);
},
{
closed = 1;
nodes = (
(100,457,l),
(367,457,l),
(367,482,l),
(100,482,l)
);
},
{
closed = 1;
nodes = (
(295,0,ls),
(335,0,o),
(359,-22,o),
(359,-72,cs),
(359,-90,l),
(385,-90,l),
(385,-71,ls),
(385,-6,o),
(352,25,o),
(295,25,cs),
(87,25,l),
(87,0,l)
);
}
);
width = 424;
},
{
anchors = (
{
name = top;
pos = (229,760);
}
);
layerId = m002;
shapes = (
{
closed = 1;
nodes = (
(176,0,l),
(176,760,l),
(87,760,l),
(87,0,l)
);
},
{
closed = 1;
nodes = (
(128,422,l),
(426,422,l),
(426,492,l),
(128,492,l)
);
},
{
closed = 1;
nodes = (
(283,0,ls),
(329,0,o),
(346,-21,o),
(346,-74,cs),
(346,-87,l),
(435,-87,l),
(435,-60,ls),
(435,33,o),
(396,70,o),
(304,70,cs),
(87,70,l),
(87,0,l)
);
}
);
width = 474;
},
{
anchors = (
{
name = top;
pos = (270,760);
}
);
layerId = m004;
shapes = (
{
closed = 1;
nodes = (
(254,0,l),
(254,760,l),
(66,760,l),
(66,0,l)
);
},
{
closed = 1;
nodes = (
(151,368,l),
(499,368,l),
(499,508,l),
(151,508,l)
);
},
{
closed = 1;
nodes = (
(242,0,ls),
(299,0,o),
(304,-19,o),
(304,-76,cs),
(304,-83,l),
(492,-83,l),
(492,-42,ls),
(492,94,o),
(445,140,o),
(298,140,cs),
(66,140,l),
(66,0,l)
);
}
);
width = 528;
},
{
anchors = (
{
name = top;
pos = (138,760);
}
);
layerId = m005;
shapes = (
{
closed = 1;
nodes = (
(97,0,l),
(97,760,l),
(71,760,l),
(71,0,l)
);
},
{
closed = 1;
nodes = (
(86,457,l),
(245,457,l),
(245,482,l),
(86,482,l)
);
},
{
closed = 1;
nodes = (
(150,0,ls),
(198,0,o),
(214,-13,o),
(214,-59,cs),
(214,-95,l),
(240,-95,l),
(240,-59,ls),
(240,2,o),
(214,25,o),
(154,25,cs),
(71,25,l),
(71,0,l)
);
}
);
width = 271;
},
{
anchors = (
{
name = top;
pos = (175,760);
}
);
layerId = m006;
shapes = (
{
closed = 1;
nodes = (
(143,0,l),
(143,760,l),
(63,760,l),
(63,0,l)
);
},
{
closed = 1;
nodes = (
(112,422,l),
(309,422,l),
(309,492,l),
(112,492,l)
);
},
{
closed = 1;
nodes = (
(171,0,ls),
(211,0,o),
(227,-13,o),
(227,-56,cs),
(227,-90,l),
(306,-90,l),
(306,-52,ls),
(306,39,o),
(266,70,o),
(180,70,cs),
(63,70,l),
(63,0,l)
);
}
);
width = 332;
},
{
anchors = (
{
name = top;
pos = (229,760);
}
);
layerId = m008;
shapes = (
{
closed = 1;
nodes = (
(212,0,l),
(212,760,l),
(50,760,l),
(50,0,l)
);
},
{
closed = 1;
nodes = (
(150,373,l),
(405,373,l),
(405,508,l),
(150,508,l)
);
},
{
closed = 1;
nodes = (
(201,0,ls),
(230,0,o),
(245,-14,o),
(245,-51,cs),
(245,-83,l),
(405,-83,l),
(405,-42,ls),
(405,95,o),
(343,135,o),
(218,135,cs),
(50,135,l),
(50,0,l)
);
}
);
width = 425;
}
);
note = uni0567;
unicode = 1383;
}
{
color = 10;
glyphname = uni0568;
kernLeft = uni0562;
kernRight = uni0535;
layers = (
{
anchors = (
{
name = top;
pos = (252,492);
}
);
layerId = m001;
shapes = (
{
closed = 1;
nodes = (
(113,-232,l),
(113,256,ls),
(113,400,o),
(191,467,o),
(291,467,cs),
(373,467,o),
(430,416,o),
(430,299,cs),
(430,0,l),
(456,0,l),
(456,300,ls),
(456,431,o),
(390,492,o),
(291,492,cs),
(194,492,o),
(137,432,o),
(114,371,c),
(112,371,l),
(108,482,l),
(87,482,l),
(87,-232,l)
);
},
{
closed = 1;
nodes = (
(95,-232,l),
(473,-232,l),
(473,-207,l),
(95,-207,l)
);
}
);
width = 539;
},
{
anchors = (
{
name = top;
pos = (293,492);
}
);
layerId = m002;
shapes = (
{
closed = 1;
nodes = (
(176,-236,l),
(176,241,ls),
(176,367,o),
(232,429,o),
(316,429,cs),
(382,429,o),
(425,387,o),
(425,297,cs),
(425,0,l),
(514,0,l),
(514,314,ls),
(514,439,o),
(447,502,o),
(337,502,cs),
(253,502,o),
(199,458,o),
(173,405,c),
(168,405,l),
(157,492,l),
(87,492,l),
(87,-236,l)
);
},
{
closed = 1;
nodes = (
(126,-236,l),
(531,-236,l),
(531,-166,l),
(126,-166,l)
);
}
);
width = 597;
},
{
associatedMasterId = m002;
attr = {
coordinates = (
144,
100
);
};
background = {
shapes = (
{
closed = 1;
nodes = (
(223.58,-240.27,l),
(223.58,225.75,ls),
(223.58,334.67,o),
(258.84,392.4,o),
(327.59,392.4,cs),
(378.34,392.4,o),
(407.92,358.94,o),
(407.92,295.78,cs),
(407.92,0,l),
(557.31,0,l),
(557.31,327.42,ls),
(557.31,446.32,o),
(489.09,511.76,o),
(368.72,511.76,cs),
(296.92,511.76,o),
(245.97,483.01,o),
(217.53,437.94,c),
(209.48,437.94,l),
(191.77,501.76,l),
(74.19,501.76,l),
(74.19,-240.27,l)
);
},
{
closed = 1;
nodes = (
(141.86,-240.27,l),
(573.09,-240.27,l),
(573.09,-127.57,l),
(141.86,-127.57,l)
);
}
);
};
layerId = "3e40e330-8fc3-45ad-92b8-026e7d919f05";
name = "SemiBold (intermediate)";
shapes = (
{
closed = 1;
nodes = (
(224,-239,l),
(224,228,ls),
(224,340,o),
(263,399,o),
(334,399,cs),
(388,399,o),
(420,364,o),
(420,296,cs),
(420,0,l),
(559,0,l),
(559,325,ls),
(559,445,o),
(490,510,o),
(372,510,cs),
(298,510,o),
(246,479,o),
(219,433,c),
(211,433,l),
(194,500,l),
(85,500,l),
(85,-239,l)
);
},
{
closed = 1;
nodes = (
(148,-239,l),
(575,-239,l),
(575,-134,l),
(148,-134,l)
);
}
);
width = 641;
},
{
anchors = (
{
name = top;
pos = (337,492);
}
);
layerId = m004;
shapes = (
{
closed = 1;
nodes = (
(254,-243,l),
(254,216,ls),
(254,314,o),
(276,369,o),
(335,369,cs),
(376,369,o),
(397,341,o),
(397,295,cs),
(397,0,l),
(585,0,l),
(585,336,ls),
(585,451,o),
(516,518,o),
(389,518,cs),
(325,518,o),
(276,499,o),
(246,459,c),
(236,459,l),
(214,508,l),
(66,508,l),
(66,-243,l)
);
},
{
closed = 1;
nodes = (
(152,-243,l),
(600,-243,l),
(600,-103,l),
(152,-103,l)
);
}
);
width = 653;
},
{
anchors = (
{
name = top;
pos = (187,492);
}
);
layerId = m005;
shapes = (
{
closed = 1;
nodes = (
(98,-232,l),
(98,256,ls),
(98,389,o),
(134,468,o),
(198,468,cs),
(250,468,o),
(276,436,o),
(276,327,cs),
(276,0,l),
(302,0,l),
(302,326,ls),
(302,457,o),
(265,492,o),
(202,492,cs),
(149,492,o),
(114,460,o),
(100,395,c),
(96,395,l),
(93,482,l),
(72,482,l),
(72,-232,l)
);
},
{
closed = 1;
nodes = (
(86,-232,l),
(306,-232,l),
(306,-207,l),
(86,-207,l)
);
}
);
width = 370;
},
{
anchors = (
{
name = top;
pos = (217,492);
}
);
layerId = m006;
shapes = (
{
closed = 1;
nodes = (
(143,-235,l),
(143,240,ls),
(143,361,o),
(173,429,o),
(228,429,cs),
(272,429,o),
(293,398,o),
(293,314,cs),
(293,0,l),
(373,0,l),
(373,330,ls),
(373,456,o),
(327,502,o),
(249,502,cs),
(195,502,o),
(156,475,o),
(139,421,c),
(135,421,l),
(127,492,l),
(63,492,l),
(63,-235,l)
);
},
{
closed = 1;
nodes = (
(112,-235,l),
(378,-235,l),
(378,-165,l),
(112,-165,l)
);
}
);
width = 433;
},
{
anchors = (
{
name = top;
pos = (275,492);
}
);
layerId = m008;
shapes = (
{
closed = 1;
nodes = (
(212,-240,l),
(212,216,ls),
(212,324,o),
(233,373,o),
(275,373,cs),
(305,373,o),
(318,345,o),
(318,295,cs),
(318,0,l),
(480,0,l),
(480,336,ls),
(480,454,o),
(422,518,o),
(320,518,cs),
(264,518,o),
(221,497,o),
(198,461,c),
(195,461,l),
(178,508,l),
(50,508,l),
(50,-240,l)
);
},
{
closed = 1;
nodes = (
(150,-240,l),
(485,-240,l),
(485,-105,l),
(150,-105,l)
);
}
);
width = 529;
}
);
note = uni0568;
unicode = 1384;
}
